<mxfile host="app.diagrams.net" modified="2021-02-25T18:30:26.386Z" agent="5.0 (Windows NT 10.0; Win64; x64) AppleWebKit/537.36 (KHTML, like Gecko) Chrome/88.0.4324.182 Safari/537.36 Edg/88.0.705.74" etag="bweMezQ0wvQ0Yxxf1FTP" version="14.4.3" type="github" pages="4">
  <diagram id="2emrZOq0hlmeC0GBPsk7" name="Page-1">
    <mxGraphModel dx="2272" dy="1894" grid="1" gridSize="10" guides="1" tooltips="1" connect="1" arrows="1" fold="1" page="1" pageScale="1" pageWidth="850" pageHeight="1100" math="0" shadow="0">
      <root>
        <mxCell id="0" />
        <mxCell id="1" parent="0" />
        <mxCell id="NfyWRdIrxdjjcfdtqH4J-46" value="&lt;p style=&quot;line-height: 110%&quot;&gt;&lt;/p&gt;&lt;div&gt;&lt;font color=&quot;#000000&quot;&gt;CLOUD HUB - &lt;/font&gt;&lt;font color=&quot;#ff0000&quot;&gt;CAN-DEMO&lt;/font&gt;&lt;/div&gt;&lt;p&gt;&lt;/p&gt;" style="rounded=0;whiteSpace=wrap;html=1;align=center;verticalAlign=bottom;gradientColor=#ffffff;fillColor=#FFD966;" parent="1" vertex="1">
          <mxGeometry x="660" y="-270" width="430" height="190" as="geometry" />
        </mxCell>
        <mxCell id="NfyWRdIrxdjjcfdtqH4J-152" value="&lt;p style=&quot;line-height: 110%&quot;&gt;&lt;/p&gt;&lt;div&gt;&lt;font color=&quot;#000000&quot;&gt;CLOUD HUB - &lt;/font&gt;&lt;font color=&quot;#ff0000&quot;&gt;CAN-DEMO&lt;/font&gt;&lt;/div&gt;&lt;p&gt;&lt;/p&gt;" style="rounded=0;whiteSpace=wrap;html=1;align=center;verticalAlign=bottom;gradientColor=#ffffff;fillColor=#FFD966;" parent="1" vertex="1">
          <mxGeometry x="660" y="-270" width="430" height="190" as="geometry" />
        </mxCell>
        <mxCell id="NfyWRdIrxdjjcfdtqH4J-7" value="&lt;p style=&quot;line-height: 110%&quot;&gt;&lt;font color=&quot;#0000ff&quot;&gt;&lt;span style=&quot;text-align: center ; color: rgb(0 , 0 , 0) ; text-transform: none ; text-indent: 0px ; letter-spacing: normal ; font-family: &amp;#34;helvetica&amp;#34; ; font-size: 12px ; font-style: normal ; font-variant: normal ; font-weight: 400 ; text-decoration: none ; word-spacing: 0px ; display: inline ; float: none ; background-color: rgb(248 , 249 , 250)&quot;&gt;CLOUD HUB - &lt;/span&gt;CAN-QA&lt;/font&gt;&lt;/p&gt;" style="rounded=0;whiteSpace=wrap;html=1;align=center;verticalAlign=bottom;gradientColor=#ffffff;fillColor=#FFD966;" parent="1" vertex="1">
          <mxGeometry x="660" y="50" width="430" height="190" as="geometry" />
        </mxCell>
        <mxCell id="NfyWRdIrxdjjcfdtqH4J-1" value="AWS API Gateway" style="rounded=1;whiteSpace=wrap;html=1;" parent="1" vertex="1">
          <mxGeometry x="265" y="130" width="160" height="320" as="geometry" />
        </mxCell>
        <mxCell id="NfyWRdIrxdjjcfdtqH4J-2" value="Actor" style="shape=umlActor;verticalLabelPosition=bottom;verticalAlign=top;html=1;outlineConnect=0;" parent="1" vertex="1">
          <mxGeometry x="-643" y="230" width="30" height="60" as="geometry" />
        </mxCell>
        <mxCell id="NfyWRdIrxdjjcfdtqH4J-3" value="" style="ellipse;shape=cloud;whiteSpace=wrap;html=1;" parent="1" vertex="1">
          <mxGeometry x="-370" y="230" width="120" height="70" as="geometry" />
        </mxCell>
        <mxCell id="NfyWRdIrxdjjcfdtqH4J-4" value="https://demo.relnks.com" style="endArrow=classic;html=1;exitX=1;exitY=0.3333333333333333;exitDx=0;exitDy=0;exitPerimeter=0;entryX=0.35;entryY=0.114;entryDx=0;entryDy=0;entryPerimeter=0;fillColor=#e51400;strokeColor=#B20000;" parent="1" source="NfyWRdIrxdjjcfdtqH4J-2" target="NfyWRdIrxdjjcfdtqH4J-3" edge="1">
          <mxGeometry x="0.1428" y="-12" width="50" height="50" relative="1" as="geometry">
            <mxPoint x="-473" y="-5" as="sourcePoint" />
            <mxPoint x="-393" y="211" as="targetPoint" />
            <Array as="points">
              <mxPoint x="-483" y="243" />
            </Array>
            <mxPoint as="offset" />
          </mxGeometry>
        </mxCell>
        <mxCell id="NfyWRdIrxdjjcfdtqH4J-5" value="https://demo.tnghub.nationwideappraisals.com" style="endArrow=classic;html=1;fillColor=#e51400;strokeColor=#B20000;entryX=0.031;entryY=0.19;entryDx=0;entryDy=0;entryPerimeter=0;exitX=0.95;exitY=0.514;exitDx=0;exitDy=0;exitPerimeter=0;" parent="1" source="NfyWRdIrxdjjcfdtqH4J-76" target="NfyWRdIrxdjjcfdtqH4J-1" edge="1">
          <mxGeometry x="0.3967" y="-8" width="50" height="50" relative="1" as="geometry">
            <mxPoint x="220" y="135.03" as="sourcePoint" />
            <mxPoint x="250" y="110" as="targetPoint" />
            <mxPoint as="offset" />
          </mxGeometry>
        </mxCell>
        <mxCell id="NfyWRdIrxdjjcfdtqH4J-10" value="Experience API - http://relnks-exp-events.ca-c1.cloudhub.io/" style="rounded=0;whiteSpace=wrap;html=1;" parent="1" vertex="1">
          <mxGeometry x="670" y="60" width="330" height="30" as="geometry" />
        </mxCell>
        <mxCell id="NfyWRdIrxdjjcfdtqH4J-11" value="RealEstate Process (NAS)" style="rounded=0;whiteSpace=wrap;html=1;" parent="1" vertex="1">
          <mxGeometry x="820" y="95" width="120" height="30" as="geometry" />
        </mxCell>
        <mxCell id="NfyWRdIrxdjjcfdtqH4J-12" value="HomeClosing Process (HCS)" style="rounded=0;whiteSpace=wrap;html=1;" parent="1" vertex="1">
          <mxGeometry x="820" y="130" width="120" height="30" as="geometry" />
        </mxCell>
        <mxCell id="NfyWRdIrxdjjcfdtqH4J-13" value="External Process" style="rounded=0;whiteSpace=wrap;html=1;" parent="1" vertex="1">
          <mxGeometry x="820" y="166" width="120" height="30" as="geometry" />
        </mxCell>
        <mxCell id="NfyWRdIrxdjjcfdtqH4J-14" value="&lt;span style=&quot;font: 12px / 1.2 &amp;#34;helvetica&amp;#34; ; text-align: center ; color: rgb(0 , 0 , 0) ; text-transform: none ; text-indent: 0px ; letter-spacing: normal ; text-decoration: none ; word-spacing: 0px ; display: inline ; float: none ; overflow-wrap: normal ; background-color: rgb(248 , 249 , 250)&quot;&gt;RealEstate System (NAS)&lt;/span&gt;" style="rounded=0;whiteSpace=wrap;html=1;" parent="1" vertex="1">
          <mxGeometry x="950" y="95" width="120" height="30" as="geometry" />
        </mxCell>
        <mxCell id="NfyWRdIrxdjjcfdtqH4J-15" value="&lt;span style=&quot;font: 12px / 1.2 &amp;#34;helvetica&amp;#34; ; text-align: center ; color: rgb(0 , 0 , 0) ; text-transform: none ; text-indent: 0px ; letter-spacing: normal ; text-decoration: none ; word-spacing: 0px ; display: inline ; float: none ; overflow-wrap: normal ; background-color: rgb(248 , 249 , 250)&quot;&gt;HomeClosing System (HCS)&lt;/span&gt;" style="rounded=0;whiteSpace=wrap;html=1;" parent="1" vertex="1">
          <mxGeometry x="950" y="130" width="120" height="30" as="geometry" />
        </mxCell>
        <mxCell id="HagU0EfNBF4asc3zr9B8-12" style="edgeStyle=none;rounded=1;orthogonalLoop=1;jettySize=auto;html=1;exitX=0.5;exitY=1;exitDx=0;exitDy=0;strokeColor=#FF99FF;" parent="1" source="NfyWRdIrxdjjcfdtqH4J-16" edge="1">
          <mxGeometry relative="1" as="geometry">
            <mxPoint x="1230" y="1090" as="targetPoint" />
            <Array as="points">
              <mxPoint x="1010" y="340" />
              <mxPoint x="1220" y="340" />
            </Array>
          </mxGeometry>
        </mxCell>
        <mxCell id="NfyWRdIrxdjjcfdtqH4J-16" value="Exernal System" style="rounded=0;whiteSpace=wrap;html=1;" parent="1" vertex="1">
          <mxGeometry x="950" y="166" width="120" height="30" as="geometry" />
        </mxCell>
        <mxCell id="NfyWRdIrxdjjcfdtqH4J-19" value="" style="curved=1;endArrow=classic;html=1;" parent="1" source="NfyWRdIrxdjjcfdtqH4J-10" target="NfyWRdIrxdjjcfdtqH4J-11" edge="1">
          <mxGeometry width="50" height="50" relative="1" as="geometry">
            <mxPoint x="720" y="180" as="sourcePoint" />
            <mxPoint x="770" y="130" as="targetPoint" />
            <Array as="points">
              <mxPoint x="760" y="118" />
            </Array>
          </mxGeometry>
        </mxCell>
        <mxCell id="NfyWRdIrxdjjcfdtqH4J-20" value="" style="curved=1;endArrow=classic;html=1;entryX=0;entryY=0.5;entryDx=0;entryDy=0;exitX=0.25;exitY=1;exitDx=0;exitDy=0;" parent="1" source="NfyWRdIrxdjjcfdtqH4J-10" target="NfyWRdIrxdjjcfdtqH4J-12" edge="1">
          <mxGeometry width="50" height="50" relative="1" as="geometry">
            <mxPoint x="806.6666666666667" y="100" as="sourcePoint" />
            <mxPoint x="830" y="124" as="targetPoint" />
            <Array as="points">
              <mxPoint x="670" y="120" />
            </Array>
          </mxGeometry>
        </mxCell>
        <mxCell id="NfyWRdIrxdjjcfdtqH4J-21" value="" style="curved=1;endArrow=classic;html=1;entryX=0;entryY=0.5;entryDx=0;entryDy=0;exitX=0.133;exitY=1;exitDx=0;exitDy=0;exitPerimeter=0;" parent="1" source="NfyWRdIrxdjjcfdtqH4J-10" target="NfyWRdIrxdjjcfdtqH4J-13" edge="1">
          <mxGeometry width="50" height="50" relative="1" as="geometry">
            <mxPoint x="800" y="90" as="sourcePoint" />
            <mxPoint x="840" y="134" as="targetPoint" />
            <Array as="points">
              <mxPoint x="640" y="100" />
              <mxPoint x="780" y="181" />
            </Array>
          </mxGeometry>
        </mxCell>
        <mxCell id="NfyWRdIrxdjjcfdtqH4J-24" value="&lt;p style=&quot;line-height: 110%&quot;&gt;&lt;/p&gt;&lt;div&gt;&lt;font color=&quot;#999900&quot;&gt;&lt;span style=&quot;text-align: center ; color: rgb(0 , 0 , 0) ; text-transform: none ; text-indent: 0px ; letter-spacing: normal ; font-family: &amp;#34;helvetica&amp;#34; ; font-size: 12px ; font-style: normal ; font-variant: normal ; font-weight: 400 ; text-decoration: none ; word-spacing: 0px ; display: inline ; float: none ; background-color: rgb(248 , 249 , 250)&quot;&gt;CLOUD HUB - &lt;/span&gt;&lt;b&gt;CAN-UAT&lt;/b&gt;&lt;/font&gt;&lt;/div&gt;&lt;p&gt;&lt;/p&gt;" style="rounded=0;whiteSpace=wrap;html=1;align=center;verticalAlign=bottom;gradientColor=#ffffff;fillColor=#FFD966;" parent="1" vertex="1">
          <mxGeometry x="650" y="380" width="430" height="190" as="geometry" />
        </mxCell>
        <mxCell id="NfyWRdIrxdjjcfdtqH4J-25" value="Experience API - http://relnks-exp-events-&lt;font color=&quot;#999900&quot;&gt;uat&lt;/font&gt;.ca-c1.cloudhub.io/" style="rounded=0;whiteSpace=wrap;html=1;" parent="1" vertex="1">
          <mxGeometry x="660" y="390" width="330" height="30" as="geometry" />
        </mxCell>
        <mxCell id="NfyWRdIrxdjjcfdtqH4J-26" value="RealEstate Process (NAS)" style="rounded=0;whiteSpace=wrap;html=1;" parent="1" vertex="1">
          <mxGeometry x="810" y="425" width="120" height="30" as="geometry" />
        </mxCell>
        <mxCell id="NfyWRdIrxdjjcfdtqH4J-27" value="HomeClosing Process (HCS)" style="rounded=0;whiteSpace=wrap;html=1;" parent="1" vertex="1">
          <mxGeometry x="810" y="460" width="120" height="30" as="geometry" />
        </mxCell>
        <mxCell id="NfyWRdIrxdjjcfdtqH4J-28" value="External Process" style="rounded=0;whiteSpace=wrap;html=1;" parent="1" vertex="1">
          <mxGeometry x="810" y="496" width="120" height="30" as="geometry" />
        </mxCell>
        <mxCell id="NfyWRdIrxdjjcfdtqH4J-29" value="&lt;span style=&quot;font: 12px / 1.2 &amp;#34;helvetica&amp;#34; ; text-align: center ; color: rgb(0 , 0 , 0) ; text-transform: none ; text-indent: 0px ; letter-spacing: normal ; text-decoration: none ; word-spacing: 0px ; display: inline ; float: none ; overflow-wrap: normal ; background-color: rgb(248 , 249 , 250)&quot;&gt;RealEstate System (NAS)&lt;/span&gt;" style="rounded=0;whiteSpace=wrap;html=1;" parent="1" vertex="1">
          <mxGeometry x="940" y="425" width="120" height="30" as="geometry" />
        </mxCell>
        <mxCell id="NfyWRdIrxdjjcfdtqH4J-30" value="&lt;span style=&quot;font: 12px / 1.2 &amp;#34;helvetica&amp;#34; ; text-align: center ; color: rgb(0 , 0 , 0) ; text-transform: none ; text-indent: 0px ; letter-spacing: normal ; text-decoration: none ; word-spacing: 0px ; display: inline ; float: none ; overflow-wrap: normal ; background-color: rgb(248 , 249 , 250)&quot;&gt;HomeClosing System (HCS)&lt;/span&gt;" style="rounded=0;whiteSpace=wrap;html=1;" parent="1" vertex="1">
          <mxGeometry x="940" y="460" width="120" height="30" as="geometry" />
        </mxCell>
        <mxCell id="HagU0EfNBF4asc3zr9B8-13" style="edgeStyle=none;rounded=1;orthogonalLoop=1;jettySize=auto;html=1;exitX=0.5;exitY=1;exitDx=0;exitDy=0;entryX=0.438;entryY=0;entryDx=0;entryDy=0;entryPerimeter=0;strokeColor=#FF99FF;" parent="1" source="NfyWRdIrxdjjcfdtqH4J-31" target="NfyWRdIrxdjjcfdtqH4J-136" edge="1">
          <mxGeometry relative="1" as="geometry">
            <Array as="points">
              <mxPoint x="1000" y="670" />
              <mxPoint x="1225" y="670" />
            </Array>
          </mxGeometry>
        </mxCell>
        <mxCell id="NfyWRdIrxdjjcfdtqH4J-31" value="Exernal System" style="rounded=0;whiteSpace=wrap;html=1;" parent="1" vertex="1">
          <mxGeometry x="940" y="496" width="120" height="30" as="geometry" />
        </mxCell>
        <mxCell id="NfyWRdIrxdjjcfdtqH4J-32" value="" style="curved=1;endArrow=classic;html=1;" parent="1" source="NfyWRdIrxdjjcfdtqH4J-25" target="NfyWRdIrxdjjcfdtqH4J-26" edge="1">
          <mxGeometry width="50" height="50" relative="1" as="geometry">
            <mxPoint x="710" y="510" as="sourcePoint" />
            <mxPoint x="760" y="460" as="targetPoint" />
            <Array as="points">
              <mxPoint x="750" y="448" />
            </Array>
          </mxGeometry>
        </mxCell>
        <mxCell id="NfyWRdIrxdjjcfdtqH4J-33" value="" style="curved=1;endArrow=classic;html=1;entryX=0;entryY=0.5;entryDx=0;entryDy=0;exitX=0.25;exitY=1;exitDx=0;exitDy=0;" parent="1" source="NfyWRdIrxdjjcfdtqH4J-25" target="NfyWRdIrxdjjcfdtqH4J-27" edge="1">
          <mxGeometry width="50" height="50" relative="1" as="geometry">
            <mxPoint x="796.6666666666667" y="430" as="sourcePoint" />
            <mxPoint x="820" y="454" as="targetPoint" />
            <Array as="points">
              <mxPoint x="660" y="450" />
            </Array>
          </mxGeometry>
        </mxCell>
        <mxCell id="NfyWRdIrxdjjcfdtqH4J-34" value="" style="curved=1;endArrow=classic;html=1;entryX=0;entryY=0.5;entryDx=0;entryDy=0;exitX=0.133;exitY=1;exitDx=0;exitDy=0;exitPerimeter=0;" parent="1" source="NfyWRdIrxdjjcfdtqH4J-25" target="NfyWRdIrxdjjcfdtqH4J-28" edge="1">
          <mxGeometry width="50" height="50" relative="1" as="geometry">
            <mxPoint x="790" y="420" as="sourcePoint" />
            <mxPoint x="830" y="464" as="targetPoint" />
            <Array as="points">
              <mxPoint x="630" y="430" />
              <mxPoint x="770" y="511" />
            </Array>
          </mxGeometry>
        </mxCell>
        <mxCell id="NfyWRdIrxdjjcfdtqH4J-35" value="&lt;p style=&quot;line-height: 110%&quot;&gt;&lt;/p&gt;&lt;div&gt;&lt;font color=&quot;#00cc00&quot;&gt;&lt;span style=&quot;text-align: center ; color: rgb(0 , 0 , 0) ; text-transform: none ; text-indent: 0px ; letter-spacing: normal ; font-family: &amp;#34;helvetica&amp;#34; ; font-size: 12px ; font-style: normal ; font-variant: normal ; font-weight: 400 ; text-decoration: none ; word-spacing: 0px ; display: inline ; float: none ; background-color: rgb(248 , 249 , 250)&quot;&gt;CLOUD HUB - &lt;/span&gt;CAN-PROD&lt;/font&gt;&lt;/div&gt;&lt;p&gt;&lt;/p&gt;" style="rounded=0;whiteSpace=wrap;html=1;align=center;verticalAlign=bottom;gradientColor=#ffffff;fillColor=#FFD966;" parent="1" vertex="1">
          <mxGeometry x="660" y="725" width="430" height="190" as="geometry" />
        </mxCell>
        <mxCell id="NfyWRdIrxdjjcfdtqH4J-36" value="Experience API - http://relnks-exp-events-&lt;font color=&quot;#00cc00&quot;&gt;prod&lt;/font&gt;.ca-c1.cloudhub.io/" style="rounded=0;whiteSpace=wrap;html=1;" parent="1" vertex="1">
          <mxGeometry x="670" y="735" width="330" height="30" as="geometry" />
        </mxCell>
        <mxCell id="NfyWRdIrxdjjcfdtqH4J-37" value="RealEstate Process (NAS)" style="rounded=0;whiteSpace=wrap;html=1;" parent="1" vertex="1">
          <mxGeometry x="820" y="770" width="120" height="30" as="geometry" />
        </mxCell>
        <mxCell id="NfyWRdIrxdjjcfdtqH4J-38" value="HomeClosing Process (HCS)" style="rounded=0;whiteSpace=wrap;html=1;" parent="1" vertex="1">
          <mxGeometry x="820" y="805" width="120" height="30" as="geometry" />
        </mxCell>
        <mxCell id="NfyWRdIrxdjjcfdtqH4J-39" value="External Process" style="rounded=0;whiteSpace=wrap;html=1;" parent="1" vertex="1">
          <mxGeometry x="820" y="841" width="120" height="30" as="geometry" />
        </mxCell>
        <mxCell id="NfyWRdIrxdjjcfdtqH4J-40" value="&lt;span style=&quot;font: 12px / 1.2 &amp;#34;helvetica&amp;#34; ; text-align: center ; color: rgb(0 , 0 , 0) ; text-transform: none ; text-indent: 0px ; letter-spacing: normal ; text-decoration: none ; word-spacing: 0px ; display: inline ; float: none ; overflow-wrap: normal ; background-color: rgb(248 , 249 , 250)&quot;&gt;RealEstate System (NAS)&lt;/span&gt;" style="rounded=0;whiteSpace=wrap;html=1;" parent="1" vertex="1">
          <mxGeometry x="950" y="770" width="120" height="30" as="geometry" />
        </mxCell>
        <mxCell id="NfyWRdIrxdjjcfdtqH4J-41" value="&lt;span style=&quot;font: 12px / 1.2 &amp;#34;helvetica&amp;#34; ; text-align: center ; color: rgb(0 , 0 , 0) ; text-transform: none ; text-indent: 0px ; letter-spacing: normal ; text-decoration: none ; word-spacing: 0px ; display: inline ; float: none ; overflow-wrap: normal ; background-color: rgb(248 , 249 , 250)&quot;&gt;HomeClosing System (HCS)&lt;/span&gt;" style="rounded=0;whiteSpace=wrap;html=1;" parent="1" vertex="1">
          <mxGeometry x="950" y="805" width="120" height="30" as="geometry" />
        </mxCell>
        <mxCell id="HagU0EfNBF4asc3zr9B8-14" style="edgeStyle=none;rounded=1;orthogonalLoop=1;jettySize=auto;html=1;exitX=0.5;exitY=1;exitDx=0;exitDy=0;strokeColor=#FF99FF;" parent="1" source="NfyWRdIrxdjjcfdtqH4J-42" edge="1">
          <mxGeometry relative="1" as="geometry">
            <mxPoint x="1230" y="1090" as="targetPoint" />
            <Array as="points">
              <mxPoint x="1010" y="1090" />
            </Array>
          </mxGeometry>
        </mxCell>
        <mxCell id="NfyWRdIrxdjjcfdtqH4J-42" value="Exernal System" style="rounded=0;whiteSpace=wrap;html=1;" parent="1" vertex="1">
          <mxGeometry x="950" y="841" width="120" height="30" as="geometry" />
        </mxCell>
        <mxCell id="NfyWRdIrxdjjcfdtqH4J-43" value="" style="curved=1;endArrow=classic;html=1;" parent="1" source="NfyWRdIrxdjjcfdtqH4J-36" target="NfyWRdIrxdjjcfdtqH4J-37" edge="1">
          <mxGeometry width="50" height="50" relative="1" as="geometry">
            <mxPoint x="720" y="855" as="sourcePoint" />
            <mxPoint x="770" y="805" as="targetPoint" />
            <Array as="points">
              <mxPoint x="760" y="793" />
            </Array>
          </mxGeometry>
        </mxCell>
        <mxCell id="NfyWRdIrxdjjcfdtqH4J-44" value="" style="curved=1;endArrow=classic;html=1;entryX=0;entryY=0.5;entryDx=0;entryDy=0;exitX=0.25;exitY=1;exitDx=0;exitDy=0;" parent="1" source="NfyWRdIrxdjjcfdtqH4J-36" target="NfyWRdIrxdjjcfdtqH4J-38" edge="1">
          <mxGeometry width="50" height="50" relative="1" as="geometry">
            <mxPoint x="806.6666666666667" y="775" as="sourcePoint" />
            <mxPoint x="830" y="799" as="targetPoint" />
            <Array as="points">
              <mxPoint x="670" y="795" />
            </Array>
          </mxGeometry>
        </mxCell>
        <mxCell id="NfyWRdIrxdjjcfdtqH4J-45" value="" style="curved=1;endArrow=classic;html=1;entryX=0;entryY=0.5;entryDx=0;entryDy=0;exitX=0.133;exitY=1;exitDx=0;exitDy=0;exitPerimeter=0;" parent="1" source="NfyWRdIrxdjjcfdtqH4J-36" target="NfyWRdIrxdjjcfdtqH4J-39" edge="1">
          <mxGeometry width="50" height="50" relative="1" as="geometry">
            <mxPoint x="800" y="765" as="sourcePoint" />
            <mxPoint x="840" y="809" as="targetPoint" />
            <Array as="points">
              <mxPoint x="640" y="775" />
              <mxPoint x="780" y="856" />
            </Array>
          </mxGeometry>
        </mxCell>
        <mxCell id="HagU0EfNBF4asc3zr9B8-11" style="edgeStyle=none;rounded=1;orthogonalLoop=1;jettySize=auto;html=1;entryX=0.458;entryY=-0.046;entryDx=0;entryDy=0;entryPerimeter=0;strokeColor=#FF99FF;exitX=0.75;exitY=1;exitDx=0;exitDy=0;" parent="1" source="NfyWRdIrxdjjcfdtqH4J-53" target="NfyWRdIrxdjjcfdtqH4J-136" edge="1">
          <mxGeometry relative="1" as="geometry">
            <mxPoint x="1040" y="-30" as="sourcePoint" />
            <Array as="points">
              <mxPoint x="1040" y="20" />
              <mxPoint x="1150" y="20" />
              <mxPoint x="1220" y="20" />
            </Array>
          </mxGeometry>
        </mxCell>
        <mxCell id="NfyWRdIrxdjjcfdtqH4J-47" value="Experience API - http://relnks-exp-events-&lt;font color=&quot;#ff0000&quot;&gt;demo&lt;/font&gt;.ca-c1.cloudhub.io/" style="rounded=0;whiteSpace=wrap;html=1;" parent="1" vertex="1">
          <mxGeometry x="670" y="-260" width="330" height="30" as="geometry" />
        </mxCell>
        <mxCell id="NfyWRdIrxdjjcfdtqH4J-48" value="RealEstate Process (NAS)" style="rounded=0;whiteSpace=wrap;html=1;" parent="1" vertex="1">
          <mxGeometry x="820" y="-225" width="120" height="30" as="geometry" />
        </mxCell>
        <mxCell id="NfyWRdIrxdjjcfdtqH4J-49" value="HomeClosing Process (HCS)" style="rounded=0;whiteSpace=wrap;html=1;" parent="1" vertex="1">
          <mxGeometry x="820" y="-190" width="120" height="30" as="geometry" />
        </mxCell>
        <mxCell id="NfyWRdIrxdjjcfdtqH4J-50" value="External Process" style="rounded=0;whiteSpace=wrap;html=1;" parent="1" vertex="1">
          <mxGeometry x="820" y="-154" width="120" height="30" as="geometry" />
        </mxCell>
        <mxCell id="vc6HpMR8ZU8bShavQTH8-2" style="edgeStyle=orthogonalEdgeStyle;rounded=0;orthogonalLoop=1;jettySize=auto;html=1;entryX=0;entryY=0.5;entryDx=0;entryDy=0;" parent="1" source="NfyWRdIrxdjjcfdtqH4J-51" target="vc6HpMR8ZU8bShavQTH8-1" edge="1">
          <mxGeometry relative="1" as="geometry">
            <Array as="points">
              <mxPoint x="1010" y="-260" />
              <mxPoint x="1249" y="-260" />
              <mxPoint x="1249" y="-315" />
            </Array>
          </mxGeometry>
        </mxCell>
        <mxCell id="NfyWRdIrxdjjcfdtqH4J-51" value="&lt;span style=&quot;font: 12px / 1.2 &amp;#34;helvetica&amp;#34; ; text-align: center ; color: rgb(0 , 0 , 0) ; text-transform: none ; text-indent: 0px ; letter-spacing: normal ; text-decoration: none ; word-spacing: 0px ; display: inline ; float: none ; overflow-wrap: normal ; background-color: rgb(248 , 249 , 250)&quot;&gt;RealEstate System (NAS)&lt;/span&gt;" style="rounded=0;whiteSpace=wrap;html=1;" parent="1" vertex="1">
          <mxGeometry x="950" y="-225" width="120" height="30" as="geometry" />
        </mxCell>
        <mxCell id="NfyWRdIrxdjjcfdtqH4J-52" value="&lt;span style=&quot;font: 12px / 1.2 &amp;#34;helvetica&amp;#34; ; text-align: center ; color: rgb(0 , 0 , 0) ; text-transform: none ; text-indent: 0px ; letter-spacing: normal ; text-decoration: none ; word-spacing: 0px ; display: inline ; float: none ; overflow-wrap: normal ; background-color: rgb(248 , 249 , 250)&quot;&gt;HomeClosing System (HCS)&lt;/span&gt;" style="rounded=0;whiteSpace=wrap;html=1;" parent="1" vertex="1">
          <mxGeometry x="950" y="-190" width="120" height="30" as="geometry" />
        </mxCell>
        <mxCell id="NfyWRdIrxdjjcfdtqH4J-53" value="Exernal System" style="rounded=0;whiteSpace=wrap;html=1;" parent="1" vertex="1">
          <mxGeometry x="950" y="-154" width="120" height="30" as="geometry" />
        </mxCell>
        <mxCell id="NfyWRdIrxdjjcfdtqH4J-54" value="" style="curved=1;endArrow=classic;html=1;" parent="1" source="NfyWRdIrxdjjcfdtqH4J-47" target="NfyWRdIrxdjjcfdtqH4J-48" edge="1">
          <mxGeometry width="50" height="50" relative="1" as="geometry">
            <mxPoint x="720" y="-140" as="sourcePoint" />
            <mxPoint x="770" y="-190" as="targetPoint" />
            <Array as="points">
              <mxPoint x="760" y="-202" />
            </Array>
          </mxGeometry>
        </mxCell>
        <mxCell id="NfyWRdIrxdjjcfdtqH4J-55" value="" style="curved=1;endArrow=classic;html=1;entryX=0;entryY=0.5;entryDx=0;entryDy=0;exitX=0.25;exitY=1;exitDx=0;exitDy=0;" parent="1" source="NfyWRdIrxdjjcfdtqH4J-47" target="NfyWRdIrxdjjcfdtqH4J-49" edge="1">
          <mxGeometry width="50" height="50" relative="1" as="geometry">
            <mxPoint x="806.6666666666667" y="-220" as="sourcePoint" />
            <mxPoint x="830" y="-196" as="targetPoint" />
            <Array as="points">
              <mxPoint x="670" y="-200" />
            </Array>
          </mxGeometry>
        </mxCell>
        <mxCell id="NfyWRdIrxdjjcfdtqH4J-56" value="" style="curved=1;endArrow=classic;html=1;entryX=0;entryY=0.5;entryDx=0;entryDy=0;exitX=0.133;exitY=1;exitDx=0;exitDy=0;exitPerimeter=0;" parent="1" source="NfyWRdIrxdjjcfdtqH4J-47" target="NfyWRdIrxdjjcfdtqH4J-50" edge="1">
          <mxGeometry width="50" height="50" relative="1" as="geometry">
            <mxPoint x="800" y="-230" as="sourcePoint" />
            <mxPoint x="840" y="-186" as="targetPoint" />
            <Array as="points">
              <mxPoint x="640" y="-220" />
              <mxPoint x="780" y="-139" />
            </Array>
          </mxGeometry>
        </mxCell>
        <mxCell id="NfyWRdIrxdjjcfdtqH4J-65" value="https://qa.relnks.com" style="endArrow=classic;html=1;entryX=0.16;entryY=0.55;entryDx=0;entryDy=0;entryPerimeter=0;fillColor=#0050ef;strokeColor=#001DBC;exitX=0.5;exitY=0.5;exitDx=0;exitDy=0;exitPerimeter=0;" parent="1" source="NfyWRdIrxdjjcfdtqH4J-2" target="NfyWRdIrxdjjcfdtqH4J-3" edge="1">
          <mxGeometry x="0.1675" y="-12" width="50" height="50" relative="1" as="geometry">
            <mxPoint x="-543" y="245" as="sourcePoint" />
            <mxPoint x="-353" y="238.5" as="targetPoint" />
            <Array as="points">
              <mxPoint x="-483" y="270" />
              <mxPoint x="-383" y="270" />
            </Array>
            <mxPoint as="offset" />
          </mxGeometry>
        </mxCell>
        <mxCell id="NfyWRdIrxdjjcfdtqH4J-66" value="https://uat.relnks.com" style="endArrow=classic;html=1;exitX=1;exitY=1;exitDx=0;exitDy=0;exitPerimeter=0;strokeColor=#999900;entryX=0.31;entryY=0.8;entryDx=0;entryDy=0;entryPerimeter=0;" parent="1" source="NfyWRdIrxdjjcfdtqH4J-2" target="NfyWRdIrxdjjcfdtqH4J-3" edge="1">
          <mxGeometry x="-0.1196" y="32" width="50" height="50" relative="1" as="geometry">
            <mxPoint x="-493" y="389" as="sourcePoint" />
            <mxPoint x="-283" y="285" as="targetPoint" />
            <Array as="points">
              <mxPoint x="-493" y="305" />
              <mxPoint x="-393" y="305" />
              <mxPoint x="-340" y="305" />
            </Array>
            <mxPoint x="32" y="42" as="offset" />
          </mxGeometry>
        </mxCell>
        <mxCell id="NfyWRdIrxdjjcfdtqH4J-67" value="https://portal.relnks.com" style="endArrow=classic;html=1;entryX=0.5;entryY=1;entryDx=0;entryDy=0;entryPerimeter=0;strokeColor=#00CC00;exitX=1;exitY=1;exitDx=0;exitDy=0;exitPerimeter=0;" parent="1" source="NfyWRdIrxdjjcfdtqH4J-2" target="NfyWRdIrxdjjcfdtqH4J-3" edge="1">
          <mxGeometry x="0.0828" y="-10" width="50" height="50" relative="1" as="geometry">
            <mxPoint x="-563" y="275" as="sourcePoint" />
            <mxPoint x="-372.0879352585039" y="455.8739465440135" as="targetPoint" />
            <Array as="points">
              <mxPoint x="-503" y="335" />
              <mxPoint x="-320" y="335" />
            </Array>
            <mxPoint as="offset" />
          </mxGeometry>
        </mxCell>
        <mxCell id="NfyWRdIrxdjjcfdtqH4J-73" value="https://qa.tnghub.nationwideappraisals.com" style="endArrow=classic;html=1;fillColor=#0050ef;strokeColor=#001DBC;entryX=-0.019;entryY=0.353;entryDx=0;entryDy=0;entryPerimeter=0;" parent="1" source="NfyWRdIrxdjjcfdtqH4J-76" target="NfyWRdIrxdjjcfdtqH4J-1" edge="1">
          <mxGeometry x="0.4352" y="-19" width="50" height="50" relative="1" as="geometry">
            <mxPoint x="-139.16252741563653" y="270.3578660516787" as="sourcePoint" />
            <mxPoint x="240" y="246" as="targetPoint" />
            <mxPoint as="offset" />
          </mxGeometry>
        </mxCell>
        <mxCell id="NfyWRdIrxdjjcfdtqH4J-74" value="https://uat.tnghub.nationwideappraisals.com" style="endArrow=classic;html=1;fillColor=#e51400;strokeColor=#999900;entryX=-0.019;entryY=0.538;entryDx=0;entryDy=0;entryPerimeter=0;exitX=0.55;exitY=0.95;exitDx=0;exitDy=0;exitPerimeter=0;" parent="1" source="NfyWRdIrxdjjcfdtqH4J-76" target="NfyWRdIrxdjjcfdtqH4J-1" edge="1">
          <mxGeometry x="0.4263" y="-30" width="50" height="50" relative="1" as="geometry">
            <mxPoint x="-129" y="280" as="sourcePoint" />
            <mxPoint x="250" y="310" as="targetPoint" />
            <mxPoint as="offset" />
          </mxGeometry>
        </mxCell>
        <mxCell id="NfyWRdIrxdjjcfdtqH4J-75" value="https://tnghub.nationwideappraisals.com" style="endArrow=classic;html=1;fillColor=#e51400;strokeColor=#00CC00;entryX=0;entryY=0.75;entryDx=0;entryDy=0;exitX=0.55;exitY=0.95;exitDx=0;exitDy=0;exitPerimeter=0;" parent="1" source="NfyWRdIrxdjjcfdtqH4J-76" target="NfyWRdIrxdjjcfdtqH4J-1" edge="1">
          <mxGeometry x="0.5563" y="-25" width="50" height="50" relative="1" as="geometry">
            <mxPoint x="-150.00252741563654" y="304.99786605167867" as="sourcePoint" />
            <mxPoint x="239" y="420" as="targetPoint" />
            <mxPoint as="offset" />
            <Array as="points">
              <mxPoint x="-80" y="320" />
            </Array>
          </mxGeometry>
        </mxCell>
        <mxCell id="NfyWRdIrxdjjcfdtqH4J-76" value="" style="ellipse;shape=cloud;whiteSpace=wrap;html=1;" parent="1" vertex="1">
          <mxGeometry x="-210" y="160" width="120" height="70" as="geometry" />
        </mxCell>
        <mxCell id="NfyWRdIrxdjjcfdtqH4J-79" value="" style="endArrow=classic;html=1;strokeColor=#00CC00;fontColor=#000000;entryX=0;entryY=0.75;entryDx=0;entryDy=0;" parent="1" target="NfyWRdIrxdjjcfdtqH4J-36" edge="1">
          <mxGeometry width="50" height="50" relative="1" as="geometry">
            <mxPoint x="425" y="400" as="sourcePoint" />
            <mxPoint x="475" y="350" as="targetPoint" />
            <Array as="points">
              <mxPoint x="560" y="510" />
            </Array>
          </mxGeometry>
        </mxCell>
        <mxCell id="NfyWRdIrxdjjcfdtqH4J-80" value="" style="endArrow=classic;html=1;fontColor=#000000;exitX=0.733;exitY=0.143;exitDx=0;exitDy=0;exitPerimeter=0;" parent="1" source="NfyWRdIrxdjjcfdtqH4J-3" target="NfyWRdIrxdjjcfdtqH4J-112" edge="1">
          <mxGeometry width="50" height="50" relative="1" as="geometry">
            <mxPoint x="-160" y="280" as="sourcePoint" />
            <mxPoint x="-110" y="230" as="targetPoint" />
          </mxGeometry>
        </mxCell>
        <mxCell id="NfyWRdIrxdjjcfdtqH4J-81" value="" style="endArrow=classic;html=1;fillColor=#e51400;strokeColor=#999900;entryX=0;entryY=0.5;entryDx=0;entryDy=0;exitX=0.55;exitY=0.95;exitDx=0;exitDy=0;exitPerimeter=0;" parent="1" target="NfyWRdIrxdjjcfdtqH4J-25" edge="1">
          <mxGeometry x="0.4263" y="-30" width="50" height="50" relative="1" as="geometry">
            <mxPoint x="424.03999999999996" y="319.34000000000003" as="sourcePoint" />
            <mxPoint x="830" y="394.9999999999999" as="targetPoint" />
            <mxPoint as="offset" />
          </mxGeometry>
        </mxCell>
        <mxCell id="NfyWRdIrxdjjcfdtqH4J-82" value="" style="endArrow=classic;html=1;fillColor=#0050ef;strokeColor=#001DBC;entryX=0;entryY=0.5;entryDx=0;entryDy=0;" parent="1" target="NfyWRdIrxdjjcfdtqH4J-10" edge="1">
          <mxGeometry x="0.4352" y="-19" width="50" height="50" relative="1" as="geometry">
            <mxPoint x="424.9992795557788" y="248.7731536231668" as="sourcePoint" />
            <mxPoint x="778.08" y="290.00000000000006" as="targetPoint" />
            <mxPoint as="offset" />
          </mxGeometry>
        </mxCell>
        <mxCell id="NfyWRdIrxdjjcfdtqH4J-83" value="" style="endArrow=classic;html=1;fillColor=#e51400;strokeColor=#B20000;entryX=0;entryY=0.25;entryDx=0;entryDy=0;exitX=0.95;exitY=0.514;exitDx=0;exitDy=0;exitPerimeter=0;" parent="1" target="NfyWRdIrxdjjcfdtqH4J-47" edge="1">
          <mxGeometry x="0.3967" y="-8" width="50" height="50" relative="1" as="geometry">
            <mxPoint x="425" y="175.00000000000003" as="sourcePoint" />
            <mxPoint x="790.96" y="169.8200000000002" as="targetPoint" />
            <mxPoint as="offset" />
          </mxGeometry>
        </mxCell>
        <mxCell id="NfyWRdIrxdjjcfdtqH4J-134" style="edgeStyle=orthogonalEdgeStyle;rounded=0;orthogonalLoop=1;jettySize=auto;html=1;strokeColor=#000000;fontColor=#000000;" parent="1" source="NfyWRdIrxdjjcfdtqH4J-84" target="NfyWRdIrxdjjcfdtqH4J-119" edge="1">
          <mxGeometry relative="1" as="geometry">
            <Array as="points">
              <mxPoint x="1745" y="93" />
              <mxPoint x="1745" y="110" />
            </Array>
          </mxGeometry>
        </mxCell>
        <mxCell id="NfyWRdIrxdjjcfdtqH4J-84" value="&lt;p style=&quot;line-height: 110%&quot;&gt;NAS - QA&lt;/p&gt;" style="rounded=0;whiteSpace=wrap;html=1;align=center;verticalAlign=bottom;fillColor=#007FFF;gradientColor=#ffffff;" parent="1" vertex="1">
          <mxGeometry x="1410" y="55" width="240" height="75" as="geometry" />
        </mxCell>
        <mxCell id="NfyWRdIrxdjjcfdtqH4J-129" style="edgeStyle=orthogonalEdgeStyle;rounded=0;orthogonalLoop=1;jettySize=auto;html=1;entryX=0;entryY=0.563;entryDx=0;entryDy=0;entryPerimeter=0;strokeColor=#000000;fontColor=#000000;" parent="1" source="NfyWRdIrxdjjcfdtqH4J-85" target="NfyWRdIrxdjjcfdtqH4J-116" edge="1">
          <mxGeometry relative="1" as="geometry" />
        </mxCell>
        <mxCell id="HagU0EfNBF4asc3zr9B8-4" style="edgeStyle=orthogonalEdgeStyle;rounded=0;orthogonalLoop=1;jettySize=auto;html=1;exitX=0.75;exitY=1;exitDx=0;exitDy=0;entryX=0.5;entryY=0;entryDx=0;entryDy=0;entryPerimeter=0;" parent="1" source="NfyWRdIrxdjjcfdtqH4J-85" target="NfyWRdIrxdjjcfdtqH4J-161" edge="1">
          <mxGeometry relative="1" as="geometry" />
        </mxCell>
        <mxCell id="NfyWRdIrxdjjcfdtqH4J-85" value="&lt;p style=&quot;line-height: 110%&quot;&gt;HCS - QA&lt;/p&gt;" style="rounded=0;whiteSpace=wrap;html=1;align=center;verticalAlign=bottom;gradientColor=#ffffff;fillColor=#99FF33;" parent="1" vertex="1">
          <mxGeometry x="1410" y="145" width="240" height="70" as="geometry" />
        </mxCell>
        <mxCell id="NfyWRdIrxdjjcfdtqH4J-86" value="https://qa.relnks.com/NAS/Webapi/" style="text;html=1;strokeColor=none;fillColor=none;align=center;verticalAlign=middle;whiteSpace=wrap;rounded=0;fontColor=#000000;" parent="1" vertex="1">
          <mxGeometry x="1505" y="75" width="40" height="20" as="geometry" />
        </mxCell>
        <mxCell id="NfyWRdIrxdjjcfdtqH4J-89" value="https://qa-api.nwhcs.ca" style="text;html=1;strokeColor=none;fillColor=none;align=center;verticalAlign=middle;whiteSpace=wrap;rounded=0;fontColor=#000000;" parent="1" vertex="1">
          <mxGeometry x="1430" y="160" width="140" height="20" as="geometry" />
        </mxCell>
        <mxCell id="NfyWRdIrxdjjcfdtqH4J-133" style="edgeStyle=orthogonalEdgeStyle;rounded=0;orthogonalLoop=1;jettySize=auto;html=1;strokeColor=#000000;fontColor=#000000;" parent="1" source="NfyWRdIrxdjjcfdtqH4J-90" target="NfyWRdIrxdjjcfdtqH4J-119" edge="1">
          <mxGeometry relative="1" as="geometry" />
        </mxCell>
        <mxCell id="NfyWRdIrxdjjcfdtqH4J-90" value="&lt;p style=&quot;line-height: 110%&quot;&gt;NAS - UAT&lt;/p&gt;" style="rounded=0;whiteSpace=wrap;html=1;align=center;verticalAlign=bottom;fillColor=#007FFF;gradientColor=#ffffff;" parent="1" vertex="1">
          <mxGeometry x="1402" y="385" width="240" height="75" as="geometry" />
        </mxCell>
        <mxCell id="NfyWRdIrxdjjcfdtqH4J-125" style="edgeStyle=orthogonalEdgeStyle;rounded=0;orthogonalLoop=1;jettySize=auto;html=1;entryX=0;entryY=0.438;entryDx=0;entryDy=0;entryPerimeter=0;strokeColor=#000000;fontColor=#000000;" parent="1" source="NfyWRdIrxdjjcfdtqH4J-91" target="NfyWRdIrxdjjcfdtqH4J-117" edge="1">
          <mxGeometry relative="1" as="geometry" />
        </mxCell>
        <mxCell id="HagU0EfNBF4asc3zr9B8-2" style="edgeStyle=orthogonalEdgeStyle;rounded=0;orthogonalLoop=1;jettySize=auto;html=1;exitX=0.75;exitY=1;exitDx=0;exitDy=0;entryX=0.5;entryY=0;entryDx=0;entryDy=0;entryPerimeter=0;" parent="1" source="NfyWRdIrxdjjcfdtqH4J-91" target="NfyWRdIrxdjjcfdtqH4J-158" edge="1">
          <mxGeometry relative="1" as="geometry" />
        </mxCell>
        <mxCell id="NfyWRdIrxdjjcfdtqH4J-91" value="&lt;p style=&quot;line-height: 110%&quot;&gt;HCS - UAT&lt;/p&gt;" style="rounded=0;whiteSpace=wrap;html=1;align=center;verticalAlign=bottom;gradientColor=#ffffff;fillColor=#99FF33;" parent="1" vertex="1">
          <mxGeometry x="1402" y="475" width="240" height="70" as="geometry" />
        </mxCell>
        <mxCell id="NfyWRdIrxdjjcfdtqH4J-92" value="https://uat.relnks.com/NAS/Webapi/" style="text;html=1;strokeColor=none;fillColor=none;align=center;verticalAlign=middle;whiteSpace=wrap;rounded=0;fontColor=#000000;" parent="1" vertex="1">
          <mxGeometry x="1497" y="405" width="40" height="20" as="geometry" />
        </mxCell>
        <mxCell id="NfyWRdIrxdjjcfdtqH4J-93" value="https://uat-api.nwhcs.ca" style="text;html=1;strokeColor=none;fillColor=none;align=center;verticalAlign=middle;whiteSpace=wrap;rounded=0;fontColor=#000000;" parent="1" vertex="1">
          <mxGeometry x="1422" y="490" width="140" height="20" as="geometry" />
        </mxCell>
        <mxCell id="NfyWRdIrxdjjcfdtqH4J-135" style="edgeStyle=orthogonalEdgeStyle;rounded=0;orthogonalLoop=1;jettySize=auto;html=1;entryX=0.461;entryY=-0.018;entryDx=0;entryDy=0;entryPerimeter=0;strokeColor=#000000;fontColor=#000000;" parent="1" source="NfyWRdIrxdjjcfdtqH4J-94" target="NfyWRdIrxdjjcfdtqH4J-119" edge="1">
          <mxGeometry relative="1" as="geometry">
            <mxPoint x="2006.079999999999" y="-28.800000000000182" as="targetPoint" />
            <Array as="points">
              <mxPoint x="1997" y="-232" />
            </Array>
          </mxGeometry>
        </mxCell>
        <mxCell id="NfyWRdIrxdjjcfdtqH4J-94" value="&lt;p style=&quot;line-height: 110%&quot;&gt;NAS - DEMO&lt;/p&gt;" style="rounded=0;whiteSpace=wrap;html=1;align=center;verticalAlign=bottom;fillColor=#007FFF;gradientColor=#ffffff;" parent="1" vertex="1">
          <mxGeometry x="1410" y="-270" width="240" height="75" as="geometry" />
        </mxCell>
        <mxCell id="NfyWRdIrxdjjcfdtqH4J-122" style="edgeStyle=orthogonalEdgeStyle;rounded=0;orthogonalLoop=1;jettySize=auto;html=1;strokeColor=#000000;fontColor=#000000;" parent="1" source="NfyWRdIrxdjjcfdtqH4J-95" target="NfyWRdIrxdjjcfdtqH4J-115" edge="1">
          <mxGeometry relative="1" as="geometry" />
        </mxCell>
        <mxCell id="HagU0EfNBF4asc3zr9B8-9" style="edgeStyle=orthogonalEdgeStyle;rounded=0;orthogonalLoop=1;jettySize=auto;html=1;exitX=0.75;exitY=1;exitDx=0;exitDy=0;entryX=0.5;entryY=0;entryDx=0;entryDy=0;entryPerimeter=0;" parent="1" source="NfyWRdIrxdjjcfdtqH4J-95" target="NfyWRdIrxdjjcfdtqH4J-162" edge="1">
          <mxGeometry relative="1" as="geometry" />
        </mxCell>
        <mxCell id="NfyWRdIrxdjjcfdtqH4J-95" value="&lt;p style=&quot;line-height: 110%&quot;&gt;HCS - DEMO&lt;/p&gt;" style="rounded=0;whiteSpace=wrap;html=1;align=center;verticalAlign=bottom;gradientColor=#ffffff;fillColor=#99FF33;" parent="1" vertex="1">
          <mxGeometry x="1410" y="-180" width="240" height="70" as="geometry" />
        </mxCell>
        <mxCell id="NfyWRdIrxdjjcfdtqH4J-96" value="https://demo.relnks.com/NAS/Webapi/" style="text;html=1;strokeColor=none;fillColor=none;align=center;verticalAlign=middle;whiteSpace=wrap;rounded=0;fontColor=#000000;" parent="1" vertex="1">
          <mxGeometry x="1505" y="-250" width="40" height="20" as="geometry" />
        </mxCell>
        <mxCell id="NfyWRdIrxdjjcfdtqH4J-97" value="https://demo-api.nwhcs.ca" style="text;html=1;strokeColor=none;fillColor=none;align=center;verticalAlign=middle;whiteSpace=wrap;rounded=0;fontColor=#000000;" parent="1" vertex="1">
          <mxGeometry x="1430" y="-165" width="190" height="20" as="geometry" />
        </mxCell>
        <mxCell id="NfyWRdIrxdjjcfdtqH4J-132" style="edgeStyle=orthogonalEdgeStyle;rounded=0;orthogonalLoop=1;jettySize=auto;html=1;entryX=0;entryY=0.531;entryDx=0;entryDy=0;entryPerimeter=0;strokeColor=#000000;fontColor=#000000;" parent="1" source="NfyWRdIrxdjjcfdtqH4J-98" target="NfyWRdIrxdjjcfdtqH4J-120" edge="1">
          <mxGeometry relative="1" as="geometry" />
        </mxCell>
        <mxCell id="NfyWRdIrxdjjcfdtqH4J-98" value="&lt;p style=&quot;line-height: 110%&quot;&gt;NAS - PROD&lt;/p&gt;" style="rounded=0;whiteSpace=wrap;html=1;align=center;verticalAlign=bottom;fillColor=#007FFF;gradientColor=#ffffff;" parent="1" vertex="1">
          <mxGeometry x="1412" y="725" width="240" height="75" as="geometry" />
        </mxCell>
        <mxCell id="NfyWRdIrxdjjcfdtqH4J-130" style="edgeStyle=orthogonalEdgeStyle;rounded=0;orthogonalLoop=1;jettySize=auto;html=1;exitX=1;exitY=0.5;exitDx=0;exitDy=0;strokeColor=#000000;fontColor=#000000;" parent="1" source="NfyWRdIrxdjjcfdtqH4J-99" target="NfyWRdIrxdjjcfdtqH4J-118" edge="1">
          <mxGeometry relative="1" as="geometry" />
        </mxCell>
        <mxCell id="NfyWRdIrxdjjcfdtqH4J-99" value="&lt;p style=&quot;line-height: 110%&quot;&gt;HCS - PROD&lt;/p&gt;" style="rounded=0;whiteSpace=wrap;html=1;align=center;verticalAlign=bottom;gradientColor=#ffffff;fillColor=#99FF33;" parent="1" vertex="1">
          <mxGeometry x="1412" y="815" width="240" height="70" as="geometry" />
        </mxCell>
        <mxCell id="NfyWRdIrxdjjcfdtqH4J-100" value="https://portal.relnks.com/NAS/Webapi/" style="text;html=1;strokeColor=none;fillColor=none;align=center;verticalAlign=middle;whiteSpace=wrap;rounded=0;fontColor=#000000;" parent="1" vertex="1">
          <mxGeometry x="1507" y="745" width="40" height="20" as="geometry" />
        </mxCell>
        <mxCell id="NfyWRdIrxdjjcfdtqH4J-101" value="https://api.nwhcs.ca" style="text;html=1;strokeColor=none;fillColor=none;align=center;verticalAlign=middle;whiteSpace=wrap;rounded=0;fontColor=#000000;" parent="1" vertex="1">
          <mxGeometry x="1432" y="830" width="140" height="20" as="geometry" />
        </mxCell>
        <mxCell id="NfyWRdIrxdjjcfdtqH4J-102" value="" style="endArrow=classic;html=1;fillColor=#e51400;entryX=0;entryY=0.5;entryDx=0;entryDy=0;exitX=0.95;exitY=0.514;exitDx=0;exitDy=0;exitPerimeter=0;" parent="1" target="NfyWRdIrxdjjcfdtqH4J-94" edge="1">
          <mxGeometry x="0.3967" y="-8" width="50" height="50" relative="1" as="geometry">
            <mxPoint x="1070" y="-202.5" as="sourcePoint" />
            <mxPoint x="1305" y="-460" as="targetPoint" />
            <mxPoint as="offset" />
          </mxGeometry>
        </mxCell>
        <mxCell id="NfyWRdIrxdjjcfdtqH4J-103" value="" style="endArrow=classic;html=1;fillColor=#e51400;entryX=-0.005;entryY=0.404;entryDx=0;entryDy=0;exitX=0.95;exitY=0.514;exitDx=0;exitDy=0;exitPerimeter=0;entryPerimeter=0;" parent="1" target="NfyWRdIrxdjjcfdtqH4J-95" edge="1">
          <mxGeometry x="0.3967" y="-8" width="50" height="50" relative="1" as="geometry">
            <mxPoint x="1070" y="-175" as="sourcePoint" />
            <mxPoint x="1200" y="-195" as="targetPoint" />
            <mxPoint as="offset" />
          </mxGeometry>
        </mxCell>
        <mxCell id="NfyWRdIrxdjjcfdtqH4J-104" value="" style="endArrow=classic;html=1;fillColor=#e51400;entryX=0;entryY=0.5;entryDx=0;entryDy=0;exitX=0.95;exitY=0.514;exitDx=0;exitDy=0;exitPerimeter=0;" parent="1" target="NfyWRdIrxdjjcfdtqH4J-84" edge="1">
          <mxGeometry x="0.3967" y="-8" width="50" height="50" relative="1" as="geometry">
            <mxPoint x="1070" y="114.61000000000001" as="sourcePoint" />
            <mxPoint x="1200" y="94.61000000000001" as="targetPoint" />
            <mxPoint as="offset" />
          </mxGeometry>
        </mxCell>
        <mxCell id="NfyWRdIrxdjjcfdtqH4J-105" value="" style="endArrow=classic;html=1;fillColor=#e51400;entryX=0;entryY=0.5;entryDx=0;entryDy=0;exitX=0.95;exitY=0.514;exitDx=0;exitDy=0;exitPerimeter=0;" parent="1" target="NfyWRdIrxdjjcfdtqH4J-85" edge="1">
          <mxGeometry x="0.3967" y="-8" width="50" height="50" relative="1" as="geometry">
            <mxPoint x="1070" y="142.11" as="sourcePoint" />
            <mxPoint x="1198.8000000000002" y="175.38999999999976" as="targetPoint" />
            <mxPoint as="offset" />
          </mxGeometry>
        </mxCell>
        <mxCell id="NfyWRdIrxdjjcfdtqH4J-106" value="" style="endArrow=classic;html=1;fillColor=#e51400;exitX=0.95;exitY=0.514;exitDx=0;exitDy=0;exitPerimeter=0;" parent="1" edge="1">
          <mxGeometry x="0.3967" y="-8" width="50" height="50" relative="1" as="geometry">
            <mxPoint x="1060" y="445" as="sourcePoint" />
            <mxPoint x="1400" y="425" as="targetPoint" />
            <mxPoint as="offset" />
          </mxGeometry>
        </mxCell>
        <mxCell id="NfyWRdIrxdjjcfdtqH4J-107" value="" style="endArrow=classic;html=1;fillColor=#e51400;exitX=0.95;exitY=0.514;exitDx=0;exitDy=0;exitPerimeter=0;entryX=0;entryY=0.5;entryDx=0;entryDy=0;" parent="1" target="NfyWRdIrxdjjcfdtqH4J-91" edge="1">
          <mxGeometry x="0.3967" y="-8" width="50" height="50" relative="1" as="geometry">
            <mxPoint x="1060" y="472.5" as="sourcePoint" />
            <mxPoint x="1200" y="506" as="targetPoint" />
            <mxPoint as="offset" />
          </mxGeometry>
        </mxCell>
        <mxCell id="NfyWRdIrxdjjcfdtqH4J-108" value="" style="endArrow=classic;html=1;fillColor=#e51400;exitX=0.95;exitY=0.514;exitDx=0;exitDy=0;exitPerimeter=0;" parent="1" edge="1">
          <mxGeometry x="0.3967" y="-8" width="50" height="50" relative="1" as="geometry">
            <mxPoint x="1070" y="790" as="sourcePoint" />
            <mxPoint x="1410" y="763" as="targetPoint" />
            <mxPoint as="offset" />
          </mxGeometry>
        </mxCell>
        <mxCell id="NfyWRdIrxdjjcfdtqH4J-109" value="" style="endArrow=classic;html=1;fillColor=#e51400;entryX=0;entryY=0.5;entryDx=0;entryDy=0;exitX=0.95;exitY=0.514;exitDx=0;exitDy=0;exitPerimeter=0;" parent="1" target="NfyWRdIrxdjjcfdtqH4J-99" edge="1">
          <mxGeometry x="0.3967" y="-8" width="50" height="50" relative="1" as="geometry">
            <mxPoint x="1070" y="817.5" as="sourcePoint" />
            <mxPoint x="1198.8000000000002" y="850.7799999999997" as="targetPoint" />
            <mxPoint as="offset" />
          </mxGeometry>
        </mxCell>
        <mxCell id="NfyWRdIrxdjjcfdtqH4J-113" style="edgeStyle=orthogonalEdgeStyle;rounded=0;orthogonalLoop=1;jettySize=auto;html=1;strokeColor=#000000;fontColor=#000000;" parent="1" source="NfyWRdIrxdjjcfdtqH4J-112" target="NfyWRdIrxdjjcfdtqH4J-76" edge="1">
          <mxGeometry relative="1" as="geometry">
            <Array as="points">
              <mxPoint x="-150" y="120" />
            </Array>
          </mxGeometry>
        </mxCell>
        <mxCell id="NfyWRdIrxdjjcfdtqH4J-112" value="" style="image;html=1;image=img/lib/clip_art/computers/Server_Tower_128x128.png;fillColor=#CCE5FF;gradientColor=#ffffff;fontColor=#000000;align=center;" parent="1" vertex="1">
          <mxGeometry x="-280" y="80" width="80" height="80" as="geometry" />
        </mxCell>
        <mxCell id="NfyWRdIrxdjjcfdtqH4J-115" value="HCS - DEMO" style="shape=cylinder2;whiteSpace=wrap;html=1;boundedLbl=1;backgroundOutline=1;size=15;gradientColor=#ffffff;fontColor=#000000;align=center;fillColor=#99FF33;" parent="1" vertex="1">
          <mxGeometry x="1702" y="-185" width="80" height="80" as="geometry" />
        </mxCell>
        <mxCell id="NfyWRdIrxdjjcfdtqH4J-116" value="HCS QA" style="shape=cylinder2;whiteSpace=wrap;html=1;boundedLbl=1;backgroundOutline=1;size=15;gradientColor=#ffffff;fontColor=#000000;align=center;fillColor=#99FF33;" parent="1" vertex="1">
          <mxGeometry x="1700" y="135" width="80" height="80" as="geometry" />
        </mxCell>
        <mxCell id="NfyWRdIrxdjjcfdtqH4J-117" value="HCS UAT" style="shape=cylinder2;whiteSpace=wrap;html=1;boundedLbl=1;backgroundOutline=1;size=15;gradientColor=#ffffff;fontColor=#000000;align=center;fillColor=#99FF33;" parent="1" vertex="1">
          <mxGeometry x="1690" y="475" width="80" height="80" as="geometry" />
        </mxCell>
        <mxCell id="NfyWRdIrxdjjcfdtqH4J-118" value="HCS PROD" style="shape=cylinder2;whiteSpace=wrap;html=1;boundedLbl=1;backgroundOutline=1;size=15;gradientColor=#ffffff;fontColor=#000000;align=center;fillColor=#99FF33;" parent="1" vertex="1">
          <mxGeometry x="1700" y="810" width="80" height="80" as="geometry" />
        </mxCell>
        <mxCell id="NfyWRdIrxdjjcfdtqH4J-119" value="NAS UAT" style="shape=cylinder2;whiteSpace=wrap;html=1;boundedLbl=1;backgroundOutline=1;size=15;gradientColor=#ffffff;fontColor=#000000;align=center;fillColor=#007FFF;" parent="1" vertex="1">
          <mxGeometry x="1960" y="80" width="80" height="80" as="geometry" />
        </mxCell>
        <mxCell id="NfyWRdIrxdjjcfdtqH4J-120" value="NAS PROD" style="shape=cylinder2;whiteSpace=wrap;html=1;boundedLbl=1;backgroundOutline=1;size=15;gradientColor=#ffffff;fontColor=#000000;align=center;fillColor=#007FFF;" parent="1" vertex="1">
          <mxGeometry x="1700" y="720" width="80" height="80" as="geometry" />
        </mxCell>
        <mxCell id="NfyWRdIrxdjjcfdtqH4J-136" value="Mongo DB (CREA)" style="shape=cylinder2;whiteSpace=wrap;html=1;boundedLbl=1;backgroundOutline=1;size=15;fillColor=#CCE5FF;gradientColor=#ffffff;fontColor=#000000;align=center;" parent="1" vertex="1">
          <mxGeometry x="1190" y="1050" width="80" height="80" as="geometry" />
        </mxCell>
        <mxCell id="NfyWRdIrxdjjcfdtqH4J-137" value="HUB Database&lt;br&gt;DEMO (New)" style="shape=cylinder2;whiteSpace=wrap;html=1;boundedLbl=1;backgroundOutline=1;size=15;fillColor=#CCE5FF;gradientColor=#ffffff;fontColor=#000000;align=center;verticalAlign=bottom;horizontal=1;" parent="1" vertex="1">
          <mxGeometry x="1810" y="-185" width="100" height="80" as="geometry" />
        </mxCell>
        <mxCell id="NfyWRdIrxdjjcfdtqH4J-139" value="HUB Database&lt;br&gt;UAT (New)" style="shape=cylinder2;whiteSpace=wrap;html=1;boundedLbl=1;backgroundOutline=1;size=15;gradientColor=#ffffff;fontColor=#000000;align=center;verticalAlign=bottom;horizontal=1;fillColor=#FFD966;" parent="1" vertex="1">
          <mxGeometry x="1407" y="560" width="100" height="80" as="geometry" />
        </mxCell>
        <mxCell id="NfyWRdIrxdjjcfdtqH4J-140" value="HUB Database&lt;br&gt;QA (New)" style="shape=cylinder2;whiteSpace=wrap;html=1;boundedLbl=1;backgroundOutline=1;size=15;gradientColor=#ffffff;fontColor=#000000;align=center;verticalAlign=bottom;horizontal=1;fillColor=#FFD966;" parent="1" vertex="1">
          <mxGeometry x="1410" y="225" width="100" height="80" as="geometry" />
        </mxCell>
        <mxCell id="NfyWRdIrxdjjcfdtqH4J-142" style="rounded=1;orthogonalLoop=1;jettySize=auto;html=1;exitX=1;exitY=0.5;exitDx=0;exitDy=0;fontColor=#000000;strokeColor=#007FFF;" parent="1" edge="1">
          <mxGeometry relative="1" as="geometry">
            <mxPoint x="1070" y="179.99999999999955" as="sourcePoint" />
            <mxPoint x="1410" y="269" as="targetPoint" />
            <Array as="points">
              <mxPoint x="1170" y="250" />
            </Array>
          </mxGeometry>
        </mxCell>
        <mxCell id="NfyWRdIrxdjjcfdtqH4J-143" style="rounded=1;orthogonalLoop=1;jettySize=auto;html=1;fontColor=#000000;strokeColor=#007FFF;entryX=0.03;entryY=0.512;entryDx=0;entryDy=0;entryPerimeter=0;exitX=1;exitY=0.5;exitDx=0;exitDy=0;" parent="1" source="NfyWRdIrxdjjcfdtqH4J-31" target="NfyWRdIrxdjjcfdtqH4J-139" edge="1">
          <mxGeometry relative="1" as="geometry">
            <mxPoint x="677" y="600.9399999999996" as="sourcePoint" />
            <mxPoint x="1320" y="601" as="targetPoint" />
            <Array as="points">
              <mxPoint x="1170" y="590" />
            </Array>
          </mxGeometry>
        </mxCell>
        <mxCell id="NfyWRdIrxdjjcfdtqH4J-158" value="AWS Cognito (SSO) - tng-uat-ci  (New)" style="outlineConnect=0;dashed=0;verticalLabelPosition=middle;verticalAlign=middle;align=left;shape=mxgraph.aws3.cognito;fillColor=#AD688B;gradientColor=none;fontColor=#000000;labelPosition=right;" parent="1" vertex="1">
          <mxGeometry x="1547" y="570" width="70" height="73" as="geometry" />
        </mxCell>
        <mxCell id="NfyWRdIrxdjjcfdtqH4J-160" value="AWS Cognito (SSO) - tng-prod-ci " style="outlineConnect=0;dashed=0;verticalLabelPosition=middle;verticalAlign=middle;align=left;shape=mxgraph.aws3.cognito;fillColor=#AD688B;gradientColor=none;fontColor=#000000;labelPosition=right;" parent="1" vertex="1">
          <mxGeometry x="1562" y="907" width="70" height="73" as="geometry" />
        </mxCell>
        <mxCell id="NfyWRdIrxdjjcfdtqH4J-161" value="AWS Cognito (SSO) - tng-qa-ci " style="outlineConnect=0;dashed=0;verticalLabelPosition=middle;verticalAlign=middle;align=left;shape=mxgraph.aws3.cognito;fillColor=#AD688B;gradientColor=none;fontColor=#000000;labelPosition=right;" parent="1" vertex="1">
          <mxGeometry x="1550" y="232" width="70" height="73" as="geometry" />
        </mxCell>
        <mxCell id="NfyWRdIrxdjjcfdtqH4J-162" value="AWS Cognito (SSO) - tng-dev-ci (New) " style="outlineConnect=0;dashed=0;verticalLabelPosition=middle;verticalAlign=middle;align=left;shape=mxgraph.aws3.cognito;fillColor=#AD688B;gradientColor=none;fontColor=#000000;labelPosition=right;" parent="1" vertex="1">
          <mxGeometry x="1545" y="-98" width="70" height="73" as="geometry" />
        </mxCell>
        <mxCell id="NfyWRdIrxdjjcfdtqH4J-164" value="" style="endArrow=classic;html=1;fontColor=#000000;exitX=1;exitY=0.5;exitDx=0;exitDy=0;" parent="1" source="NfyWRdIrxdjjcfdtqH4J-53" target="NfyWRdIrxdjjcfdtqH4J-162" edge="1">
          <mxGeometry width="50" height="50" relative="1" as="geometry">
            <mxPoint x="1200" y="-230" as="sourcePoint" />
            <mxPoint x="1250" y="-280" as="targetPoint" />
            <Array as="points">
              <mxPoint x="1140" y="-20" />
              <mxPoint x="1520" y="-10" />
            </Array>
          </mxGeometry>
        </mxCell>
        <mxCell id="NfyWRdIrxdjjcfdtqH4J-166" value="" style="endArrow=classic;html=1;fontColor=#000000;exitX=0.867;exitY=1.196;exitDx=0;exitDy=0;entryX=0;entryY=0.79;entryDx=0;entryDy=0;entryPerimeter=0;exitPerimeter=0;" parent="1" source="NfyWRdIrxdjjcfdtqH4J-31" target="NfyWRdIrxdjjcfdtqH4J-158" edge="1">
          <mxGeometry width="50" height="50" relative="1" as="geometry">
            <mxPoint x="1060" y="510" as="sourcePoint" />
            <mxPoint x="1455" y="325.5795454545455" as="targetPoint" />
            <Array as="points">
              <mxPoint x="1130" y="640" />
              <mxPoint x="1290" y="650" />
              <mxPoint x="1520" y="660" />
            </Array>
          </mxGeometry>
        </mxCell>
        <mxCell id="NfyWRdIrxdjjcfdtqH4J-167" value="" style="endArrow=classic;html=1;fontColor=#000000;exitX=0.75;exitY=1;exitDx=0;exitDy=0;" parent="1" source="NfyWRdIrxdjjcfdtqH4J-42" target="NfyWRdIrxdjjcfdtqH4J-160" edge="1">
          <mxGeometry width="50" height="50" relative="1" as="geometry">
            <mxPoint x="1070" y="854.71" as="sourcePoint" />
            <mxPoint x="1465" y="670.2895454545455" as="targetPoint" />
            <Array as="points">
              <mxPoint x="1150" y="990" />
              <mxPoint x="1540" y="1010" />
            </Array>
          </mxGeometry>
        </mxCell>
        <mxCell id="NfyWRdIrxdjjcfdtqH4J-176" style="edgeStyle=orthogonalEdgeStyle;rounded=0;orthogonalLoop=1;jettySize=auto;html=1;strokeColor=#000000;fontColor=#000000;" parent="1" source="NfyWRdIrxdjjcfdtqH4J-90" edge="1">
          <mxGeometry relative="1" as="geometry">
            <mxPoint x="1670" y="405" as="sourcePoint" />
            <mxPoint x="1617" y="580" as="targetPoint" />
            <Array as="points">
              <mxPoint x="1670" y="405" />
              <mxPoint x="1670" y="570" />
              <mxPoint x="1617" y="570" />
            </Array>
          </mxGeometry>
        </mxCell>
        <mxCell id="NfyWRdIrxdjjcfdtqH4J-182" value="" style="endArrow=classic;html=1;strokeColor=#000000;fontColor=#000000;exitX=0.75;exitY=1;exitDx=0;exitDy=0;" parent="1" source="NfyWRdIrxdjjcfdtqH4J-99" target="NfyWRdIrxdjjcfdtqH4J-160" edge="1">
          <mxGeometry width="50" height="50" relative="1" as="geometry">
            <mxPoint x="1410" y="840" as="sourcePoint" />
            <mxPoint x="1460" y="677" as="targetPoint" />
            <Array as="points" />
          </mxGeometry>
        </mxCell>
        <mxCell id="NfyWRdIrxdjjcfdtqH4J-189" style="edgeStyle=orthogonalEdgeStyle;rounded=0;orthogonalLoop=1;jettySize=auto;html=1;strokeColor=#000000;fontColor=#000000;" parent="1" target="NfyWRdIrxdjjcfdtqH4J-161" edge="1">
          <mxGeometry relative="1" as="geometry">
            <mxPoint x="1650" y="75" as="sourcePoint" />
            <mxPoint x="1547" y="31.170000000000073" as="targetPoint" />
            <Array as="points">
              <mxPoint x="1670" y="75" />
              <mxPoint x="1670" y="250" />
            </Array>
          </mxGeometry>
        </mxCell>
        <mxCell id="NfyWRdIrxdjjcfdtqH4J-190" style="edgeStyle=orthogonalEdgeStyle;rounded=0;orthogonalLoop=1;jettySize=auto;html=1;strokeColor=#000000;fontColor=#000000;" parent="1" source="NfyWRdIrxdjjcfdtqH4J-94" target="NfyWRdIrxdjjcfdtqH4J-162" edge="1">
          <mxGeometry relative="1" as="geometry">
            <mxPoint x="1654" y="-259.99999999999955" as="sourcePoint" />
            <mxPoint x="1547" y="-303.8299999999999" as="targetPoint" />
            <Array as="points">
              <mxPoint x="1670" y="-260" />
              <mxPoint x="1670" y="-80" />
            </Array>
          </mxGeometry>
        </mxCell>
        <mxCell id="NfyWRdIrxdjjcfdtqH4J-191" style="edgeStyle=orthogonalEdgeStyle;rounded=0;orthogonalLoop=1;jettySize=auto;html=1;strokeColor=#000000;fontColor=#000000;entryX=1;entryY=0.21;entryDx=0;entryDy=0;entryPerimeter=0;" parent="1" target="NfyWRdIrxdjjcfdtqH4J-160" edge="1">
          <mxGeometry relative="1" as="geometry">
            <mxPoint x="1654" y="735.0000000000005" as="sourcePoint" />
            <mxPoint x="1632" y="940" as="targetPoint" />
            <Array as="points">
              <mxPoint x="1680" y="735" />
              <mxPoint x="1680" y="922" />
            </Array>
          </mxGeometry>
        </mxCell>
        <mxCell id="NfyWRdIrxdjjcfdtqH4J-138" value="HUB Database&lt;br&gt;Prod" style="shape=cylinder2;whiteSpace=wrap;html=1;boundedLbl=1;backgroundOutline=1;size=15;gradientColor=#ffffff;fontColor=#000000;align=center;verticalAlign=bottom;horizontal=1;fillColor=#FFD966;" parent="1" vertex="1">
          <mxGeometry x="1422" y="900" width="100" height="80" as="geometry" />
        </mxCell>
        <mxCell id="HagU0EfNBF4asc3zr9B8-1" style="rounded=0;orthogonalLoop=1;jettySize=auto;html=1;exitX=1;exitY=0.5;exitDx=0;exitDy=0;fontColor=#000000;strokeColor=#007FFF;" parent="1" target="NfyWRdIrxdjjcfdtqH4J-138" edge="1">
          <mxGeometry relative="1" as="geometry">
            <mxPoint x="1070" y="859.9999999999995" as="sourcePoint" />
            <mxPoint x="1860" y="893" as="targetPoint" />
            <Array as="points">
              <mxPoint x="1170" y="930" />
            </Array>
          </mxGeometry>
        </mxCell>
        <mxCell id="HagU0EfNBF4asc3zr9B8-5" value="" style="endArrow=classic;html=1;fontColor=#000000;exitX=0.75;exitY=1;exitDx=0;exitDy=0;" parent="1" source="NfyWRdIrxdjjcfdtqH4J-16" target="NfyWRdIrxdjjcfdtqH4J-161" edge="1">
          <mxGeometry width="50" height="50" relative="1" as="geometry">
            <mxPoint x="1070" y="269" as="sourcePoint" />
            <mxPoint x="1537" y="313.6700000000001" as="targetPoint" />
            <Array as="points">
              <mxPoint x="1130" y="296" />
              <mxPoint x="1330" y="310" />
              <mxPoint x="1520" y="320" />
            </Array>
          </mxGeometry>
        </mxCell>
        <mxCell id="NfyWRdIrxdjjcfdtqH4J-153" value="HUB Database&lt;br&gt;DEMO (New)" style="shape=cylinder2;whiteSpace=wrap;html=1;boundedLbl=1;backgroundOutline=1;size=15;gradientColor=#ffffff;fontColor=#000000;align=center;verticalAlign=bottom;horizontal=1;fillColor=#FFD966;" parent="1" vertex="1">
          <mxGeometry x="1407" y="-105" width="100" height="80" as="geometry" />
        </mxCell>
        <mxCell id="HagU0EfNBF4asc3zr9B8-7" style="orthogonalLoop=1;jettySize=auto;html=1;fontColor=#000000;strokeColor=#007FFF;entryX=0.018;entryY=0.557;entryDx=0;entryDy=0;entryPerimeter=0;exitX=1;exitY=0.5;exitDx=0;exitDy=0;rounded=1;" parent="1" source="NfyWRdIrxdjjcfdtqH4J-53" target="NfyWRdIrxdjjcfdtqH4J-153" edge="1">
          <mxGeometry relative="1" as="geometry">
            <mxPoint x="1120" y="-100" as="sourcePoint" />
            <mxPoint x="1330" y="-51" as="targetPoint" />
            <Array as="points">
              <mxPoint x="1160" y="-60" />
            </Array>
          </mxGeometry>
        </mxCell>
        <mxCell id="HagU0EfNBF4asc3zr9B8-10" value="" style="endArrow=classic;html=1;" parent="1" edge="1">
          <mxGeometry width="50" height="50" relative="1" as="geometry">
            <mxPoint x="1020" y="420" as="sourcePoint" />
            <mxPoint x="1070" y="370" as="targetPoint" />
          </mxGeometry>
        </mxCell>
        <mxCell id="vc6HpMR8ZU8bShavQTH8-1" value="CNX" style="rounded=0;whiteSpace=wrap;html=1;" parent="1" vertex="1">
          <mxGeometry x="1440" y="-350" width="120" height="60" as="geometry" />
        </mxCell>
        <mxCell id="vc6HpMR8ZU8bShavQTH8-4" value="CNX" style="shape=cylinder3;whiteSpace=wrap;html=1;boundedLbl=1;backgroundOutline=1;size=15;" parent="1" vertex="1">
          <mxGeometry x="1620" y="-370" width="60" height="80" as="geometry" />
        </mxCell>
        <mxCell id="vc6HpMR8ZU8bShavQTH8-5" value="" style="endArrow=classic;html=1;exitX=0.75;exitY=0;exitDx=0;exitDy=0;entryX=0.145;entryY=0;entryDx=0;entryDy=4.35;entryPerimeter=0;" parent="1" source="NfyWRdIrxdjjcfdtqH4J-51" target="vc6HpMR8ZU8bShavQTH8-4" edge="1">
          <mxGeometry width="50" height="50" relative="1" as="geometry">
            <mxPoint x="1280" y="-60" as="sourcePoint" />
            <mxPoint x="1330" y="-110" as="targetPoint" />
            <Array as="points">
              <mxPoint x="1120" y="-450" />
            </Array>
          </mxGeometry>
        </mxCell>
        <mxCell id="vc6HpMR8ZU8bShavQTH8-6" value="" style="endArrow=classic;startArrow=classic;html=1;" parent="1" source="vc6HpMR8ZU8bShavQTH8-1" edge="1">
          <mxGeometry width="50" height="50" relative="1" as="geometry">
            <mxPoint x="1572" y="-270" as="sourcePoint" />
            <mxPoint x="1622" y="-320" as="targetPoint" />
          </mxGeometry>
        </mxCell>
      </root>
    </mxGraphModel>
  </diagram>
  <diagram id="a5GKu1zyU82oDHkxU4_g" name="Page-2">
    <mxGraphModel dx="1422" dy="1894" grid="1" gridSize="10" guides="1" tooltips="1" connect="1" arrows="1" fold="1" page="1" pageScale="1" pageWidth="850" pageHeight="1100" math="0" shadow="0">
      <root>
        <mxCell id="lcIM6x4vdw6VmImNX3Ad-0" />
        <mxCell id="lcIM6x4vdw6VmImNX3Ad-1" parent="lcIM6x4vdw6VmImNX3Ad-0" />
        <mxCell id="GC90uGmnZj170AEsBIfb-2" value="&lt;div style=&quot;text-align: justify&quot;&gt;&lt;span&gt;BNCR&lt;/span&gt;&lt;/div&gt;" style="rounded=0;whiteSpace=wrap;html=1;fillColor=#f5f5f5;strokeColor=#666666;fontColor=#333333;align=center;" parent="lcIM6x4vdw6VmImNX3Ad-1" vertex="1">
          <mxGeometry x="110" y="-410" width="200" height="270" as="geometry" />
        </mxCell>
        <mxCell id="GC90uGmnZj170AEsBIfb-0" value="MPC" style="rounded=1;whiteSpace=wrap;html=1;" parent="lcIM6x4vdw6VmImNX3Ad-1" vertex="1">
          <mxGeometry x="150" y="-380" width="120" height="60" as="geometry" />
        </mxCell>
        <mxCell id="GC90uGmnZj170AEsBIfb-1" value="SIACC" style="rounded=1;whiteSpace=wrap;html=1;" parent="lcIM6x4vdw6VmImNX3Ad-1" vertex="1">
          <mxGeometry x="150" y="-250" width="120" height="60" as="geometry" />
        </mxCell>
        <mxCell id="GC90uGmnZj170AEsBIfb-3" value="" style="rounded=0;whiteSpace=wrap;html=1;fillColor=#d5e8d4;strokeColor=#82b366;" parent="lcIM6x4vdw6VmImNX3Ad-1" vertex="1">
          <mxGeometry x="390" y="-410" width="450" height="270" as="geometry" />
        </mxCell>
        <mxCell id="GC90uGmnZj170AEsBIfb-4" value="Mulesoft Integration&lt;br&gt;Layer" style="rounded=1;whiteSpace=wrap;html=1;" parent="lcIM6x4vdw6VmImNX3Ad-1" vertex="1">
          <mxGeometry x="450" y="-310" width="120" height="60" as="geometry" />
        </mxCell>
        <mxCell id="GC90uGmnZj170AEsBIfb-5" value="NAS LAT" style="rounded=1;whiteSpace=wrap;html=1;" parent="lcIM6x4vdw6VmImNX3Ad-1" vertex="1">
          <mxGeometry x="670" y="-310" width="120" height="60" as="geometry" />
        </mxCell>
        <mxCell id="GC90uGmnZj170AEsBIfb-8" style="edgeStyle=orthogonalEdgeStyle;rounded=0;orthogonalLoop=1;jettySize=auto;html=1;" parent="lcIM6x4vdw6VmImNX3Ad-1" source="GC90uGmnZj170AEsBIfb-6" target="GC90uGmnZj170AEsBIfb-2" edge="1">
          <mxGeometry relative="1" as="geometry" />
        </mxCell>
        <mxCell id="GC90uGmnZj170AEsBIfb-9" style="edgeStyle=orthogonalEdgeStyle;rounded=0;orthogonalLoop=1;jettySize=auto;html=1;" parent="lcIM6x4vdw6VmImNX3Ad-1" source="GC90uGmnZj170AEsBIfb-6" target="GC90uGmnZj170AEsBIfb-5" edge="1">
          <mxGeometry relative="1" as="geometry" />
        </mxCell>
        <mxCell id="GC90uGmnZj170AEsBIfb-6" value="BNCR User" style="shape=umlActor;verticalLabelPosition=bottom;verticalAlign=top;html=1;outlineConnect=0;" parent="lcIM6x4vdw6VmImNX3Ad-1" vertex="1">
          <mxGeometry x="180" y="-530" width="30" height="60" as="geometry" />
        </mxCell>
        <mxCell id="GC90uGmnZj170AEsBIfb-10" value="" style="endArrow=classic;startArrow=classic;html=1;" parent="lcIM6x4vdw6VmImNX3Ad-1" source="GC90uGmnZj170AEsBIfb-0" target="GC90uGmnZj170AEsBIfb-4" edge="1">
          <mxGeometry width="50" height="50" relative="1" as="geometry">
            <mxPoint x="260" y="-310" as="sourcePoint" />
            <mxPoint x="310" y="-360" as="targetPoint" />
          </mxGeometry>
        </mxCell>
        <mxCell id="GC90uGmnZj170AEsBIfb-11" value="" style="endArrow=classic;startArrow=classic;html=1;entryX=0;entryY=0.5;entryDx=0;entryDy=0;" parent="lcIM6x4vdw6VmImNX3Ad-1" source="GC90uGmnZj170AEsBIfb-1" target="GC90uGmnZj170AEsBIfb-4" edge="1">
          <mxGeometry width="50" height="50" relative="1" as="geometry">
            <mxPoint x="400" y="-250" as="sourcePoint" />
            <mxPoint x="450" y="-300" as="targetPoint" />
          </mxGeometry>
        </mxCell>
        <mxCell id="GC90uGmnZj170AEsBIfb-12" value="" style="endArrow=classic;startArrow=classic;html=1;entryX=1;entryY=0.5;entryDx=0;entryDy=0;" parent="lcIM6x4vdw6VmImNX3Ad-1" source="GC90uGmnZj170AEsBIfb-5" target="GC90uGmnZj170AEsBIfb-4" edge="1">
          <mxGeometry width="50" height="50" relative="1" as="geometry">
            <mxPoint x="400" y="-250" as="sourcePoint" />
            <mxPoint x="450" y="-300" as="targetPoint" />
          </mxGeometry>
        </mxCell>
        <mxCell id="GC90uGmnZj170AEsBIfb-13" value="TNGOC" style="text;html=1;strokeColor=none;fillColor=none;align=center;verticalAlign=middle;whiteSpace=wrap;rounded=0;" parent="lcIM6x4vdw6VmImNX3Ad-1" vertex="1">
          <mxGeometry x="595" y="-180" width="40" height="20" as="geometry" />
        </mxCell>
      </root>
    </mxGraphModel>
  </diagram>
  <diagram id="JmqtXFLclKxrcGPMBIer" name="RELNKS">
    <mxGraphModel dx="2370" dy="1268" grid="1" gridSize="10" guides="1" tooltips="1" connect="1" arrows="1" fold="1" page="1" pageScale="1" pageWidth="850" pageHeight="1100" math="0" shadow="0">
      <root>
        <mxCell id="LnSEVfMM8-7d9JJSHnFC-0" />
        <mxCell id="LnSEVfMM8-7d9JJSHnFC-1" parent="LnSEVfMM8-7d9JJSHnFC-0" />
        <mxCell id="LnSEVfMM8-7d9JJSHnFC-28" value="" style="rounded=0;whiteSpace=wrap;html=1;" vertex="1" parent="LnSEVfMM8-7d9JJSHnFC-1">
          <mxGeometry x="340" y="690" width="350" height="620" as="geometry" />
        </mxCell>
        <mxCell id="LnSEVfMM8-7d9JJSHnFC-10" value="&lt;font color=&quot;#ff0000&quot;&gt;&lt;br&gt;&lt;br&gt;&lt;span style=&quot;font-family: &amp;#34;helvetica&amp;#34; ; font-size: 12px ; font-style: normal ; font-weight: 400 ; letter-spacing: normal ; text-align: center ; text-indent: 0px ; text-transform: none ; word-spacing: 0px ; background-color: rgb(248 , 249 , 250) ; display: inline ; float: none&quot;&gt;Process &amp;amp; System API&lt;/span&gt;&lt;/font&gt;" style="rounded=0;whiteSpace=wrap;html=1;" vertex="1" parent="LnSEVfMM8-7d9JJSHnFC-1">
          <mxGeometry x="720" y="367" width="330" height="290" as="geometry" />
        </mxCell>
        <mxCell id="LnSEVfMM8-7d9JJSHnFC-66" style="edgeStyle=orthogonalEdgeStyle;rounded=0;orthogonalLoop=1;jettySize=auto;html=1;" edge="1" parent="LnSEVfMM8-7d9JJSHnFC-1" source="LnSEVfMM8-7d9JJSHnFC-16" target="LnSEVfMM8-7d9JJSHnFC-38">
          <mxGeometry relative="1" as="geometry" />
        </mxCell>
        <mxCell id="LnSEVfMM8-7d9JJSHnFC-16" value="Real Estate - NAS&#xa;(realestate-events)" style="shape=image;imageAspect=0;aspect=fixed;verticalLabelPosition=bottom;verticalAlign=top;image=https://res-1.cloudinary.com/crunchbase-production/image/upload/c_lpad,f_auto,q_auto:eco/wjgjfxwhbbtz91cgamqj;" vertex="1" parent="LnSEVfMM8-7d9JJSHnFC-1">
          <mxGeometry x="922.5" y="387" width="100" height="100" as="geometry" />
        </mxCell>
        <mxCell id="LnSEVfMM8-7d9JJSHnFC-7" value="&lt;font color=&quot;#ff0000&quot;&gt;System API&lt;/font&gt;" style="rounded=0;whiteSpace=wrap;html=1;" vertex="1" parent="LnSEVfMM8-7d9JJSHnFC-1">
          <mxGeometry x="340" y="517" width="370" height="140" as="geometry" />
        </mxCell>
        <mxCell id="LnSEVfMM8-7d9JJSHnFC-6" value="&lt;br&gt;&lt;br&gt;&lt;font color=&quot;#ff0000&quot;&gt;&lt;span style=&quot;font-family: &amp;#34;helvetica&amp;#34; ; font-size: 12px ; font-style: normal ; font-weight: 400 ; letter-spacing: normal ; text-align: center ; text-indent: 0px ; text-transform: none ; word-spacing: 0px ; background-color: rgb(248 , 249 , 250) ; display: inline ; float: none&quot;&gt;Process API&lt;/span&gt;&lt;br&gt;&lt;/font&gt;" style="rounded=0;whiteSpace=wrap;html=1;" vertex="1" parent="LnSEVfMM8-7d9JJSHnFC-1">
          <mxGeometry x="340" y="367" width="370" height="140" as="geometry" />
        </mxCell>
        <mxCell id="LnSEVfMM8-7d9JJSHnFC-5" value="&lt;font color=&quot;#ff0000&quot;&gt;Experience API&lt;/font&gt;" style="rounded=0;whiteSpace=wrap;html=1;align=center;" vertex="1" parent="LnSEVfMM8-7d9JJSHnFC-1">
          <mxGeometry x="340" y="155" width="710" height="175" as="geometry" />
        </mxCell>
        <mxCell id="LnSEVfMM8-7d9JJSHnFC-8" value="" style="edgeStyle=orthogonalEdgeStyle;rounded=0;orthogonalLoop=1;jettySize=auto;html=1;" edge="1" parent="LnSEVfMM8-7d9JJSHnFC-1" source="LnSEVfMM8-7d9JJSHnFC-2" target="LnSEVfMM8-7d9JJSHnFC-6">
          <mxGeometry relative="1" as="geometry" />
        </mxCell>
        <mxCell id="LnSEVfMM8-7d9JJSHnFC-69" style="edgeStyle=orthogonalEdgeStyle;rounded=0;orthogonalLoop=1;jettySize=auto;html=1;entryX=0.5;entryY=0;entryDx=0;entryDy=0;" edge="1" parent="LnSEVfMM8-7d9JJSHnFC-1" source="LnSEVfMM8-7d9JJSHnFC-2" target="LnSEVfMM8-7d9JJSHnFC-10">
          <mxGeometry relative="1" as="geometry">
            <Array as="points">
              <mxPoint x="610" y="224" />
              <mxPoint x="610" y="350" />
              <mxPoint x="885" y="350" />
            </Array>
          </mxGeometry>
        </mxCell>
        <mxCell id="LnSEVfMM8-7d9JJSHnFC-2" value="relnks-exp-events" style="shape=image;imageAspect=0;aspect=fixed;verticalLabelPosition=bottom;verticalAlign=top;image=https://res-1.cloudinary.com/crunchbase-production/image/upload/c_lpad,f_auto,q_auto:eco/wjgjfxwhbbtz91cgamqj;" vertex="1" parent="LnSEVfMM8-7d9JJSHnFC-1">
          <mxGeometry x="370" y="174" width="100" height="100" as="geometry" />
        </mxCell>
        <mxCell id="LnSEVfMM8-7d9JJSHnFC-3" value="external-proc-api" style="shape=image;imageAspect=0;aspect=fixed;verticalLabelPosition=bottom;verticalAlign=top;image=https://res-1.cloudinary.com/crunchbase-production/image/upload/c_lpad,f_auto,q_auto:eco/wjgjfxwhbbtz91cgamqj;" vertex="1" parent="LnSEVfMM8-7d9JJSHnFC-1">
          <mxGeometry x="370" y="377" width="100" height="100" as="geometry" />
        </mxCell>
        <mxCell id="LnSEVfMM8-7d9JJSHnFC-32" value="" style="edgeStyle=orthogonalEdgeStyle;rounded=0;orthogonalLoop=1;jettySize=auto;html=1;" edge="1" parent="LnSEVfMM8-7d9JJSHnFC-1" source="LnSEVfMM8-7d9JJSHnFC-4" target="LnSEVfMM8-7d9JJSHnFC-28">
          <mxGeometry relative="1" as="geometry">
            <Array as="points">
              <mxPoint x="420" y="670" />
              <mxPoint x="515" y="670" />
            </Array>
          </mxGeometry>
        </mxCell>
        <mxCell id="LnSEVfMM8-7d9JJSHnFC-4" value="external-sys-api" style="shape=image;imageAspect=0;aspect=fixed;verticalLabelPosition=bottom;verticalAlign=top;image=https://res-1.cloudinary.com/crunchbase-production/image/upload/c_lpad,f_auto,q_auto:eco/wjgjfxwhbbtz91cgamqj;" vertex="1" parent="LnSEVfMM8-7d9JJSHnFC-1">
          <mxGeometry x="370" y="527" width="100" height="100" as="geometry" />
        </mxCell>
        <mxCell id="LnSEVfMM8-7d9JJSHnFC-68" style="edgeStyle=orthogonalEdgeStyle;rounded=0;orthogonalLoop=1;jettySize=auto;html=1;" edge="1" parent="LnSEVfMM8-7d9JJSHnFC-1" source="LnSEVfMM8-7d9JJSHnFC-9" target="LnSEVfMM8-7d9JJSHnFC-16">
          <mxGeometry relative="1" as="geometry" />
        </mxCell>
        <mxCell id="LnSEVfMM8-7d9JJSHnFC-9" value="client-exp-events" style="shape=image;imageAspect=0;aspect=fixed;verticalLabelPosition=bottom;verticalAlign=top;image=https://res-1.cloudinary.com/crunchbase-production/image/upload/c_lpad,f_auto,q_auto:eco/wjgjfxwhbbtz91cgamqj;" vertex="1" parent="LnSEVfMM8-7d9JJSHnFC-1">
          <mxGeometry x="910" y="175" width="100" height="100" as="geometry" />
        </mxCell>
        <mxCell id="LnSEVfMM8-7d9JJSHnFC-67" style="edgeStyle=orthogonalEdgeStyle;rounded=0;orthogonalLoop=1;jettySize=auto;html=1;" edge="1" parent="LnSEVfMM8-7d9JJSHnFC-1" source="LnSEVfMM8-7d9JJSHnFC-12" target="LnSEVfMM8-7d9JJSHnFC-35">
          <mxGeometry relative="1" as="geometry" />
        </mxCell>
        <mxCell id="LnSEVfMM8-7d9JJSHnFC-12" value="Home Closing Services&#xa;(homeclosing-events)" style="shape=image;imageAspect=0;aspect=fixed;verticalLabelPosition=bottom;verticalAlign=top;image=https://res-1.cloudinary.com/crunchbase-production/image/upload/c_lpad,f_auto,q_auto:eco/wjgjfxwhbbtz91cgamqj;" vertex="1" parent="LnSEVfMM8-7d9JJSHnFC-1">
          <mxGeometry x="760" y="387" width="100" height="100" as="geometry" />
        </mxCell>
        <mxCell id="LnSEVfMM8-7d9JJSHnFC-31" style="edgeStyle=orthogonalEdgeStyle;rounded=0;orthogonalLoop=1;jettySize=auto;html=1;exitX=0;exitY=0.423;exitDx=0;exitDy=0;exitPerimeter=0;entryX=1;entryY=0.5;entryDx=0;entryDy=0;" edge="1" parent="LnSEVfMM8-7d9JJSHnFC-1" source="LnSEVfMM8-7d9JJSHnFC-35" target="LnSEVfMM8-7d9JJSHnFC-25">
          <mxGeometry relative="1" as="geometry">
            <mxPoint x="1000" y="720" as="sourcePoint" />
            <mxPoint x="630" y="840" as="targetPoint" />
            <Array as="points">
              <mxPoint x="721" y="756" />
              <mxPoint x="721" y="780" />
            </Array>
          </mxGeometry>
        </mxCell>
        <mxCell id="LnSEVfMM8-7d9JJSHnFC-20" value="" style="group" vertex="1" connectable="0" parent="LnSEVfMM8-7d9JJSHnFC-1">
          <mxGeometry x="370" y="720" width="120" height="140" as="geometry" />
        </mxCell>
        <mxCell id="LnSEVfMM8-7d9JJSHnFC-18" value="" style="shape=cylinder3;whiteSpace=wrap;html=1;boundedLbl=1;backgroundOutline=1;size=15;" vertex="1" parent="LnSEVfMM8-7d9JJSHnFC-20">
          <mxGeometry width="120" height="140" as="geometry" />
        </mxCell>
        <mxCell id="LnSEVfMM8-7d9JJSHnFC-17" value="" style="shape=image;verticalLabelPosition=bottom;labelBackgroundColor=#ffffff;verticalAlign=top;aspect=fixed;imageAspect=0;image=data:image/png,iVBORw0KGgoAAAANSUhEUgAAAM8AAADzCAMAAAAW57K7AAABR1BMVEX///9BLx+BxWRQlkZSmUlOk0Vbqk5OlEWCyGVSmEhALR5psFd+xGBVnEtkrVRXqEyOcU5ws14+JBuJakQ/KBxRpkh5uGaEzGd7w1tssVo6HxDt6+pAKh1/u2zy7up7uWesmIKRdVN6tV00FADGuKo4Gwl/wGI9IBltmlCRhoGi1I3k8t5ypFVGPyaIwHfc7tXO6MShim/n4tvNyMa7tLFYRTybko7E47iHyGyTzXtYaTlPUy9DNSFgfUKu2Zz2+/RJbTQrAACDdnC7361njElMTCxGVi26qZamkHfAurdMNiupoJ0yEAB3aWO13KWYz4JNfjxabTtlhkdZTTlgT0fDtKRfTkZUXzlwklh5q2ZMcDhTi0RJZDNelUtFTClGWi2Do2uXo3ilpYSIqW6/u6CstpF6b1jHxaqfnX/X1L9SRDKfm4qCYDNznIdcAAARw0lEQVR4nO2d+1saxxrHgWjEFSJZJkqXCVFwjShEZQFRUSpKVC7eirFN0qT12KTntP//z2f2PrO7syx0R7DPfp8+7coudD6873znndkLoVCgQIECBQoUKFCgQIECBQoUKFCgQIECBQpEVaOxsbG5ubm1c3xxeLiu6/DweGcLvbyxsdEYdws9amNr6/hwt1aLxGIpRTFC+muRSG13/QLBTSxXY2PzeH23FtOaO1AxlThSuzzcmrRoNTZ3dmsRJRYeSKxgsVQsUkNQ46ZQ1di82JVRhgchqVKx2vrOuJkaW5c1b+nljSlSuxgfEoKJ/OO42JhitYvNcdBsrNd8h1GViu3uPLZBbO36lmUOQol3+Ih519jxGpqogzwixdYfi2irlhoIsYgUXc1mCzZls6sRZe8gtEci2tyl08gg0Ui2sHZzsHfXKhbrdQ4CwBsCAMBwvVhs7e9dH5wUCqvy8XSsWOSCNU3jkNJv5JCsZgs3CKMO5JZDyHFcGP1DiFOlUnII7HqtkI0s0phSu2y9bsMxODJLdu1gv8jxPLQSuEgB40G9uHdSWHVmisWOGeJsOQQH5Ut2ba/F8WAYFJwqzEGeL+7fyEwOIVpn5t0bTjTZk1ZdZhkFBaeCPCzuOSGl1lnx7MZsMDf7HP+PWXQkDvDF60Jk0QrEqA9tkX0nGinc1b3CeE1FDoDWSZYMUqzGhqcWI2jW9gHwGhmuWPQcRI6vX2eJGKW2WOBsYuGJRtdaw+QZvLsGng9GRGGCKHbJgmfdDM9idp+H3tsXDvM//zpUL+NA/SZiJl2MQaHQwBLghvOcaYpg8d3L90N9AShG+1kDKMVgEDLdILr2djhH48DP7xY+DWuDoGUGiIEjHBrpFt0f8qvmfn73biH+dYgepAIVDCAGCVczcLLh4ZKtjnAQz6x3i9N4rg1PSO34jWPWBtEbfiic4i8I593rePxqyIzj6qtGfHyvEczuszhUumk4Mk/843AuwmEJ53sHMt16tT5EqxDO69c6z7BA4MBION87kNl9CkOkG1dHOCYPAhqGB7bMDuRziWCOPtET7zxceO0NwRP/PAwQVzT+r36PQKYdDNF9OHgj4yhAGs9Qro11IL9LHqy29t59+OsFG0/8yxBA/AkrQ7gw4pOte20NuFtYePPGyjNd9G6PmCFE/J2lGvYWLXgdRbh6YWFhwcYT/+Q9wPCOlcEZU9Pomlc7ACcLOs9rnCd+5TnjuKJZkvo7STXsevHAY2vA3suXC2aAMB7vnoBVCP4atmnXi3ve0p8rFjCe1wTPbMtjF+I4Y87gr2EPb9fg5gcqT9zz3AEzbF8rOHOuvdjy1BTY+gHxYAlH8HgeVnmTZ5cRj7eqn/91zo3H69yBXzMMwVceczj1Vo3C93NKfF4aCUfyePU4VgOqwYMmcx7EARQeMuEsPPEvnrqhOaXzdxHO5Cl4WRlE4Zmbc+f55ClAwBxQfeXZMXm8tAP1njlrwsVHCRDcZ1PwHBs8XsoD+OXFizkt4QwgDGUKyVsP4lpseC6GKnf4K5nHknAmiipPAeKKbHgOh+Hhii+ceKZIeQrQRPCAz89f2BPOxuNlDMJ4fC2wh+LhZ73wTHlZTMAK7LHxwJaM88LqcDaeqU+D1yVZ8QzjB+Djcw2IGFLtPPGvAx2BVf8Zhof/9JwIkMrzxoFnsCOw8mtz/Bm4+sYV5515Zm1A0wMdATLiweqdQVMX+PX5c1vCOfPEB54TgozqHaweHVS/yd3HqQPZeGZnpwYmHNhjXI8OXq4Cs881INLhTJ5ZXVPTgyYf2IIVI57ogCYo3ccpQDLPrEVTgxKO1fzH+/wUfqHy2BX/cUDCmfNTZvPtAWsz8PP8vMmDJZwTz9SnAW7JagHb+/oOfzXvGCBHntkBjo0vyB/6yYOvv7mnCD89jwfITLj4M6eEc580MFt/M691GbQ+ysfnzQBhQ+obZx53Q2C2Pup5/Zqr4zwv9A70khKfKXdDYLd+jZ1fcG0BbM3POyecjecZ0gBDwJYPfD6/YBakWdcBCL5/9Wre0eEwnmeGpj655ht2BYLP53+8LijCrwYPEaCXKs8zq9znQPwNq/NzXgdU8FnhsQVIjo+T3CseVsMpYdiuV7KBH18RATITjsLjPgAZdh3z+0ps8/oDV4Oz8piOMAIPNjv1/RLFXYPH1eB0HrvDjcCD2Zvv18QeYie4XZqg8Dg63Ag87E5ve65ICR4iQE48MwN4GF6PhFWkboag8rwieObsPDOaBvhBls3ZRlnYBTxuhiD7tXPCxS0og3nwasf36/lCl56uEJHHU+eEi5MkOo9LZ8QvF/P/EvljTyOqXO84O1zcAWfGtT7ATp76bgfEBYouUwau+MoaIC3hHHlm3E7T1bMGDoPrexvYFX0ujYDPKAnnHJ8rel/ERx//uw9+d4lbScpPO/DMUXlcLkTAilEmd5jsmAnnMufmr145O5yFZ1rRM/r8FJtrs+g+xBXLLo6tGZw94eIkicZDXz/AT5WwuaMJu1+G7nBc65Wzw8VJEkUzLtfCYUuJbO6Xwa5RdEk4DsadHS5uo0E8dDvgION0w0s45HD07/XKOeHsPMgO6Msh+NKBz3M5Q4ZjuyUc1oEIR4jjILq90e2AfbrhCedyETbHxR0dLq6STOMmR+8+2KXXkRirGzax+zVdJkGUhJuatrm1S/fBazdm92tiCecyaYBfHBMuPq2CYC434+LWWfbpRpwGcjlPxz9zSrjZYdwaX3hjdLemLOweOhfLdhhSHXno7oabNYt75wxhN51lqSeGuXDcIeFso+kMPd3M06YM3UAW5gguPUibdBMJ98LOQ3cDLDwM3UAWdhMqvcrWLRtPuBf27kMND4+t66TYPqNiw7zPZJF+Hx25iqAEyMYzc0XD4YrGWR/W4cGXEVCRQG0ROatz5qGHB5tnMw4PEaBogadlnDYG4QHy3HvgfvTxwkPexn1Nzbi3V1aHs+DQF6rweRyLG7ctamAJ52IJYUvCWcrrGepE++0NZga+ntSm6NhTxoH3ZMJZeK5o5QXArlCOMZr4kGpg04ZBGWcmXIHkoZkBMY1jsqxjF/HcjQEep/M8/8VbtvEnWHhYzeOswiwhmqWXccV5M+Ge/4bX1dQ7uXms0HkMM1CFW8LizVsaEPiCJdzvGA+1robYSBpJMX/YkyE84xb3qF2I/2zw/PA7lm60HCWW3Fg91cVR67hpt6gpx3/UE+7l/a+DvYBfw7KNeWWAqxHBu5DL3FsHKtyv6TjvqV5wgOM8XrbJIh5eQ1+f5+TLx1Qe3RCoOOAOe4rQo3mbrkMc6IQ6rHLq9XDz/7m/H4ADW6s4z6M/YRV/mNXiAdXkOP4j4nn1+/2DknDUu9FhHfMClmsgNOGm7VYnIJdD+YZ4/piZ+UQffcMEzmPUbVaRj+e6cwH6Mv/D/f3Dwx8fw/RiojDOzqPqwisQLP4m8zy0qb0M4DiR2pgeT7yOe8LqPv0kF/iGcL5/o0YH4AMPi5PZ3tTAPQEB0de0f5LDQxumLDhj8AIDCE84N6Dwnw8P9wINp0DgPO5ASop4omJ0ldqH4J8P3yk8yAoInHFYm6lN8pl9e5RxSEA8fzrykOMOw4c/epTloYoHzo9Sg98evv/lxAOKBE5sd+xPXt8hgBZvHEsf7qfvjjz4Q+smA8cGtAYdbBnx/NfOw73dW504HCtQtFC0D0SOPBx/YHku50Tg2IBW72yuIPM8WHggRww7kxIdWRYguys48PAtoutEUpODY3907FqYzDnuf99LKyKRa9erJM7lBOHIT14mgbL7ZIi49re/sBcAd0LQsHyK8mjajBBEKOcA6XOcmW6cxabHXhU4aaNmCVGhRZmFQ3AQseCwPOc7qhqXlk60euD4UFy+RRRs8jPIx1dRu4qc4Dn0IrnnwBtLcGK1cf9qCVU7luexRyMnYeJKLPj2ztJzJs3YSG1aOhEK0bXpC9zbVsH61PuxTncGq7Fuzblo4e4tVF2tfmJJtcntOqaOrT8FEo0U9nnI8eGDVQsNqgkmtuuY2rD9HIj8bPbwgbXjRGITnmu6GodWIOTdWdvPRaRq41rHGVqbA36xRQnO4QT7mlUoRO4/qPOEgqPK7Wdo5J7zhIKjqnFM/QWn1OUTsDW7NpyTLlWb+DGHps1LG1EqdvzkUg3TFtmNYrGn5GqO2jJ/OwzRPMmOQ6qBYhRTftDw30Ajq7F1mUqN85cM/dfG1lPvN4ECBQoU6N+ozNLSqaIlRacrJXPfirZL3nd6W8qMr5XetbKcVJVYTiT/lje2V/R92/q+pLJnecXtgyZFmcxKMpFIShmk0u22vL2txyhTWkZ/rqAd0pm843asLfWs7URiWU8maRk1PGEk3W0ykVT/UKhLTm+fOC1hPKHMGQ60YvCETtHm6RhaN7wIHiVcyW1tG+MpIc6zR2/bKLLwZJT+pG5jPOjl5NKjt20UWXjkzEpoASLjkxzV4dLnZfRvKd+sppW/z9EW2RelTr6ZL6ext5Sr6F+dXq8p4R9UNg7Tjy3J7+xg77TxyJmVyFh50ObyKCyZ82qvfZQPSf0jURABal250kVbQtk85rx/BNu5XA5W1VZ38n3Q7YU67a4AhFzHaFhTbPfbXRH2qp38B6WFUu8ItEX0eXmTyMoTWk5grqZtZZaTyyPZW6mCGgXy+Vy/2RcgAKgFlV4FbXWNL755VJHSaakpwFxP/rssdgEEPfRyvy1AmNMOlKCIvoN0Hr1XPDpSjqx2YTmdLuUFIPYNIBvPUkJPLdmlV0pIt8vJpVELBOkDgGJT/jLKqCm5npQJZcoACj0dR2yrbakioLy8ke60IRT6UjqURq8B9cB0W1R2hnoAfKgqGVbtApUVfbDxcXYe2ZpvDZ7k30hyl7odFagsgqa6hb7birrVQS1QP6+cE6ragT0BiiXtQKAmlPwWqOBWRS1Qkgg+aBuC9rnyUaIebxvPLcFzurKycrqdQK8lRvSDsqi3WBJAW91KQ9hVm94HekKh3VA7EvFoTS2JMFdSj9NY0xCoAW0Kot4J01i8HeNj5JvWf0pnmI2PzFMCEGovtjUM9JJopP4HoCUX4ukZ4OqBBne6DSpp5b9mTOQkrGRceCQLj2rjiZFSzuRBX63OU9GaJ4lQMHiagtYqjKdt8Aiq06WBGgoUOdGwKJS/Wi+082w7+XUolBg1QIN4zPhUXXjQS33t43LnOo/RnrKodTMHnoTTeIqHzWeeLvYta10d59ETE41FedTOdKWr+pzMc66/81ykxkcyKwGCZ8Vnnq7WTCgaI2ZVsPcfnQfBCkIln4ego++BQt78f2jfhJ3nzKwEHoEn09Y9IKQ4VofKE5JH3Ha/amSnPBDp2whWZ1si+7mENfsW51lCf4zkBx2Tx/S3CtQKBDR0GIaNRt60BubAE6pWiBKlI0LDsHuCoO87w2dwoRI+EcV5MiNPgKrGd1cCeHy0kQAVQR9UCknoau1rAswPtF5/Xsn1ie8zXQHaSISyVtQHZWXCY4yUUiKJldFmpSCnoTEtGk6ZPgBaQ8rGMC6hgqajvSgC4YP8qtTu6nFEA1FbxZXQSJlXhxtU1FWa+WqnLGkph4ZnUJHfWfrQ1SsFtZxOnpbkFQRpKWkuH6BdqDJFBZyyZzs52vQn3RNygpCTvbaKSlNB6LbPUXtRSSwcaTEot0Uh1+/1j9pljQa9QxDEtoQQ5c1crofQOzkEJL8udoWeFtCKKHQrvV4X6pZyqywYIKCkUqphyzuh0+VkUt2l7hlt9SCNvlGkPPr+OspmHs1o0spr1bwejk6v0q70yhn9K+g1kXr9EpplqJvKt39eQSyiKKBOKGjVXaasvNOc/yxtmzo7lfA2b5+dKS8vL29vL62MRuNdHpxGajclSSpXka/BnDl9ehILgw6qHulJJVWAUVk/WTWPTIRz0RxJn6jOu6KZYmkRy7enKTSIGSNMSOq20y7HPgWVc8Bk6HXP3Y59CspUtLFTHgIMZ3jCktoCyFWa1XzvqP3koyMr3YRi9+hIrHSe6ohjVRoNpxLrgT1QoECBAgUKFChQoECBAgUKFChQoECBAgWaXP0fQyQlZ8R0JeQAAAAASUVORK5CYII=;" vertex="1" parent="LnSEVfMM8-7d9JJSHnFC-20">
          <mxGeometry x="25.930000000000064" y="40" width="68.15" height="80" as="geometry" />
        </mxCell>
        <mxCell id="LnSEVfMM8-7d9JJSHnFC-23" value="" style="group" vertex="1" connectable="0" parent="LnSEVfMM8-7d9JJSHnFC-1">
          <mxGeometry x="370" y="870" width="120" height="140" as="geometry" />
        </mxCell>
        <mxCell id="LnSEVfMM8-7d9JJSHnFC-19" value="" style="shape=cylinder3;whiteSpace=wrap;html=1;boundedLbl=1;backgroundOutline=1;size=15;" vertex="1" parent="LnSEVfMM8-7d9JJSHnFC-23">
          <mxGeometry width="120" height="140" as="geometry" />
        </mxCell>
        <mxCell id="LnSEVfMM8-7d9JJSHnFC-22" value="" style="shape=image;verticalLabelPosition=bottom;labelBackgroundColor=#ffffff;verticalAlign=top;aspect=fixed;imageAspect=0;image=data:image/png,iVBORw0KGgoAAAANSUhEUgAAAP8AAADGCAMAAAAqo6adAAAA7VBMVEX////l5eUvYJHm5ubk5OTz8/Pr6+v6+vrj4+MAAADx8fHt7e34+Pj8/Pzp6en19fUmW44cV4wQUomnp6cNUYkATYd0jq5ERETW1tayv9C7u7sASoWms8PJyck9PT2fn588Z5Tk6O58fHytra2Ojo7N1eDa4OfBwcGyvs2otcVrbG3a2tq/ydWGhoZff6OcrMFOc5yLn7h8lLFbW1skJSZLTlEPFBlphqiUpr1be6A1NzoAAAYAP38cHBtycnJYX2c4QksrLC0tNj4oKCdiZGcVFRVVVVUNFx98g4qWnKIpLjRdZGsADxomJSRLUlgj3IncAAAYAElEQVR4nO1dCVvbOBOW49iOJN9xSAiE3AckIQFaoAfZZRfY0t2v///nfDOSczk2BXLupurTJ2Ei2zPSaGb0aiQTAkVXVUWDT0NR1fReEVSyI4z8kn+b8qeVNFKsjKJk9oqgEB2KaRiGBp/cMgxrrwgGAR1IG9AamqIqOjZPeq8IKL8SUtRxlT0iEBgDskXSimyRzF4RiLbfRbSBrkiLaKTHJnJfCIqUf/uOeLv+f6ZF0ntFUAj4QINxzjX4dHTO9b0icLT/GYsIi5gem8g9Iuy9/9/3+G8m/pmoyB4RRNHT6YycEcGXvSKkpfzbd8S/8I9tyr99Rdya/gtEwLIsiQhAsfeKsPf+b9/jH4x/oy5yjwjEgaIxxrTwk22R4DimaWB4Tiz4Ym7isaIN1gMzqLbqoChKUg2mw4QMCRkJRDilen80Gv1Of/9xNqoVCw7RbPVfi38YhVKpIIpjMPnccQ2dG5lCvSFKu6ASxo1C/eqeRsvnUdFmzqoZexn/WL5VVV1jxVF+VpCrUb1gGtwWzyVq/Wxezof+3YLs43JWWm//mzDSJCJgGg58cmNJgsbq+VhJTvpFcLkkcxb7qxR2VKsXsTRGownxvkiMVTAWS1ix/U+rTnYqzoc8li8zAj5lJ9Lnn741GuXRQ/6zVJFyVyjHtLBC+WN4n/bSjCXa/9X6f1b4EKp0o6Q5Ug7LMUv12sfZfr7KKuZUUEctFiwSW8y6tApn1r8C/9AaUvi2ESNLd9ydNSdeWEJ4tXcoSq86aZ+SvKqwvvhvZXclfaHjdpJ4xGqf0c/d8A+tiaU1/fXYO/K9sARu5aIXDoj2Nd62qK1FfiwrmlUxIX5R3rN1eDD0Ayg5d3gzOGyNFVz2a/X43At8UQL306An9cW4DdzUpLhe7rwnL6rhjRur43Qd+IfCnpFL8YczcH3PHcviup7nu5Xb5ri9m0P4dVZQ37uRP1Y/+amZ4vqVQ0Ev4q37u41/dJFHobID30stFs8PLvFXfj7byxNJU6eCl9MgclVFjJAM3jy7y/iHdhL2PhvGSY/FR1F6/qL0UlJX9HXLjfweXIhWE2OLrQP/sAUiYOv2GCJ4D8Fqiw4CFU4lyJfymzH9O1dhWMXBM4zcwPuERoNhA+hkeU7nCKuy/wqBMOYzfDcTxfdu4efOC+LDKDgSBu9TRIHcFPZXCeOA5TldD/5hI3cYqn9KEj9VgV+bL4qfGiv7eWwDlOERbEfxDz6S3d/x4+UCyWDwO4mNMyneDd4xOgRcbDwivev68A8nChG8noC8leF2iQK6KNfNz+WXDWAuUNF1QCRYM5fldJ4g2mAFs8qCME6kl2T6U0H1Fdo/bYBqVI9yVTEAfmi7iX+UpfqfJ3Ww+ylGq5MaAPv6MNIA3rFsZHM38Y8rUE1w0rkkmdD3tV7V/Vi5szhW3EsZAzirxz9MgQjAp0AE3kUgH4RpaiaqvwcPPHhd96fkYDEj8g+B9IVSa0lOI4TV2H8Vw1OY110kqj+4NS3RNSyWyqIrwRaEieBu4h8Y+/MXnD+qfydRORaLN1gwFzmg/Cnk3z38w0bLBF8S5XGt1zm/aYMtuAvs/7tQ/nXEf/CFI0F5B0GH+ekHiCWSehitv5VoG2OvQCc4501g/Ftf6PclOY0SRFl+/len9I8Ypz3pO3BerTcM/5QMF5szl6D9hynQiO8k/gHyP7wgPw7/wRuGfypUgMq8/OD/Gnwn8Q+Qf/SC/AF/4/BPyYDvdNpmaBHBytb1ncQ/6mJqmiz/uC8FFOZ5LzaF6/mV4XBYAYH59IZeTzylaK9Y/20oEhGwBSJA1HcQOHD2W7L8aP6Yh4DmzUWv2ewNhjEI2KStzse479wAwJAoC+EfWY7TCGFV+Af4vx8vyH8A8h/5N73JskAraSrgVqpkpkzl9xxCHtD87yT+ASPzMdn/oe1qXs4JlmAO3GGIkzMekR/cH8yxr5bmdD34h/pi/IPuTxareXh7edqaF222JiJ9zYPc16Mg+GrNVHJv4WIJMK4e/2BRiODNBHL/UvzrhcsYzQPX93PB0Vf0bc2YwSLC3oOj216zA05ztpHwFiVKS9qynEYIgq8VzH9rL81/pPy9iu+m3POqyZrDg3gF8KENB1/FQPnkQsBrTX5BD9qgVNvV/I+GmP8mwD8oP5crO55cz0HnHtNYLo4hDxdCep4wmhMdqQDthD45u5r/URLrc3E6Hco/xnNwJkRaucNYsACk1LyUf35444sp8yRmxj8MiH7YOvI/TMZZiAgwxt9HgND0I9wyfo7jdUD+sbQuDG4PPcLihMA9B+48jIDcyEUYQLcpzWjLczpHYKvCvzVK7+DbMF7+wezQ8DxPurMYOGzGh6LSTOJfz8DF9Q98Z/M/+BmldhLEhdobGRq+GectxPgf1wAveRnWQFsA3r/Pdzb/Qy+L5Z/TWAOI7Ediw/gZEaIeY5l9Z1oDdQFCrLa6lvwPdQ4ReB/B7or1+fhJPo72iPwo0eKMeFbnZ+XH+RN4GGsVnM4TRFnJ+reYARjx/b9o7YRLWKiMUR7LLcgv1P+DyH/Y2fwPIy8i4NioFvmPyn8cD4iSCeyJ8ofmBK1/AVOgdjj/A5N/MgkRYEz/o0mMiZbQAITNgrFgKD+axb7wL7ub/8HbYgE0dgVk3v9NmiSmLjaLKf3i1EKIxAE591m9/tu2DRbBAotg25xIiOBdBEvMTp24Na6YwY7yx0XL2NXSA0wvwmAZg59VcTpDWOX+l4/0msSvcWLQH5U/Xv+F1NXcWGnEUBBI6BPE/spu739pCANwmyBUxDDMRbezpUJCsz9xmmj9MhBd2GvJf11d/nNXGoCYCACtWiQyjPd/obTCVk7krwjr9xdJr2v/iykQAVMiAtx8L0ETawAkTn5tQf5gsUlkEYkCQgEqMl8GBw/YlrLzbsZeIKxy/wt7oNSIxYBccyEwwGlwPFoUNMN+DyT+gd2fhcnFwtkNO4V/AEGvixAlJqpB7HZ+Zog2LWFBEBf6hQvw4e4hdnhNa3zn97+ocgpQXfSAM6HcuEV6yckSfk/GABL/wmVfaNiMuqb9L6vBP8Wnlaf3JA4DmJ3KhkpuRCkzBTX+1kMVYb7Ay/6kZ9Zq4M5F/HOV+1/KwgPGT+vm/AJ6fytxCQh9o+EK+x/ghKBIqbIcYxva/5IRHjAG17qJzAxRIZJT5YRxPM1hhHDUEaP/bEnGNrT/BTj9SOJWQXD+fjGV92fJcGIZ4Cv4potUOPqXZOyF+A/j/8mK4DhEfifBhBBQjR0Ah3OLY2I8vJQMh8tATWyDpux+Y0nGEglytW1VsyonHACxwCbpTfzdT5PhhALAFagnuOrxrzn/4yTBAwiBBmG7IMrzk2Q4XwwnXAvGnI9/z/kfWTEAYlBQsfVjIDUAU3vigdJJEYhXE3PhRwgrzewy2lX8QxI0EQIZRzESYajdwiVA4d/jFwqmJegIznBdqQ0fqq3DcFV1w161/i8gosoyBOejQAFjQhs3JZY1ezde7nY8xX+xAaR5fqR3JSztRu3uC6X33VVxOsZ/V3v+h10U66AxFlCE9aJwiIY756kXUmCw+KglckPlXDF3Fv8QBHZH8yRmaudWMLNBI9OSmAIj68uUgfoTyvx4XWuUGDEaYovVruIfgsAlCtSLmnfXEb3ZL8y0QPJWoZQ7kyxjTL/20b+uNv5dTf77lMDkJq3odB8Hm9wcfdUfC2XFy56SMwCinc5nDBGBA5S11ea/Y1nlrBIdlhpVAPR4COGGO7kh+hEpMLEAmCgEnaWXu2hKgMap9m6xu2pwtbqr+IckWAWxE2ROuXFGL7bv0XCT3KUnQH0tIQYW8yX0oWIXMRT/6xAbokvpibOz+EdIQBgM1Ko1jQF8DP5a4WEWKP4hyl0hifliGCBO58uuG6SENcRNFm17d/EPSdCAzScyMwsS25k0PMbiKisYaArnj/LHrhbKBZ/mEXa95/lB5bIpeqktzoHYZfwjJNTkIQChf5OO/8tdWchOxrhXrpnc/2LBq3V4e3lxfBhaAHkGwONu4x8hgYkwhVgVdyJ+vhZKQaoHYtAHIiUySf4eiZa6iANsa7WckvWcf5qVI8C4CbzgBlmufZCyNy/EBGC8zzlJfr85L3yh/yjFX0P+RzT/21oBAabBuB0AdPgYHR8pi7MrTr2jABO7MA089OxJCDBcVaiXdJ1n2vXG+OSYGtdXzulq8Y8xAbPB6LdJ94E6fBfdP7iseF7lciCk51ZsBpgYHDB6Pkfi/ofSOjhdNf4xJhSm58BY4sSjMomUwl8kWX6CyZ7T8qFWt5m6Dk7Xdv6pOLDkoVhqQ8gujkR6GNtxUfhIAEUJ8uNWT2gy0P1+I1tUQFHs9eI/K9YqJLSnvcfDU5HqGTnc7CKqxEmi/Aj+OCJOZnhcxYoZW8Q/Jh5hfovccgSuX0nxcbpTGNuwRyjyC+4XfEF+GEDKehibJ6zv/FOLpLP9flacgUg0NVubORWuxv6gOP4T0qVPxfjJ/PvPPzW4Pibo0Nzd0nO/32+gJf9DrJXHD3+c/dbptf4fO/8UB7+p67owhL+LEDFefnT/NXrC0ps4/3Ry/uEYETA2QXAecCtbwvwH02UeIILcBGOiDTb/3hU2ekH+FPTQX/K4s3Xzsa33v3Apf/wqQIVgumNjE3ys4/zT1xBC+WMRUFwdzkicaAP9//MjctZBMM6E/LGbIDE5ogvhj7kJxrZ1/vVIHGUVKz+6P3D/LXUj519v6fxzmBa0EuTH2T9EzOZG+NjW+fdyu8xtrPxVPOnqSVtHuu9i/Ddz/p8ePSJvfQSxlT9hAQAPesnTM7YRxmQbrGH+9zJBbYt8/jj5ETA0pPv7777/RVXEKklcCiTmvYH7q2+Gj23JzxIPDEHwtyhXyTYm/8b1P0Ou6RcSOwHC3K8R/WJvSP8X3v+Z3ggBT4vlcYkiYrcH4ueb4WNb/o+dJSSKHMnNPtkN8bGt+MeGAAATRaIRUICb//+HweFm+NhW/KvgcjhYH20uEcrN4VJxUdjGDb3/Ze6NkAIi2AwBD0zFNaLWNA/KDYYt1Eg8S5BtiA/RBpuf/2ZkNgw6udYw8Dxc6E5doPSEP0Lww/7777+1EAgWDLUGt7eDXrgkiAsnH82NxSHb63+ZENMmc6WL+W4fjcRXBq2+/zVNc8SboJ3J52YIjiWWha66E+Ht7HexYGI5m+Njm+//JPJVMfeNdqlUeq7JhaF8iSkb5GO773/rRle5awVc6twgH9t+/1/paiL7da1obZyP8P2PRvhGRMOwNktwHK1QL5fL2YJqMGvjfBiyDWAiFJ0ibZBAEJXZDh/bwj92hfDr/behRmz7RbRbIqQJ/A/fCJ8OXeReEWb9vxJ1kXtA+PX+2zAzYyFVYz8IEv/QuY6IgKlzru8VYYJ/KOMZYXqvCFvEP3aCsE38YxcIAv/YweKIEkM248hLlMX1n8zWCTYjrWaz02uKHyY1dD3T6/WaTXucVJlRdE6WfOzu+X+VD4ZHUHK5IPepM61RvXSDQNBTFy2RVJvWb4eHSz522v9KdInsFQT17Zf8jOC0Up4/HHSaneOLiu9XmCNqGJdB4J3f9pq9Ab459VLKfxAMlnwsAR+om+ANNfCKDN2j/gqCJt7iapmaZmEE8ZpLXkswK26lJRhjzOy5bsrEGqzi+QPdZIZlEcu+DbyKZhm6duAPyHKPFW2gp5UQERibyJ8QZt5xfd1PK++6RzxB7Xh+lYwJrBmIvXD4UsnWzCUt163oUAPkt5d67Dv9f5aOsuVyuZ59Hn2md5mfXGLrr9+7wi+98xkCOxD75869lDJ3j2rOO+BCfn0l/j9a5SeELM0yXReDwPkmzvx54RK18K306qfwG+9yhmCf+kd4Vo7ftOcuIR0fz4mLk/9Nskzwj7eBaCC/PSYY15jI8MIlajFM5nnNU0D+gxmC2ry5caD7D/j8JQYfQj2h/0vifxP8IxOFCJIJdlm+iEIS+rRov3hJm7bVVz/l1kvxOYKhdH2vuXBJz8vZ+oF/+kbWo4R3+X89lF8SnmlZx+0u0KKT7R62jEwcBbfZgPw83MxhcW6HNWxxiQnKKKqOT/ds+u6FM/dYu+PlFvmwfK/HD/zjN7Iet/6xpPwN6H+Vq9mrq6taXb63hZfKD1dPV9kuU+1Cu0Gfi/WuQoz62dXVqGiSYpHY7SJXoBJcqpXKV08P5S6TW2bOPa+Cb0ix7XCpwr4Fk7jIh+8N2Arkfw/+N9Z/SbinXZU1KB3Vaif0TuStjeiHWuO5f00bzG7IDYAlrU7px1rtgd6Tk3vCflB8Zw6ojp2nT/3nGp5uL55iX/ieH6Q+DXppGd3qlzjUF/gYegMe6v8y+B/EAKC2ug7xhIW7c3Tr5wS0fxrjYmee1ce9zjVaY45mEDVPC5wXMXvTYZpZoyViGW2xyl2n+a4DbW+MfuTzDvnt8+9nqulY5l+PBRMnImV6ZoinEO3wAEI8+Je66DGmkQPvQFvgg2HsA//Z21iPEkQbTDxCOuoiEgjg/+v1ehHK82f63SYFWjNDr3r9nekN3Nuko4rRB/B/Rcz0MugHZkvf9UTzjPz9+GTAJdaIpom8aYO27dC7cd7t3A7dwAclt1B+rkT50EP57TeyPk945/rHTPx332AK6LvDwxplWuIN9Igc9y9mi8SwhfxtWg9dtVUQ8tMCw/cG0LMJZ/SBzXPWuoWw95JcgPxRPtIM9H9l8U86ChH8hID6z6X+cx0I9yeTGhla5iX6Z9FgjOloyMP+/0YLangP/YuQ3+Aw1W3jb+FBvH3KFcWZfSzjB27QOvRSLMpHxvG9zkz8+2rW5wkh/vHGBAoT5DemOITDvjxY4xpV+mxYxb8wk+GhUcJUDrNEi45xRquTnIv8CbH+pgzuYGTpyaTcUZzsVecei+eAtnw/40T5qPpBywD5zaWSQd6Hf4z935ig0r9ZWEOtou2ztW67XLv/Qq8L4GYKMLD5CLP9wks+nxD22z86XpIF31jEA87QmLQt0jny7LnHXnpDwxWvRJrn49RznXH8s2n8Y97/w1D/kGdhDbuEwS4MMbGgXaIUAoISyA+XdMNLuEHzE/mhOhcbQlVbbAxten5r7rG3XsW48FIRPjhJeQN7FfHPKvofOlcJVxV4mRbIqM/lJWDTS1z0v1oQpyLhJU55Rn4HHKe8qao/oNfMeaf27GMPvBumuHiGziwfzoXnWooeyr9M/2MSpIOIAHwKROAVBA3lnyWgcKIGY3ffCfnz0ZSXGM9g5S0Y/4wbTxgLOJyZBfqYJ+bf/zAEIqwazYia3MniTcnQrbDZx3reKWOdIDid5dTp+Lkm4RrIb72N9SiBzFvVBTMbT8D53xyhBpEetw3CT8DM21m0AQwU2n68g/lfSZwBQE7oVbHLCn1afwL7P/qHgP1PO+R/Xwoa5n+UaF5TFLUXuDcWhL7isRzm/wEOiwtfQl7ilFUYFIF7ygX+ccxt1ZTjx1bfLss78Y8yTnnmavTp46jRyIPBA1etjehdrVFuPNDrLtTgd/T+sUu0sjjT46pgfDxh5IFaMmQw8/Qj1D2BQAAJxkXgpU5bjoh9e0NPHIRp8AFSdeLo4CI6Kc91eyyNg+Pg9Pj4FMsxlNNjZzn847VBVLdYUCM1uv2n/MdvRZliRTLls3z+qVaUNfRsucEJhAPVLnSmxT5D/xfaIkLCe5Rq+Xy+0R0/pZfy/cAd3pxXjoKg0hNz4DRvfsoFOe/TDUSFgV+58YJb3D8JNaHkcrlAfH5l74v/ZlZE0q8j8AWCzpg1S3CYnCEAAZ2BUS/qMrqxbFrjsze19PBFBGNC72IoXpM7vOjpdvgUlVdvzz0IiL3KRQ/cou/dWKTZOT4eDE47ULD/ex3zjbIo78I/3kPQrj+EBK0I86EXL5FHddiyUSY1FB1mVHiulm4DoXM0zChyyJu2bYc+VNkI/vEeAvjMZzz/gWslPA3pVfdIv0ToOatgfXPrPwyMYr9cbnymT872V5kW8Y816z84NLVc+/HHWb+01qe8Vf9xEywH/6vh+e2YiLk+ApcD2ljvU95EeCf+8Z8h/Mr/FJS3xr//GYJCNnbkx24SdjH/Y5OE3cv/2LD/3/f+F4iAaZoSETBNY68IAjrYBUO8NfsvKNt3xFvO/9x6ILbV+I/PtIiyVwR1g/O/nSTsvf/fd/n3Xf8FImDbISIAZb8Iog12wBH9wj+2QlD/D4oiGQMBQ3d6AAAAAElFTkSuQmCC;" vertex="1" parent="LnSEVfMM8-7d9JJSHnFC-23">
          <mxGeometry x="10" y="40" width="103.03" height="80" as="geometry" />
        </mxCell>
        <mxCell id="LnSEVfMM8-7d9JJSHnFC-36" value="" style="group" vertex="1" connectable="0" parent="LnSEVfMM8-7d9JJSHnFC-1">
          <mxGeometry x="730" y="690" width="160" height="155" as="geometry" />
        </mxCell>
        <mxCell id="LnSEVfMM8-7d9JJSHnFC-35" value="" style="rounded=0;whiteSpace=wrap;html=1;" vertex="1" parent="LnSEVfMM8-7d9JJSHnFC-36">
          <mxGeometry width="160" height="155" as="geometry" />
        </mxCell>
        <mxCell id="LnSEVfMM8-7d9JJSHnFC-34" value="" style="shape=image;verticalLabelPosition=bottom;labelBackgroundColor=#ffffff;verticalAlign=top;aspect=fixed;imageAspect=0;image=https://pbs.twimg.com/profile_images/1131983057077047299/MVLOn0JW.png;" vertex="1" parent="LnSEVfMM8-7d9JJSHnFC-36">
          <mxGeometry x="15" y="15" width="130" height="130" as="geometry" />
        </mxCell>
        <mxCell id="LnSEVfMM8-7d9JJSHnFC-37" value="" style="group" vertex="1" connectable="0" parent="LnSEVfMM8-7d9JJSHnFC-1">
          <mxGeometry x="530" y="710" width="140" height="140" as="geometry" />
        </mxCell>
        <mxCell id="LnSEVfMM8-7d9JJSHnFC-25" value="" style="whiteSpace=wrap;html=1;aspect=fixed;" vertex="1" parent="LnSEVfMM8-7d9JJSHnFC-37">
          <mxGeometry width="140" height="140" as="geometry" />
        </mxCell>
        <mxCell id="LnSEVfMM8-7d9JJSHnFC-27" value="" style="shape=image;verticalLabelPosition=bottom;labelBackgroundColor=#ffffff;verticalAlign=top;aspect=fixed;imageAspect=0;image=data:image/png,iVBORw0KGgoAAAANSUhEUgAAAQgAAADmCAYAAAApzxu5AAAgAElEQVR4Ae2dh3cUR9b2379md73rDe+73t1vbYIz9tprg40jNrZB5GRskiJR5GBylETOQeQMksgIEBkRhMggUM6R5ztPjWrU09MtzUjTo5F0+5w53T1dXV11q+rXt27dqv4fyCYSEAmIBGwk8D82/8vfIgGRgEgAAgipBCIBkYCtBAQQtqKRCyIBkYAAQuqASEAkYCsBAYStaFrvhZcvX6KmpgY11dXgsWwiATsJCCDsJNNK/y8tLsWpLUcwpetw7Bu+CBl7UlFeUCygaKXl3dRsCSCaKsEWcn95SRnO7z2OSZ8NR3j7MPXbM3Q+kiLicHz8atxKPIHS7AIBRQspz2AlUwARLEk3w3PYfSgpKMbpxCTM7BaN8HYuMER06OUGRHJkPPgjKI6NXYmb246hTDSKZiit0HykACI0y6VJqSIYykvLcZJdiS9GIrxdT0S0DwPBoH/UIqhBaEDovdIoJqxC5qELKM+XrkeTCqIV3CyAaAWFqLNAMFSUV+DSwbOY0S1SaQkaCOa9HSCMoKBGkbH3DCrLyqXroYXcxvYCiFZQ4ARDwYs8rI1ZiJh3+9faGOq0BTMceN4QIIygSI5OwKX4vci/90yNfrQCkUkWfJSAAMJHQYVisJc1L/H8/lMkzliFsR8OqtUYPLsSVnDwBxDJkXFuG0VyVAIuLtuDnFsP8bKmJhRFImkKsAQEEAEWaDCiIxjys3KwdcpyjH5vAEbRxmCwL/hy7KsGoTUJvaeNgsfX1h1BwYPnqKkWUASjzJvrGQKI5pJ8I55LMOQ9y8a+RVsx7sPB9doYGoJEYwFhBEVSVDyurDyIwkfPwbSxqyNb65KAAKIFlCcbXt6zHCTOWI3R7w9oEhg0OJoKCCMokqPicX1TMkpf1PpRCCdaQK3yLYkCCN/k1CyhqquqcOvsNSweOAURHXsHBAyBBoQRFEmR8Tg9fSMen76OmqpqQEDRLPUmkA8VQARSmgGKq7qqGleTz2Nhv0mIDDAYnAKEBygi4nBuXiKeXcpAVXllgKQi0TSHBAQQzSF1m2dWVVTi7sWbWD5sttIW2A3QDTrQ+0B1MTQYvPYRcco7M3XONjxLu4PKsgqxUdiUeyj/LYBo5tKhfaGqsgoZaTewdPA0hLd3+ShEdHAODoSN44CodeFOrgXFmRmbkXPnEaorqwQUzVzn/Hm8AMIfaQU4bFlJGU4nHsW4/7hGJJzUGMwaSNAAYZjrQS3j2NhVuLP7LMoLxY07wNXJkegEEI6I1T5SagxF2QU4nLAdk7oMQ3jt29zcgJ0+DzYgdBeEfhSuiWG18z0KS0SjsK8uzX5FABGkIiAYOLPy5NbDiP1kqMu5yUEbQ0OAaS5AaFCorkd4HE5MXIO7B1JRllckoAhSXfTnMQIIf6TViLAEQ3FeIU5sOYwpXUdg1Bs9ldbQUAN2+nqzA0LbKNRU82U4Pn4VMg6koqKkTEDRiHrm1C0CCIckSzBUlJYjZe0+TPhkaEB9GAIBj1AChNYq2PU4OXEtHh6/gspiGfVwqGr6Fa0Awi9xNRyYk5ieZTzG2ujFiH6nn+PDlY2FRSgCQoNCdT/UxLDdKH6eJzNIG652joUQQARItFwE9vm9p1gxaq4bDI1tvMG4L6QBYZhBmhKzHFfXHkbJi/wAlZRE448EBBD+SMsiLGczPrn9AFsmJ6iZlWx4wWjgTX1GaAPCtQye1iiSwpfh3tGLFtKXv5yWgACikRKmxpD7NBvrxy5B9Nt9Q87G0BBAWhYg4nA/6VIjS0pua4oEBBB+So/TmnOfZCNx+poWpTGYgSGA8LPg22hwAYSPBc8JVOf3nsSMblGI6Kjdoetf1s3cKEPpXADhY8G38WACiAYqQEVZuZpZuaBPbMiOSDQGPAKIBgpeLisJCCAsKoLyYSivwMVDZzC357hWBQYNEwGERcHLX14SEEAYREIwVFVU4XbqdSwZNBWj2vdsccZHDYCG9gIIQ8HLoa0EBBCAcu2ljSH91GXM6TEOTk+1bqjxBuO6AMK2TcgFgwTaNCCoMRTmFuBQwg6M6eRaNp4NJxgNtLmfIYAwtAI5tJVAmwQEwZD79AX2Ld6iZlby03RtBQwaTAII2zYhFwwSaFOAIBiKcvJxfNMhjP1wcKO+J6EbWEvfCyAMraC2mymL7HrKhGdtAhAEA6dcJ6/e45pZ2a5tdCPqg1hbBwTrBL1hy0tKlav8hd0nUJJToL4YxmuyuSTQqgHBCpCV+QiLB0yuWx26fct1bqqvwft7rS0CgvWh4HkurqWkYVXEfEz+fLj7cwKxnQapL4admbUJz9Juq7UzBRKtVIPgNxkyuDr0iNktcp6Ev429MeHbAiAIhMLsfNw6exVbJi/HrO4x6uPGHKVi/vmj7LiP7TQYeoFdThLj9z2yLmeiuqKKw1xtlhWtSoNQMytv3UfcLzMR9VZgPzTTmEYYyve0RkAQCCWFxWqF8INxicqXhQsCKwi0qwOCuVyMgHDPIFXfIHV93+Np2m21bH9bpESrAAS/QPXo5r0WO7PSXGGDcd7aAHEt5QLWRC9UCwGPIgz8GJmyAoQRFEnhcTgzazOeXLgFfrukLdkoWiwgWEicWZnz5DlWjJxTZ2Pw8yvXwWiMofQMNobw9j0x4o2fsK7PFBwNX6ZWmdYNIhT3bKANTfeOGzqztsvgvwG6PkC45VG7Gje/GJZ94wH4UmoLoGiRgGBXgjMrp38b6e5DhlIjDLW0sAEMf/1HDPjH1/jm1f/gsz+8i86/f1v9uv7xPfT61+eY0uVnbOo/HYdHLVXGOnfDMCwu21z/+QKI+F9nuW0K/srfJ0AYvu+RFBmH42NWIn3LMaVRtOauR4sEBPuZYwL0lWt/K1NLCT+qXU/8/K/v0PNvXfD1nz5Alz+8jU9//5YLDH94G13+8I77R1h8+ru31Pn3f/sYMR/2wcqwWOwbtjAktItQAoQbkhHxSjaFj7NbMx9aph9EaVEJxnQa2CZcon0FktIS3vgJg/75LX76W2d8+cdObi2BADACob7jzn94R8GCwPj61Q/w61vdsbT7aOweOg9Hwpc1i3YRkoBQy/XHoeiJACLkCCmAcA3NjWofhmG1XYfuf/3Eo+tACHQ2aQr1gcHumtYu2BXp//rX+O3LEdg6aCaOjFoaNO1CANF8TbBFdjHaKiCoJRAKv77+A/r8/Ut89ccPoN/4uoEHAgo6Lr3nM/QxNQtCo8drnTGp82Bs7D8Nh0ctUbDgdy3cKngAbRcCCAGEXxJoS4CgLeGX17ujx9+64Ks/dkKX37s0AzZS1XX4fV3j1Y3Yyb16JrWT2ufTrsHn9fhHZ4z9qD/W9Z2CgyMWB1S7EED41TwCGlg0iBAbFqWWMOKNHhj4z2/ww18/wRevvO9ujLpxEhJOQqAxcTNtWrv45i8fIrJTLyz7cQz2/jofR5uoWQggAtrm/YpMANHMgHB1G3qqbkO/177Cd3/5GJ+/8q67senGalTz9X+hvCcs+Pvy1U4Y3P5bzP5qBHYMmd0o24UAwq82HdDAAohmAISCArsO/+6OPq99ga/+xK5D3VAjG75bWzD0/wMOhFecfY7Og7aTfPbKu+j9r66Y9vkv2DRghvK58MVuIYAIaJv3KzIBRJAAwfUtCYTe/9dVDUEqCPzubWVkdMKwaAWTb/7vY0R3/wWbFq/Bnas38TDjPrYnbMLYsJH48Y2uQem2EBq6O0KHrbB/fo6pn/2CrQNn2g6jCiD8atMBDSyAcAgQ1BJGtuuBAf/4Bt//5b/o+sp7SkvozFGAAAw/WgHA/F/Pjl9hQp8I7FyxBbcu30BRfqHlh3Dpsl5WUopHdx8gacdBTOofjbA3v0bXP73vODQ0LJj2bn/9CFEf9MbKnhOwf/hCJEe4PsEngAhom/crMgFEAAGhtYS+r32Jbn/+yMOW4KQNgY2s66vvo9db3yC2byQSEzbhxoWr4GiPcaZyfXMHzNdKS0qRmZ6BAxt2Y3zvcBX3F39xOV+ZQdTUc6afcShYUMP43Vv45s8f4ucO32FJ9xjs/HlOg9/mDJartXEYl90jcZTyizfBCRwqw5xKS3ijB4b++3v0/vsXap5DZw5D6iFIB20JXV/thB7tvsDYniOwYf5KXDt3GaXFpR4FYG70Hhf9PKGGcfvKTexauRVTB4/BT+2/wJd/oQt34EZUKDfaKb786wf44fXPMPTT3pgTPhX71+5E3tP6PRYFEH4WqI/BRYPwR4No7/JgHPlGDwz5f93Q83+7oGvtMCQt9qqx+OHW7Evj0m/Xz//0Hr7/VxdEdPsZ6+auUBpCeWm5j8Uc+GBlpWXIvHEH2+I2YFzYKHT756f4/I/vuTWB+vKm8/TZH99F1z93Qo/2X2DkVwOxcPRMpOw6oro6JUr78X2hFgFE4MuYMQogfAAEgTD4X93w/Z9dtgStIai9Q/aE7/75KUZ9PQjr5i7HjfNXUFxYrKa3G7UC47Ez1cO3WJkOLtZSXFCkjJ80fA7r2g/dXvtEGWEJi29f+y9+/iQM04eOx751O3D9/FXkZ+ehqtK1vkJT8yKA8K2s/A0lgLAAhJ7j0OfvX+BbTo9+pW56tH771feG9Pca37w/vv45Ir8fiq1L1uJa6mUFBDa6lrpVV1ejML8A6RevIzP9jjrmx4mc2gQQzkhWAFG7JuGIdj0w5F/fIez/PsPXr37ocmk22BL8bfT1haf9gMOKo38chnVzluO60hCKWt0CJEatwHjsRFUWQDgh1bbaxahdsJQuzew6/PS/nfH5K+/hUzoraRtC7ZyH+hp6g9dqXaIJhO7/7qK6DPFTFuLWpXQUFxY5U6JtNFYBhDMF32Y0iPBaTWG4WjPhG1fXgWsf1C6iohp7E+c46O4HuyTf/uMT/Pp5P2xYsEr5IBQXCRCcqcKuWAUQzki3zQCCdoV5X0Rg37AF2DJwJhZ9F4XYTwZh6Jvf46fXOqs5A4SE0QDZoIZQO8T37d//i2Gf98PKGUuQnnYNhfmFYB/cabXamSrRMmMVQDhTbm0KEPO/iPBeryAiTi3cemD4IjWZaHWviZj3TTjGfzwAgzt0w49//xRfveoa7yc8qB388O/PEP7NYKycvhRXzl5EQW4+zAY4gYMzFdYuVgGEnWSa9r8AwmZhk5TIBOXqy2XWXFrHLCzvOxFXTl1Afk6upcty04pC7m6KBAQQTZGe/b0CCBtAGF1qeUy32lNT1oNf7RLtwL5CNdcVAYQzkhdA+AgIQkIDwpmikFibIgEBRFOkZ3+vAEIAYV87WtAVAYQzhSWAEEA4U7OCHKsAwhmBCyAEEM7UrCDHKoBwRuACCAGEMzUryLEKIJwRuABCAOFMzQpyrAIIZwQugBBAOFOzghyrAMIZgQsgBBDO1KwgxyqAcEbgAggBhDM1K8ixCiCcEbgAoo0Bgl6g7l9N3bEz1St4sQognJG1AKIVAqKGS8BV16C8pBS5T7Px+NZ9XEtJQ8q6/dg8MR6LB0zBzG5RODJuBS4s2IFr644g80AqnqSmIzfjCUpfFKCiuAw1tTNSW4JruQBCAOGWQGNWteZ0b8vZnC0MEPrtX1legcKcfDy//xQZF9JxYf8pHFi6DevHLcXSIdMx49tIjP/oZ8S82w+RHXsjguthtAsDV+JWv3Zh2DN0vvur3Jxror9ylRK9HMfHrcLJSetxfl4irq45hNs7T+HhyWt4cfUeCh4+R1l+ESpLKxSIQgEgAgh38wjogWgQIQYINraqyiqUFZei4EUent19jLtp6TizI1kBYGNsHJYMnKo0gHEfDkb0O/1U4+fCuvwSuBsA7cPU/wSD1Y/hCAjzpLS68zh1TYND7cOXISl8GZKjEnBs7Eo1NyV1biKurDyAO3vO4OHxK3hxLVMBpDS3EJUl5aiurMLLIKytKYAIKBfckQkgQgAQlWUVuLDvJA4sS8SGcUuxZNBUTP5sOMZ+OAiRb/bBqNd7YNQbPT00AKtG789/DQPC9VWrOmBYnZsgEh6HpFEuiBwbswInJq5F6pxtuLxiP25uP4FHp66jvLDEXfkCeSCACKQ06+ISQIQAIKgpxLzTT739/WnkTQkbGEBYQcP6P62B5N55XFf7AngkgAigMA1RCSBCARDZ+Yh5b4BlV6ApEKjv3mADgpoIuycCCEPrawGHAggBRD12CGttoP5uh/09AogWQARTEgUQAggBRPswxHYajOQIl03FVwCy2yQf7zURJRROW9swZ4F0MZpcrcQG0WQRWkYgGoRoEKJBiAZhCQf+KYAQQAggBBACiFD2pJQuhm399PmCdDF8FpVfAUWDEA1CNAjRIGyhIYAQQAggBBACCOlieM7JEEepOnlQFjLMac0I0SBEgxANQgBhTQcZxbD3+rNylnHqy1pipLStnz5fECOlz6LyK6BoEKJBiAYhGoQtNAQQAggBhABCACFGyjqjHGd5ipGyTh5ipLTlg3hSWtka7P4TG4R/NhuzHGU2p31DDNUr0sWQLoZ0MaSLYcsnAYQAQgAhgBBAiA2irs8tNghvWYijlDUjRIMQDUI0CNEgrOkgjlL+Gd3ESOmfvMRIadvuWswF0SBEgxANQjQIW2AJIAQQAggBhABCjJTehrn6v6zVtO6EuXvBc/GDsG2HIXtBNAjRIESDEA3CFlACCAGEAEIAIYCQLoZ0Mey+NCZzMWz5IHMxrPrKdv/JMGfT7BJig7BviKF6RboY0sWQLoZ0MWz5JIAQQAggBBACCLFBiA1CbBC2HLC9IBqEaBCiQYgGIYAQDUI0CNEgbDlge0E0CNEgRIMQDUIAIRqEaBCiQdhywPaCaBCiQYgGIRqEAEI0CNEgRIOw5YDtBdEgQkCDKMzOx+j3B8CuAjvxf7Msex8Rh7yMx7aVsSkX5MtaTZGe/b0CiBAAxMuXL1FZUYni/CLkPHmBB9fv4vKRVCSv3YtNsfFYPGAKpn8TjnEfDUHMu/0DApKAASIiDslRCTg+bhXoin5uXiIuL9+HuwfP4+mF28i9/QhFz3JRnl+M6opKMK9ObAIIJ6QKmYthN+/C6n+n5mI0VLRsVFUVlSgrLkXO4+e4d+UOriZfQNKavdjx21osHz4bs7pHY2LnXzGm00BEvd23QYj4BAjV+OORMmYFTsSuwenpG3F+wQ5cX38UmYfO48m5m8i59QhFT3NQWVyG6ooqvKypgRUCnAKDlp0AQksisHvRIEJAgwhEkdbU1CiAFLzIw6P0e7h0+CyOrtyFrdNWYvmIOZgXNh6TugzH2A8HIZoA6dgLe36Zj5ToBBwbuxLHY9fgzIyNSFuyG9c3JOHu/nN4dPoGcm4+RFluISpLylBTVa00ACsAwCHNwFfZCCB8lZR/4QQQrQQQutjt3tQESGV5BQqe5+LpnYe4ceISHp69gcLH2SjNLURVWYUCACzf/zr20N0LIJwpGwFEKwOEM9Uk9GMVQDhTRgIIAYQzNSvIsQognBG4AEIA4UzNCnKsAghnBC6AEEA4U7OCHKsAwhmBCyAEEM7UrCDHKoBwRuACCAGEMzUryLEKIJwRuABCAOFMzQpyrAIIZwQugBBAOFOzghyrAMIZgQsgBBDO1KwgxyqAcEbgAggBhDM1K8ixCiCcEbgAQgDhTM0Kcqzxw2YhvF1PhLcLAyei+TNFnuFjOw1GMien+VEfkiLiUPQkO8g5De7jBBB+VIjmms0Z3CoR+k/jjFHObi3OLcCzOw9w+8RFnNpwAAcWbMK2SQlYPnQm5vw4BhM//UXNbo14s7cCBkGg4NHee/EcAYR1uQsgBBDWNSNE/uXkMzcQ8gqQlfEId05fxuW9J3BhRzIubE9y/9J2JIO/iztT1P584lGc2XgQKSt2YdfM1VgbuQBLBkzGrG5RGM+1Nd7ph4iOvRHeIQwTOg1GUqRoEOZiF0AIIMx1olnPFRC4/kVlJUoLil1AOHkJl/cRCEm4kOgCgoaBL3tCxB1upwsi57Ydwal1+3Bk6TYkxsZjdb9pYJdBuhiexS+AEEB41oggn2kgVFdXo6ywBFl3HuL2yYu4vO+kl2bgbuS1moK/5wow25NAzSJ13X6cnL8VKRNWIYl1IHyZX3AgSMQGEeTK4uvjSotKXH3LDp59yfoMU6G8aK2v+W4N4QiE6qpqpR08vf0Ad05dwpX9p5BW+2bXXQZ/G79deJfWcRRnV+/FyblbkDJ+lQIBvzTuoTFE+P/lcgFEiNbI1gwINiAu7sJ9a9iYDxoUS/IL8YxAOHMFVw4QCCl1GsJ2l9pv18j9/Z/dkHObD+FMwi6cmLkRKWNXKBgkhcchuRYESmvwQ3u06noIIEK0hrYGQLDh0PjGt2l5cSkKX+Ti+d1HuJ+WjvSUC3hw+TZyHz9HWVEpqquqWgwwXta47AcleYUqP3fPXq0FQp1B0d8G31B4rSWc23AQp5ftwLHJa5EUFY+jZi2hiUAwQ0IAIYDw6Jc2dphTawVs6BUlZch/mo0n6ZnIOHMFVw+edr1Na41v2qDmVrV3puDaodN4ePkO8p9lo6K0HOyvh4KGoSBX22UoKSjCi3tPkHH2muoyXNh+tE5DaKTNoD4wUD7ntx1F6vqDOEVbwvhVSIqIB7sOWkswN+hAnwsgBBB+A4JvUK79WJxXiOz7T3H37DVcP5KKi3uOuy3puvFrGNTXEHhND+fpcBd3peD64bN4fC1DrTFZWVERNGCw+1NRWobsB8zbVVw9cKp2WNF7uFGnN1B7ZVzccNBlSxi3Ug1LspEqBydtQ9D7AGsLVnARQAgg/AJEWXEJ1o9ehKSEHeAwmhkEbOiBaizGuC/uPqYg9PDybeRnZaOirBw11TVNLj2l+VRXozS/CM8zH7s1HvoZGJ8fqDyZ4+Ezzm1y2RKOz9iA5DHLXbYEDQVCwM+hSauG3tj/BBBNrmLORBCqNgiq2eHteyG8Qy9M+PhnLO4/Cfvnb8DpjQdUgzI3gECeGxvspd3HcCP5PB5fz0B+Vo564xMYDXVLeJ02kRICIeMx7p67juuHzngaFAMIOa/8u7sNB3B6yXYcn7pO2RJoXHRrCn46MzW28ftynwDCmfbd5FhDFxDF6nsTeriV8wI4vMrP6i3oNQGJU5bj+OrdahyeDdqrgQS48WloaGA8upaBwue5qOQS97UjJdWVVSgtKFLdoXsX0pVNhEY/qvPBSuP5rUeQunY/Ti1MRAq7DhEuIKh9ELoKvsDAKowAoslN2ZkIWgogCAo9cYj7Ue16IrJjb0z/Khybxy9FyspdOBekhkgYaWBc3H0c6UnnkJHqMijqa2lBhBahcHbFHpyYuQHJo1dAaQmNcFayarjB+k8A4Uz7bnKsLQkQWpsww8I9cahDL0z/ahTWRS9EyoqdOL/tiOOahQZCMDQE/azzWw+7/BKmr0fy6OXKdqA1BVeD9s/NOVgQqO85AogmN2VnImipgDDCwnistQt+Dm/Cx0OwuN8kNTPx7OZDQVHz2YgD/buw7SjOrT+AU4sSlV9CcnSCu+tAw6JyVGpGA2N9Dd/XawIIZ9p3k2NtbYAwahfqmOsatA/DmA8GYkHYBCROTsCpdfvVRKVAN+RAxUdtRHUbVu9zzXEYu9KlJRiclQLhvehr4w1GOAFEk5uyMxG0RkAYNQojMJR28UZP9cHdmd2ioGwXK3bi3FbXMGqgGrj/8bj8Hs5vOYyzK/fiBIchRy9XjkrKWSmEjYuBgocAwpn23eRY2wIgzMDQ5zR08seuyOrwuUiK3+72ufC/kfvXtdBGznObD+PM0jqXZg8gtPBugz/wEEA0uSk7E0HjARHp4fjkT2Vg2IZcrUsKPIc5daN2au82dCrbxc9YOXI2Di/dprSLQMGCE59SNxzA6YWJODZxDZKjXdOclR1Bey22ISgY64wAwpn23eRYGw2IL1sXIAgeQkLv1ZqMHcIw7j+DMT9sPPbOWYfTG/b7ZejUtoRU2hLmbsGxCatdxkU1E9I10tDabAnGRu/PsQCiyU3ZmQjKS8sxv3csot7q4/PipHRYWvBV6wOElXaiNIt2YRj5Rg/EvNsPc34YjU30u6DtYttRrxELagnnN9OWsAcnZ29Gyhjtl1A7z6EN2BP8AQPDcnm64xNWoyS7wJlKHiKxtsgVpegSXFVZhWvH0rCw30REvtnb/Sa1ajD8TwHi66hW1cWwy6v5f2XorB0ZmfblKKyPXqBsFxe2HMHZ+F04MW091DAkXZqpKTTzHAd/G2uwwx8fvxq3d5xCWW5Rg+7rIdLOG52MFgkIY27pMnzl6DnM+WmMS9XuYL3kuQsQ0Y0CBFVJVsKTk9ehprLa+HiP42DbIMwgaOhcd0do5OTx3l8XqDUTBAg+rCYVEY+UmOXI2J+KiqJSBYaG5rZ4VI4WetLiAaHlzsIqyM5H8tp9qg+uG4NuNI0BxMmJa3Fx2R48OHYF+feyUFVe/7TqUAeElgX3lM+eofMbBcxgv7Gb+3mpc7ch62omqisr8RKtY6Uv3W4a2rcaQBgzmp+Vi0PxOzDps+FuG4UCxLcx1g0iIg4p0Qk4OWkdLsbvReaRNOTeeYzK0nIPFbKhyiGA8OFN3ILsGRcW78KL6/fcWmNb0BiM7YjHrRIQOpMlhcVIWbcfsZ/+oqZgL6wFBK3wBMKJ2DVIW7obGfvOIv9+FqpKqSHou/3fCyBaASCiEpA6eyuepKarJQFZC5pQJfyvRCF2R6sGhJZ1UX4hjq7ahTVDf8P5eYm4teMkCh5kobKs3KPwm/qGEEC0TEBoGxPBkHU5Q62JocDQlLeFrnwtfN8mAKHK6CXchqWmgsCuzAUQLQ8QKTEJuLr6EAqfZLvqh8crw66k287/bQcQQShTAUQLAQRtTmNXIn3LcRRn5aKmpi13IupvGAKI+uXj11UBRIgDIiIOx8aswNU1h1CSnU+VUpWvUxqlX5UnRAMLIAJYMAKI0AQEvR4Jhmtrj6Dwcba7EyFgaLjyCyAalpHPIQQQoQUINTZguLMAABk9SURBVGckOgFpcbtR/CLfY8ja50Jt4wEFEAGsAAKIEAFERBxOTV6PRynXUFla5gaDaAz+V3YBhP8ys71DANG8gGBXgs5uT8/dVE5utgUlF3yWgADCZ1E1HFAA0TyAYFfi1NQNuJ90ERXFpW4bQ8MlJiEakoAAoiEJ+XFdABF8QHBm5YOUy6gqK1clJd0IPyqsD0EFED4IydcgAoggAKJ2FasTsauRuee8aAy+Vs5GhhNANFJwVrcJIJwHROqcbci/9ywg3x61KkP5z1MCAghPeTTprKy4DLGfDEVE7TJwxunVoXbcoqZ7c6hyyS5k37iP6qqqJpWR3OyfBAQQ/smr3tDs/xZm52P/4i2Y1GWYe6p5qMGhRawHwa5EVAIuxu1Bzu2Hbo1BbAz1VsGAXxRABFykrgiL84twMH47xn4wKCRBEbIaBFfv4pTruVvx/FKm+DA4VD99jVYA4auk/AzHNx1/+Vk52PnbOozpNLDBdTODqWmEGiD0lOvz87Yj5yY1Bvul/fwsCgneBAkIIJogPH9uraqoxK2zV7F44JSQ0ChCCRDHOLNy6zEUv8gTjcGfShWEsAKIIAjZ+Aga2dL2n8acHmMR2bF3s8GiuQFBjeHEhDW4vfMUSg1Lx4uNwVhbmv9YABHkMlBdDwBVlZW4dPgs5vYchwiCon2voMKiuQBBMFBjuLbuCMryioMsfXmcvxIQQPgrsQCF1zaK6upqnNp6FFO/HIWIjnVfynLaHtEcgDg2ZiXSNyWjRM2sDJAgJRpHJSCAcFS8vkWuYFHzEs/vP8G6MYsR/U4/x7WJYAGCGgO/J/Lw+BXUiA+DbxUihEIJIEKkMHTfm/sXD59hZfhcRL/T17Guh9OAIBjOztyCJ+duuedJhIioJRl+SEAA4YewghHUCIoHNzKxNmYRRr83IOBDpE4C4vTUDXh64TaqyiuDITJ5hoMSEEA4KNymRO0GBYCnGY+weNAURL/dL2CgCCQg1MpNUfE4PX2j+gpZZVlFU7Iu94aQBAQQIVQY9SWl5mUN7l+9g6WDpyHyrT5NBkUgAMFuBD+Ldzx2DR6fTQd9PbhpuNWXH7nWMiQggGgZ5eRudGx8pYXFOL7xIMZ+OLjRoGgyIKIScClhH/Izs8APKMvWOiUggGhh5Wp8Oxe8yMPBuERM/PRXv0HRaEBEcWblbhQ+fK4+TceF4xv6ZmkLE7Ek1yABAYRBGC31sDC3AIfit2P8R0PUN0h98aHwFxApMctxMW4vcm7JzMqWWk8ak24BRGOkFqL35Dx5gW3TV2Hcf4Y06EfhCyCUjSE6Hpfi9yEv8yleyheoQrTknUuWAMI52QY9ZnY/+CvMzsPueRsRVY/DVX2AIBg4MnF+/nbkXH/ktn8EPUPywGaXgACi2YvAuQRUlJbhwv7T+K17jJfDlRUgCAZ+gere4TSUF5W6wWC0eziXWok5FCUggAjFUglwmirKynH5aCrm9Zrg7noYAUEwqJmVu0+jxDCzMsDJkOhaoAQEEC2w0PxNstYAONX8xObDmPFtpALFnqHzcWLiWtzZexZleUXyPQl/BdsGwgsg2kAh6yxqUFSUVeB04lFcXHMIlcUl7q6EDid7kYCWgABCS0L2IgGRgJcEBBBeIpE/RAIiAS0BAYSWhOxFAiIBLwkIILxEIn+IBEQCWgJ+A4KGruqqatufNoTpB8i+9UmAZcxl6StKy5H7LBvP7j1G9uMslBWVqHrR1uvAnbQb2L1wE/Ys8vwdiE+0/DIY5eXxq6kJGcOx34B48TALkW/2Visyc1Vmj99bffD8wdPW1yIkR24JFOTkY8vU5Rj9Xn+3T4Vx7gfrxuyfxiDzyq2QqeTuxAfpIGntXox6o6eaQEd/E/0b+5/BqKyoWyujtKgEc8PGY2a3aEz7OqL2F47JX44MGbd2vwFxbMMB25mDo9r1xJ6Fm4JUDPKYYErg5Usgdc9xjP2g9gNA9azCzQZBUGyMjfNoEMFMr92zqiqr8OTOQ1w7cRHXT10CV+2qqQ7sdHUNCCM4eWwGRHFeIaK4rGAHzxXNo9/uq2bK2uUhmP/7BQgKctYPMQi3qRzhHcIw8/tocbgJZgkG4VlUf08lHvWqyOaKbT7nC2Pd2MXgyt2hsOW/yMUifrioYy+MfL2H+o37aEjAIeYrIAqy81yfPGgtgMjLymlwOnHUW33UoquhUCEkDYGRwMObmeBbzQwAX84JidPbkwKTkCbEQsgtHTLNS/uN/fSXgAPMd0Dkty5A0PuO6mN9FSO8XU8cXrmr0UXJguQKRdRWuOe5eeN/LxsIY75Hn6t7jc8wPMfqWfo+J/aufHjnt6npcOeReauuUf3ZxsbJ+1xao3e5sy6M//hntQL3ogGTVbfCqn5M+GQoKsrr+t5WsuRz3OVuKBOrsPX9p/LOuqHrR21cLx5lgS8vc93lV9i9a5j3E1S8yjirZWpdN3lnztMXuJ16DbfPef4yLqSjpqZOm6JGM6qDt1z96WJ45demzXjnyLd/fO5iUOAzukV5CdgscFaQSV2HWzZsJok2jDk/jcOcHnU/GmpynjzHvWt3wIoW815/VZhRb/XFvF7jcePUZRUfhfEw/S6WDZ2BsR8Oqg3TB9O+CsehhB31VsLK8gpcPHIGcb/OxJQvRoBxs8LoX2znX7Gw/yQcXb0bVP3M2+3z1z3SbEy/3fGCPhMt5cDJU6m7j6m8soHpNHA/scswlcYH1+9a3st03Tp3zTIt969loCivEJunJGBi51/c8bLvGz9sFp5kPLCN05xffZ51/4llmbOclwyZhqqqugr/5M4DRL/r/U2PUe3CcGZnso7SY89y3zFnvYIQ79Wy4LdBZn4XhYMJiaBhtKGN2i1X15rfJxZjPhjojofxxbzTD5O7jvB4uU3s/CumdB2BeWETVNSPbt2zlOn1kxdRWlSKHbPXYvLnw9zxjvlgkMp/ztPnXitqpe49jtk/jvWKb/HAqeqLalumrVDXZnUf7ZEmY1sy1qnsx8+9sk93+aNrdqv24ZHft/uqjzCtiV6Ae1fv+F3e5gf5DAh+q8GYAR5P+zYCo98f4PU/+3hlJaXmZ6nz3fM3egmFBq20Q6eU8M1vIHXesReS1+7FvSt3EPV2X6/7GYaay7zeE1BeWub1XDaoqV+NUveZ4zfmideoEhM+bMDGV8uV5PNezzXea3Uc824/jwLi0mxsRKqytnNZt73ua1/7da2OvbFi1BxLWF1OSvVKC9N+bt9xBcvwdt5vJV5nA3yW+dhLPvX9QW3QSmaUEyugeVs3bolXeN6/dOh0j6C0S+ycux4x7/ZXZWf1DP7H57ABJK/ba9kV4EvjwLJtqh4yrFU8Rhnz+rRvwlFeUobK8krwxcEt89JNr3sZ9timA5j94xiVRmM8POZ1rgt678ptj7w11MUgWBtKp34Wwz3LfOSOnwp1+unLmPLlSCUb63hcdYsjjNtmrEK5TVt0R1rPgc+AOLR8h0qQO+HteuJgwnbVKPV/es9Ep5+5YvlYK0DwPoLGOrMuC2/kW30x7j/1L9JKSOxfutXjublPX1iCR6fVas90ULgc49dbIABx9+JNjOlUOwpgMkxZpqMdK3ME8gzpYHrsADH+vz/XK0Pma0G/iUr91vmqb8/Gx2+H0vhsTh+Ne1xvwryxQZkBRaj/9sNoNyzpQ7Fv8RbLRmd+jj5n4988ZbnyszA+8+bpK7Z5pqypQeg49J5yOLPDU6OxAwQ1vPrqJeOkYd5oiHUKEITD2d3HbLtyOn/GPeW29OdpKCu2fmEbZWl17DMg5oSN8xA0H/z07iMc33TQS4AU6OqYhVbPgx0gjJlq7DGfyzF4vbGCxw//zSt9jJ9AYsFO+zrcEiCM62B8oo4KV1MuqOXmueS8/rHyUfuxqkD8j5oI08AtNysb4z4a7CFDpoPh+BYd+8EgFZf5I768zi+BG5d7swKEW2a1NiKrNDEMG2tpYYk7X/Ud8O1KI547bgPUZnWPcefNGMeDG3eRsmE/Lh4+o7pCj27ew7PMJyCotSw4IsL6YxUvG7WlVlorK8atNzrszfiO3V4TwDr2womth8FuR+aV2yoPZnmwLIzaphUg3OlrQKbUmPOf5+pkwQlAUHaZl2/ZAo91iLJjWtzpri0vvjip2Wn5uxPqw4FPgKCg1WfgDBWEfbjKiko8yXhk2UC4LmJZifcbxhYQHXuBnmYH4rapSmzOJM/5JlvQd6JSmyZ8PNTyubE0OulG+SzHS2CMY3SngSg09GtJZXMF4vMW9Il1i7CksFjZP2gD0T/2W/lBG6t7eX/aodPutKyKWuAVjvdFv9tfaSp8A53dmewVxpXvXnh8+747LXaAYHxLBk9V2tu6sd6qPuMa9UYP0GDny8a3Du1BvM/8m9erTja+xKXD0EbCLoM5PqZ9Qd9YNeRYWlyKuF9mWsqC3Tb6MnCj56aVhkB4UUvR9YBAMpcRzx/dvqeTZdnFYBoZTtvBNk9d7hUPw4x8/SdVJ3RkDQEi/ewVnNt3AikbD6jyMMsi8s0+OLf3hArDcKVFxSovtAFa5YOG1uxHWcoGt2POOtDmY46T4CAs/d18AgQbtZH4TOTexZvVsxTFLYyXVDPTDp72So8VIBgfh6D0xm6CWRDM8MQuv7oLnXHTW80sCKq++m3LCsJFUgiy4oIi5eWZeekWOGxXlFuIrPtPlaMM33bmeHhO6/3Ll3ZONC+Ruvu4ZTp57+UjqSo7TEPWvSdeoGIYkn3L1BXucAxLrcacFspi0YAp7rzbAWLcxz+DBlBufDua4+E5ZUaw+bJR04i0GN5kepaHz/ElCq8w239b49UFYbrYKLLu1dlHXjzOsizf8A69cPVYmoqXLyArgLEhsV7qzcq5j3kwQtdOg4h5fwBKCopUVBwRovZolit9Km6mXtWPa1CD0AHZdRz575+84nONYniOrdCV3apNEPh0YOPG+sPyZ1fcnEbeSwMuw/izNQgIVWm/8yQXK/btc9dRVVWlCoLUMieezlS0nJs3O0CsjJjnDpqy/oAHkJhZxs8RDr3RE47CMQvCCAgdlnt6rREqG2OXKeu46p/WVn7tFmuOqz5AUN2z9A1oH6aWoOczdWHQwGYFM/53KemcMZlYP2GpV56YrnEfD3E3fjtAqIZR65REKJrzw3O/AME3tIWnH7tB83s3ToOY3WOsZbrYrdBwo0DY+Ed38jaAsx4QMkq+NS8R9+sMr7rHfNKjl92bi4fPYvzHQ7yc+3ztYnBUqbKy7oth7KKZ5eoMIDxfTFwy0NzGmA4++/l9z+kNdqONhKmukx6Vrp6TBgFRVVmp6G4UChPKISKODPDHfqpV4qnKa/rqNPgCCBLfqLHw2Yyf1l+9XTuR5hMgODx7YvMhTPjvUBXeKp3GvBmP7QCR9zxXaTPGsDqNq6MXKoOVsSBoXCNUzeEJOILGuO1dvMUrnI6bvvvcbAHxXZTbWBYIQLDB0khnTjfPadm3ehfx83tFuQUoKShGWVGpavTsEmi/FgLcKr4xnQZ5xKee/V/vZ7P8FvSb5BYZu7+M01yurD98O7MBma/x+Se2HHbHwQM7DWLSZ8PU0CTDsEybCxAHErZb5oMaldH+wXQuHjzVUsZMu7FeegjA5qRBQHA83krAVoVs/o+FQ/XduAUVEC9fqopgtqozncwT+68TPxuG+b3rFnM15sEKEJxswwpqlgnPqdoZ34I635smxVuq1QTEPRMgOAvQmAZ9zAofbECwHz/zu2ivFbGZJvZ7CSHzlnbojGpEbLT84hd9VGgTWD5yNqpralRj1nky7ulXYNw4zs9RGWMYHlPO9C/RGys8+9Y0CJvDWp3zS+n0aeC3To2NJdQBsXP+Bq86p+ShAJGjxaH2iwZNsZQFfX9099vjhnpOGgTEyvB5lgmzEr75PxbmksF1b32mI5iA4FCr0kQsvD8Pr9iljDqsJHR2Maed52ZAsEtFZyozHBiW4+FWDi3M89E1e2y7GJwwZNyWj5pjmRa+yfVXs4OlQei0W+WXcOOwrXlbFTnfSz68nw5q3GZ197axUH7sYhiBQxhafdeDce2Yu07FxbKjYxvv12nkG5Vd0Y0T47B8+Bz12xC7TBn8OOqmPEst+uGhDojLR8+588j86t/IN3ogx+RIRT8bfd24JxyNUDSXndV5vYCgoYteeMaH+HvM4ZeC7DpPuGACgrMJdcUxpptdH1YUvfENZBXOCAgKlpXOKhw1EbrV2m1cLyGiY28vORJe+5fV+W2wOzT9mwivcHwmvUf1NzCDCQgax4yy08dM0/RvI91QZNpT9xyzzCfDak1y+29rLbUpqr9GvxM2Ziu7DZ+fftrlY3M79bpXedCImJeVrboFTJN5s2sgoQQI1iejXwXzwFEKK38UaunGlwxHnqy0KZbBooGTAwsIGiIZsa4Uer/05+lYOnSGx29ur/GWYVnIZ3emuMspmIBYZNMXozqrrdzUCjZNTrBMuxEQhIjOv3FP28L+ZdsUBPNf5MH8YyVlpaSDklmWPNdDchQQvRytrOQMR29QvQUTEEw7PQ/NaacM+B/f/OzzWo2+KDm176VsVNrngK7bdnnk8KCG4MF46z43G095qWukhvYac7p0mmI/Gaq6OJM/Gw4aRmm/ona2eXKCcvfnqJbRhtIsgMjKUTYSY33Sx0zn0VW7wQEA2llYDnQtsMrvmphFqKn9LOLVYxe8wuiyYr3xd6tXg+AQnDFBPKZjkdVGvwL6z+sM6j3vWTywbogumIDYNMm64Ud0CMOqqPk4FL9Djb0b86jTzb0GBB2GzL78OhzvpUbChmL+cby/uNA1RHb30k3LMXvevypynvIA5TCuOS08n/T5cI9x/WACgmXNtKuytZnmr2VhtWf6T2494lFlEmet9son7+VQ5575G7FpYhwi3vTWuBjX1ukr3XGxm2iWl1UajP8xPF9aND5mpKW742oOQNC3hsOoxvTpY51O+jRoV2u7KfcMyxHDXXPXqzpolgnPFw6YbDv50S0EiwNbQNBINOHToR6Jp7EvceYqi2hcf/32o/XkE+OchGACIv3MZYyy0IB0ITS0n/5thFL16Lc/xkcjmEecHXt5jOIc23jQJU8fGxoLlpDhoibGLdiA4LNPbU+y9Rr1yLOhf8z0s0Eb1Xoec2YnnaLs7rP6n3FRC+MoiY6PsybHfOi767o5Xg77cYU0bs0BCGowVpqlMZ3MNwHBPPNn/9Krs0uY75/8xQivkQ5jfarv2BYQV1LOe/UBo97uAzqw2G3J6/Z5DU8ysczko3SXc04wAcECoM+9UWDmY7pKn9x6GISY+Rr7coRDIAChChicjZqpDJqUifl55vOVEXPBt4x5CzYgjA1y8YDJDb61mTdqXHcu3FBdBn2/MR/sY2+YsMzSZmGWw+j3B6rRKLNNoSi/CKtjvD1UzffbnTOd7C5zaw5A8LmcOTzlS9dEQqt0Mo1ag1B16OVLXEk+h/Ef1z8vScfFCXFG46+xDHw5tgUEJ2JRIzD+OK9B9xHNkTPxNDLN+sHzHn1/cq0PPSHCiTv6f7X/YTS2z17rjvLcvpNKvfcI8+No1X/Ugbgw6MzuMZ7x/DhaqVK6QmqBph08hTk9x6khNvZhCQX25+ic9fDGXdUXjf91lldcjJ99Zg5dzu870eu6OX1e5z+NUW6yOs06XUV5BTi28QDmho0D10rg8BMLlF2VKV1HqvUVOHXb3CB0PDfPXrFMC2d/cmiSG/1XfvtxjFc42jxoNG3sxobNhk+VdvLnw1Wa6cZLwMZ+8gvmhY1Xfifa5qDzbPU8XqPbOqc/T/863GVc6+iaL8Jh0lnfR6t5HXq6tzEuGuNo0PUYwu7YS7m+71m0WWkuKyPnqSHReWHjVNdYNxrjXjmglVfg0c1M73r542gFEMqSG5/PemQuZ9pfMq/WuTHTdZ9yNodb0H+S5epVpYXF2L1woxrhYTeTfkWxHCL+OkI5pHEej960DGhDoe2Lzxn/0RA1tMx6zZcazQC0Ydy93PR1QW0Bwcrp9bN1O3Yln4n3uscQD0PV2IapMxnVF49RUHbP0kJkWH1MIw6dd+hUwp95dptagMaQVmPc9aXHGM7qWD9fp9u45zUO5+U/z0Pesxy1loPRj8Lu3vrSo+/xJYwxLb4e6/gZnqta0ymKRjTaoJgX43Vf42Q4dh2K8wtVXAUv8lRZmS35xvg4V4FDfMbGTmc4u43OWtR+jOF5TBBR5r7Iy5cwfD59DazqAv+rTz6EO5dJ4PoTrJ++vPkpI9Zryoz1uji/SMnSTg7+/m8LCH8jkvAigWBKgAZK5eNisHnQyJmyfr/SZAkrNjauhcDG9vj2A2WYNAKC6js1HtnsJSCAsJeNXAlRCfAtTJXeyn2djZ7g4CzZsR8NUT8Oa7MrwmsegOgQpqbxh2g2QyJZAoiQKAZJhL8SoC3s2vE0cAarueEbIWB1zPDs62dYeIL6m47WHl4A0dpLuJXmT/flORmQBt8lg6Zg6pcjFTCMI1I03MW810/N66DxbtnQ6Tix5RBKi10T33Q8rVRMTc6WAKLJIpQIQkUCdGijkY7GupzHWch5lIXcJy/UOUFCQ6hs/klAAOGfvCS0SKBNSUAA0aaKWzIrEvBPAgII/+QloUUCbUoC/x/e2/ROilCzCgAAAABJRU5ErkJggg==;" vertex="1" parent="LnSEVfMM8-7d9JJSHnFC-37">
          <mxGeometry x="6.8700000000000045" y="15" width="126.26" height="110" as="geometry" />
        </mxCell>
        <mxCell id="LnSEVfMM8-7d9JJSHnFC-45" value="" style="group" vertex="1" connectable="0" parent="LnSEVfMM8-7d9JJSHnFC-1">
          <mxGeometry x="895" y="690" width="155" height="155" as="geometry" />
        </mxCell>
        <mxCell id="LnSEVfMM8-7d9JJSHnFC-38" value="" style="whiteSpace=wrap;html=1;aspect=fixed;" vertex="1" parent="LnSEVfMM8-7d9JJSHnFC-45">
          <mxGeometry width="155" height="155" as="geometry" />
        </mxCell>
        <mxCell id="LnSEVfMM8-7d9JJSHnFC-44" value="" style="shape=image;imageAspect=0;aspect=fixed;verticalLabelPosition=bottom;verticalAlign=top;image=https://media-exp1.licdn.com/dms/image/C4E0BAQGbojQ8Ho2X0w/company-logo_200_200/0/1559568546026?e=2159024400&amp;v=beta&amp;t=8DuKm1LmFhWHZ6Z4jxAq_ffvliBGgXUYSyTJina9QUY;" vertex="1" parent="LnSEVfMM8-7d9JJSHnFC-45">
          <mxGeometry x="17.5" y="17.5" width="120" height="120" as="geometry" />
        </mxCell>
        <mxCell id="LnSEVfMM8-7d9JJSHnFC-47" style="edgeStyle=orthogonalEdgeStyle;rounded=0;orthogonalLoop=1;jettySize=auto;html=1;entryX=1.007;entryY=0.679;entryDx=0;entryDy=0;entryPerimeter=0;" edge="1" parent="LnSEVfMM8-7d9JJSHnFC-1" target="LnSEVfMM8-7d9JJSHnFC-25">
          <mxGeometry relative="1" as="geometry">
            <mxPoint x="960" y="845" as="sourcePoint" />
            <mxPoint x="680" y="875" as="targetPoint" />
            <Array as="points">
              <mxPoint x="960" y="860" />
              <mxPoint x="710" y="860" />
              <mxPoint x="710" y="805" />
            </Array>
          </mxGeometry>
        </mxCell>
        <mxCell id="LnSEVfMM8-7d9JJSHnFC-59" style="edgeStyle=orthogonalEdgeStyle;rounded=0;orthogonalLoop=1;jettySize=auto;html=1;" edge="1" parent="LnSEVfMM8-7d9JJSHnFC-1" source="LnSEVfMM8-7d9JJSHnFC-57" target="LnSEVfMM8-7d9JJSHnFC-2">
          <mxGeometry relative="1" as="geometry">
            <Array as="points">
              <mxPoint x="410" y="80" />
            </Array>
          </mxGeometry>
        </mxCell>
        <mxCell id="LnSEVfMM8-7d9JJSHnFC-60" style="edgeStyle=orthogonalEdgeStyle;rounded=0;orthogonalLoop=1;jettySize=auto;html=1;exitX=1;exitY=0.8;exitDx=0;exitDy=0;exitPerimeter=0;" edge="1" parent="LnSEVfMM8-7d9JJSHnFC-1" source="LnSEVfMM8-7d9JJSHnFC-57" target="LnSEVfMM8-7d9JJSHnFC-9">
          <mxGeometry relative="1" as="geometry" />
        </mxCell>
        <mxCell id="LnSEVfMM8-7d9JJSHnFC-57" value="AWS API Gateway" style="outlineConnect=0;dashed=0;verticalLabelPosition=bottom;verticalAlign=top;align=center;html=1;shape=mxgraph.aws3.api_gateway;fillColor=#D9A741;gradientColor=none;" vertex="1" parent="LnSEVfMM8-7d9JJSHnFC-1">
          <mxGeometry x="643.5" y="10" width="76.5" height="93" as="geometry" />
        </mxCell>
        <mxCell id="LnSEVfMM8-7d9JJSHnFC-74" value="" style="group" vertex="1" connectable="0" parent="LnSEVfMM8-7d9JJSHnFC-1">
          <mxGeometry x="380" y="1151" width="110" height="110" as="geometry" />
        </mxCell>
        <mxCell id="LnSEVfMM8-7d9JJSHnFC-71" value="" style="whiteSpace=wrap;html=1;aspect=fixed;" vertex="1" parent="LnSEVfMM8-7d9JJSHnFC-74">
          <mxGeometry width="110" height="110" as="geometry" />
        </mxCell>
        <mxCell id="LnSEVfMM8-7d9JJSHnFC-72" value="" style="shape=image;imageAspect=0;aspect=fixed;verticalLabelPosition=bottom;verticalAlign=top;image=https://www.dmtispatial.com/wp-content/uploads/2020/02/DMTI-Transition-logo-300x163.png;" vertex="1" parent="LnSEVfMM8-7d9JJSHnFC-74">
          <mxGeometry x="9" y="30" width="92.03" height="50" as="geometry" />
        </mxCell>
        <mxCell id="LnSEVfMM8-7d9JJSHnFC-76" value="" style="shape=image;verticalLabelPosition=bottom;labelBackgroundColor=#ffffff;verticalAlign=top;aspect=fixed;imageAspect=0;image=data:image/png,iVBORw0KGgoAAAANSUhEUgAAAOEAAADhCAMAAAAJbSJIAAABCFBMVEX///////3+/vr8/////v0DO3H8/vwBPHXx//8AGFMDO3AALWubssEAK2fX3uL8/v8ANmumvdFVdpYAAE0ANXDO3OJlhKfx9fb3//8AAEUAOXNzk64AM2s5XooOQm3c5Og5XosAJFkAL2AAJWMAElcAL2kAGlwAAEkAHVa/0t6KoroAAEQANmUAN2FdcIcAJ2AAAFEAc0YAJ1lEaIji7fJ2ka8AFViqusXG2eMfTX8sU31IZ4xxhpcpVHlZfpyas8cAUFQAcTtJjXDT5PIAZie6y9ymx8xah5aRo7LH0tiFmrOfwbx0lJ+ks74YSnA1XHtUZ4BNb5QAEV9jeIx8jqAAADwAADW0y9z3nJQeAAAOzklEQVR4nO2ZC1MiSbbH81EPQJQSC6uEklrFQqARHKkWRNCddnoveNdXy6zf/5vs/2ShYq/dMxs9HXEj7vl1tEBRj/znOXkeiRAMwzAMwzAMwzAMwzAMwzAMwzAMwzAMwzAMwzAMwzAMwzAMwzAMwzAMwzAMwzAMwzAMwzAMwzAMwzAMwzAMwzB/Ast6fsU7Kay/9uZfPeRnIL97b8uRysFfR5YcSzpKCCWF/vbNtGU5/3lD3OUb19C0SVwi5X836j8Npk59V6GytCOlzE6SYdq5Dr+tj0wi6d/bW9LgJbS/KwKTZkklS/p7t/0BpCp9986wmqVkuDHqlKfTi8vc33/99ZN2vm1ErYJOrXal3oiRwWWt9lnL9+xkqbBWq43+Yt9fvb/6gxWgHRW2O3uNxK/60eHo119++ZTq92cFnuaUVDxea26+UWiJoNxodrR+11Od3FbSLAr1IzK+h2MNK++sG4O0zKD04CzyokY+n280r36DQi2wMlex4MNSwX5YoSre9fqbFs5ZmgwertOyl8y0dJ6tqHGJJN9H3FK5fCEpCiyGbBjyeXbwxrx/PrDi5AgNz5NlFsTLJS9uYu5smbGJ/HawPEHKt85lYZzC2Tzybe9sMsKwRo/19qdPn6dt8ZVCWSoJLLPwH//zDxH/zVvfpIirzQQKyIINoTDENGCxGZd5MSbWbC5vrxWFxsMhkk6QSin8N56CmRK6JC1yNVkyTqCMPMvo0bigJEiWRTGOVrVl1j0WEsBdcXBrO9BaaTpXlsSqtyAqKjGLvII3HuEujpZiPr3+6Pn9uXi7zqAC58r//e2X30LYcH0TUwfFZCWaTA2Fax1NQcsYwkiA/1v0d6mwpChYQxHsQ5Zw6EVTiEMcJ1Nh6PhPi5mGgrd4gVqEYcwB5hfrTWucqnAYWjAcTK5FgQwKJc0CuZljvR26EsMTt1Doz6UKzexZ7ZbvFqr1+YrP4Dbm7kL889dffssZG5oJfvY1JY1CYzo8pQQn12TIENfpF4Xk4ca4MDTmhz6QBZVQmVcDy3wWJcfkKzpiXh0823itsT/5pYkvZsA0rMNtcgZMqs5WyIpEKeJpteAmN0KF6W2re4WnFZNCwfbv0mc/o6HKtHNymm/Vrj59+qfIbFiSztVFPn/aLaaZwqSY3uZP9zqBcuD9aaeLL48uA/msUFSOKs588GGndRnQehFprbWzc7sZKvE4iDPflaOjUVi7FcHTyc6HWqqctLaz022HpNVpDz4cHl6ksL2YDuKwPTjc2R8FMr69269Pp3exlV7ghgOcvRJ2VPCY2LZdGCKk3ye2N96wxLzu2ra7fi2yNGepkqPSQaNajapJfzMNlwodUawntuvajd0KeWnkX0x913X7ZTJDZdqvVn3b7vcC+aLw8GqRv7gslg8mAXzr8zTfKV4+HNeE1f5yQ+4FD7zoxsF2NxzsXXfKrYuweHTe6dS9ucJXs/zuZfHypP6ktDiqV2r5C3wVPcm0dr22+7FWC67GJzhhN7/QLzaEh8d9yPHGFSkrMGZh/UY4wUPkFly7hQWRhSq4113i9qcXXd+rV4TMvFRXEs/t5/O+nfRCmZYj11/Pt5qe25gJFXfX/Fa93I3cxqV4Udg894aBA384mEknd3LWRvANFltDIXawkBQZ57DjBNtHd5NKqHO3/uN+MRA6/XIRaNnemqSY8vbREfzsqH43HQUiTPPlIBeEh9tpEIjp3pC8rfZh8eKmWAzdasFGnJkLfbXruW50g6qm7Nuu7fqPzzFJq/TURbgXubKfzBxpbKj0vV84GQrdS7r4DtmiOsVCzN353tnc0sPxoIJLy757+KJwo+GNKFbg5C0kqcc2nq/E6KwndO2ggjikRLsxlME2zRH0Vhr7I0Gn7J/FKhycI1RjMQ4buNVRdCcoHItpc0OZWIrEd/gR04RPM/jDi5PmmjYUFuwh7jTJR/1pqnVlTKpdfxCopaXlU8NuUYocRtFDKq+Ml87HyA94DPlnLaB12AnxyErfhiNYIo7xNLGICq1XGx7UaOQ4qXgwQuwPHQfxMN3tCdU+QDZBeLm/S1W6faopX6iNgw5iDu4yKGyIeRUPw/mKzhdH3ZiShRTbpxVpFOK0w0GKMOsgLL3mfwtRBauQ8jEu3RxcxjjxJoIFwVlbZaFSiac1O485EEPP301VpvDmpNDaoJK3mLheDIXrReQmhBw/+hgok3h1eu4V9l5tiBEjBWCCh8lEZ/k6fCoXenD8epcWYrp7j9CwnUd2Qqys4HyH4mN5vyJujkMT1KV4JIX1WJqCo3aAyEEKYd36+oDileOsVk89v+AWoKcxRHQ3QVOMxh6WJg6uz8RzDXLVtPvtUAaLBKO3MoXFtQImEmfcJO7JBmWLItKAKF1H1d1Y6XBU2z9tIPSsKPzSyYKXmEOVcoK41j2uD2woFMWdFBYpHlxJbRQitYqNLeQkcszyfiw6DRS3iCe12tk9RZrYeNerQuTOYJDkL9qpyTcvVTAppMgZHYWSHBsPH0QwqwuJSCFmOIilYhpV653iRR/L0VJZLC0mnnmMuNl3+y8Kte4k1XFsjWqnSdLqFrqrCjHi7MG09tTVpBFd38xHY1I4jOCEwcdTlCWkEIlRLRXSao42dKdx/XFJ8VkhEu+rQkTbdPhw8GVwk1LJ+VyLk0KIiQYjIZ6e2u3Z4y3yPcwKkVCYLVZUD5UHr7q2lkRrdykU/i2z4atCY8N1o1AYhSmmpHWxEd979nsK21CY3m51YsxrhRTq4PwBBe/JRyGXCuWqwv1Yd47DEuGUqBxYKhQrCsnXRDqqHTSmFHPFq0KKKvW5dIr5ZrOx5lfhoViHOEw2WXqpaO/643F9OliQiEzhzV6hv0EFBbzU2BCVN+JD8DHxt8OLpHo2p/tH9tt1mBUlQ68n7r05PNDSRqEjFvZQPh1WXhTqtwrF7EtKVZRpNZ1vKNRUA+WuvXtcnDWwVqbQ9nsYW+Vm++G83u33vQL5Lby0uLQ0En4r6lbmcyQpqgkzLx12C402iqbwer96HiwVCpUixHbEnhs9UiPSi9546aXlmFrtplmMIQwfHLlUmO4Uxd05FuNSoXir0Lppzqj0xwNRLbxRKLLKGxW5o1Ddq/BhPHrtF6EQcaY6raBq00GQbmxsPN0mCKQFZH+kvkyhnq25J1fLFKq0UWgF51H3FvGp0kVMcgLKhynOn8Bnb8RpAekU621sr8TSSnOaFay6cxgO3QnqZoS9ebdHtbhoDXLHiJ3f8FJUlz1qQjBBi0X4VqE0NlRqFCKEI1H0Cu3nlI9I36eazU4enrI4Y+qY2ToVY25h+JxTdBFps4X2cX96GS9tKPWs4Ub1zvapTWU6FLrRQe1y2rX9h0Dsu97ZZvyxVX2jsBENAop088OyiMf3ISzoDBtrPZORNlvlAkoFNGLveakWi7Ub5AehN5OFeOulprdQcvg7Mj6Gn55PU/WcMvBsiiuFaDp7KWAQk/Yp1HiD1JTq1NKEs3GVVNtevz7M+kO4yqCPmj1yu6dDLdKpd3bu+0nV9U7n6MgaBXe9kST1gvuS8a3KaW18PwzS4RhDEI+FThDOO8cPZz3TAm/sJ2UU4ZZRKI2XHi8jUzmKtcrV67NKGM/q56ZqizMTkQ216J61wzhX29oepnr+eDwUK0mx5XZdO7pHI5FOemBCzXKNKmr/XpvOxOwuLuoRas5mc8329sXV2enWJdVyi/x6lDRaQ+E4Gw1UFHfNxG8coZJT4eRwvd/c61xvNX9H5fR785gUHj/F09Pz3b2jNsJ5mm/cnXsfntK7e9rEQqmwvhBU8ATl32kdSqvyr07WoA3yG+giR+fH4/MxmgsY/MPJsw3/hZJabW6dnd/G4eywcXdvH17SjGlruarivULBbVzhTT2JfBjhAxrMzXUE2KbOdjIkgslgLRoYAw/7bjPn5HI5TYtahMXJAuUzAgUdQ425mIxMjtYi3NxMcQGdqulvTlkVzItIZ4sRzRpVpJPFCC+5nNnqQz5IBSV63IqGh+IEbyhEOmHOMQYLZ5Mi1UKOwjVZd4k3GIiuTCZPcAAMAONZbQ9hhwuUHa2UGjzqMqI9CogDuCRNaFa/Otb8zO6PqBYWYd7N56g3p7oBi4Y2FLBmLOq7pWVWsWmc0QmhgqBOn8Klg44Nn6kKo61WSWWjRWKoa6Vak/rd9LyO1EsrjbYGqMKivQzatqB23uxpkChlQTpVn8ZGiI/oSKhxxnkOXW36fLHK6KxqN67wVPS4Bye1ERKCyCO8jtOsicYDodDzUPJp3e5F1T3aCLCo67aobYciejgVvGZfOeu9TcOuTPoC5oPKFJZM4UMDojKTdmfoErhV/GHzeWcpm1lptgmznSiVjcQ81OyJiWXNbGKjMpOlS6aJtt5s5dIQEE79u0As9eAleIwKbreN4S8PSbFo2FETsbTvJ7dtPMJ52RGGscx9yIkc6giylYNpgS2lU6K9KbFMvpVjU2c6WbIi3Zp+RcBqR56KD1EuOW/mf2XXbJm2zG8O5CVLTzR70xQnpGOcAYmIpn51n4bsf31SjR4/i+VAxecLVN7NOWUOlY2EukqvtZ4kCB7lETU5lvmBI3u2zh5FO/di9dcAaTbypNnTF8aNoNDCCErLa8mj6UtM6qy8uzOtwCeyQYn3eX3oyg5w1i7QNbpkvvh6TxqjCmcnkV/oLYpPo/Zs0qtHbrI/FFo8l3aYGB3GlctardOuBK/t8+qL9XrgnZEt/8aD9srpr98q2a7VnlLx9dj+MlCv3nX3fX+t30ddGlUTb0IdyMoosD6wVCz6p35gGFRTvrPtTwuJ9hTlT9sUhyOFw+3Wuo9qtJo0vMWQ9m6/GgntYiKYOM779/hTINaiOfiPo8hd9NPQD03eH+BQS7DxVNvf27vtPMUBRWT99ocA+gWONmB/ROCbXfuVg2ah6j/6DfAHWZ2/7/yM86OzTLsc7x3/xuGfgGX9tJ/A/o/wM3+HZhiGYRiGYRiGYRiGYRiGYRiGYRiGYRiGYRiGYRiGYRiGYRiGYRiGYRiGYRiGYRiGYRiGYRiGYRiGYRiGYf7/8G8QoGcGmlO5jwAAAABJRU5ErkJggg==;imageBorder=#000000;" vertex="1" parent="LnSEVfMM8-7d9JJSHnFC-1">
          <mxGeometry x="530" y="880" width="110" height="110" as="geometry" />
        </mxCell>
        <mxCell id="LnSEVfMM8-7d9JJSHnFC-77" value="" style="group" vertex="1" connectable="0" parent="LnSEVfMM8-7d9JJSHnFC-1">
          <mxGeometry x="540" y="1030" width="110" height="110" as="geometry" />
        </mxCell>
        <mxCell id="LnSEVfMM8-7d9JJSHnFC-55" value="" style="whiteSpace=wrap;html=1;aspect=fixed;" vertex="1" parent="LnSEVfMM8-7d9JJSHnFC-77">
          <mxGeometry width="110" height="110" as="geometry" />
        </mxCell>
        <mxCell id="LnSEVfMM8-7d9JJSHnFC-56" value="" style="shape=image;imageAspect=0;aspect=fixed;verticalLabelPosition=bottom;verticalAlign=top;image=https://www.realtor.com/welcome/listhub-widget/images/logo.png;" vertex="1" parent="LnSEVfMM8-7d9JJSHnFC-77">
          <mxGeometry x="14.460000000000036" y="40" width="81.08" height="30" as="geometry" />
        </mxCell>
        <mxCell id="LnSEVfMM8-7d9JJSHnFC-78" value="" style="group" vertex="1" connectable="0" parent="LnSEVfMM8-7d9JJSHnFC-1">
          <mxGeometry x="540" y="1151" width="110" height="110" as="geometry" />
        </mxCell>
        <mxCell id="LnSEVfMM8-7d9JJSHnFC-73" value="" style="whiteSpace=wrap;html=1;aspect=fixed;" vertex="1" parent="LnSEVfMM8-7d9JJSHnFC-78">
          <mxGeometry width="110" height="110" as="geometry" />
        </mxCell>
        <mxCell id="LnSEVfMM8-7d9JJSHnFC-75" value="" style="shape=image;imageAspect=0;aspect=fixed;verticalLabelPosition=bottom;verticalAlign=top;image=https://encrypted-tbn0.gstatic.com/images?q=tbn:ANd9GcRl0IKCfo-EVff-Ia-u-O5Wb6-5WY2rQ7LQ1A&amp;usqp=CAU;" vertex="1" parent="LnSEVfMM8-7d9JJSHnFC-78">
          <mxGeometry x="7.470000000000027" y="25" width="95.06" height="60" as="geometry" />
        </mxCell>
        <mxCell id="LnSEVfMM8-7d9JJSHnFC-79" value="" style="group" vertex="1" connectable="0" parent="LnSEVfMM8-7d9JJSHnFC-1">
          <mxGeometry x="380" y="1030" width="110" height="110" as="geometry" />
        </mxCell>
        <mxCell id="LnSEVfMM8-7d9JJSHnFC-51" value="" style="whiteSpace=wrap;html=1;aspect=fixed;" vertex="1" parent="LnSEVfMM8-7d9JJSHnFC-79">
          <mxGeometry width="110" height="110" as="geometry" />
        </mxCell>
        <mxCell id="LnSEVfMM8-7d9JJSHnFC-52" value="" style="shape=image;imageAspect=0;aspect=fixed;verticalLabelPosition=bottom;verticalAlign=top;image=data:image/png,iVBORw0KGgoAAAANSUhEUgAAAQEAAACGCAMAAADq8M8bAAAApVBMVEX///8AAAAxYK2fHTDXIikQEBBQUFCQkJAwMDDv7+9gYGBAQECAgIBwcHDAwMCwsLDPz8+goKDf398gICD5+fnp7vb15+lOdrlwkcatPU2wIC/zvL7YJy71x8jT3e49abJCWJyUJj764eKlKjzrz9PbOkCYmJgUFBRbW1vq6urKysq+vr6IiIg4ODh5eXkpKSlHR0eoqKhpaWlagL2jRVx9hLK1LDoJ8RRlAAAMuElEQVR4nO2caZerNhKGTRKx2gYDySz3TiaTmRi8L7P8/582KlUJBGjDnT735Jj3Q7dtJJAeLSWVyl6tFi1atGjRokWLFi1atGjRokWLFi1atGjRokU2HR6b+40FXFX2fBy+dXG89fO/f/w9bnM4x8FQl32iJjjHY13u6XlbD28zSTTQxvh0vF6+UvKf//7dnz6OoEwDjdhVYbDRpeBp2qN6I30iqdD0/DNeNxKyiAP47sMIEkPtgqDJu0TGNEGoNN1rBOqKcCaGBGYJAB9FsK0shX7Kbm4mELBTd6/XCDxkgmhu2QnAxxDsHaUmBBYCQdAheI3ARSa4zSx7B+AjCK5KCbN1XhySQ7FLm0mxiUDViSkZmRwILxHYalDOBfA6gnX38OasGsC8axdWiA+QAFOSJNt1Na4bvku3ehX6MoQ9gfucsg8AvIpg1z17XY8vYSNLEzUlwFXvZU+gytG9ZpWhVLvJDIM4AvAagkI+uNI0T3kLJjMhGyc6EoInvn2FAN6ZupO/QZwAeAVBfSMAF+0K8BCz3aicEwLSlFf47gUCCTLMcUXmbRA1AF5AQKUPYsNjS6VnmAjUTO2+LxCIcBaqySbt/XJpAcxGcKDCNz6Dz0Rgdceb4Cz+AoGKslBf8DOIBgBzEUhDmLuTWgiQmXyIN/MJ5F0Xeqoo7TICmIdA9l/jan0gIwGypzhjzCeQdWUovItjATALgVyL+hmgT+oDR6XhL57lsQKYg4AWIq1fatc8gFvE2QRaZfDT4sRlEB0A/BHIQbD1S24iQBNYgOuGuQRoNRSpJXIYRCcAbwQnfHjlWVbHeoCWs3MJXAd1pgFlNYgeAHwRUNFTz7IaCBBHaU9mEqibQRloLrQZRC8AnghadQ53S78viAhATB/MJLBX55CVNAw2g1j/2YuAFwKaeQ37tYmmBMp8022iZR2IR6rV9Ka4Kr9078k82QyiJ4Jf/vOTs0qNOoO5RWOUdQoUdb6dwKbJPfNxN6RRYTWIXgh++cf3f3EiCPQD20FAq77XzyOAhpTVk6dYDaIHAg7gezcCfJavKbAQYI/xTT0JFNPqknW0G0QnAgHAjeD3IpCqO+tZBMhFP+jytL6y7xAdCAiAEwE+qvkQAXaPhp6FOQQO+OnQMUZTg2OHaEXQAXAhaPQN4yCQoQjAxLFClYq0GqWlLdVwZyrnQscO0YJAAeBAEGv6oJMAG7ybmi382Gs9QHWtRsZobbjzOLcJwQCAHUHrBbvTkEDS6BpwFoGdPq30m7paxoBgBMCK4DyjtKvJiohWc+MWnHFP6oOTgURbVqfLVItgAsCGgHbmF9P1kcZrQqrAdZjKnwAdk7BsLHmG6FyqaRBoANgQDFycTo0JyIOe4aran4ByTKKX22U6QaAFYEGQalvRpMm+INT1IW8CpabOQ3m4TEcIDADMCKgVGz8P/YSArMOgrbwJPJ0EfOboAQIjADMC/VA2aLo3JFczm64J3QQSpqnySD4eXAWBBYARAa2//DbImpNTsoiqo9GXABkipheVy2eG6hBYARgRkIvgZhwHRQ9H4yGRx65Kd/UkIINGDD5K6pxeZ4iEwAHAhIAMYnA3WJ5D1Y9ynY+ICCqLAk8C5AkxTXaE1m0QQQKBE4AJgdzu3LW9IIEatgMv5pCAJNjPJJ4ECJ0paEa6sf3OEDkCDwAGBLWMk7jpTs9j9ZLWT9iOR6wfAUnOOPrIUsSm66Na/NcHgAFB2Xn6ruPi7OSEhEEkWgLy7DWTH/gRIHDmsxoZ1+B3lvHrb3/1IqBHUHRmiV2Vubd+9AGWWFC9t1yev0tXHw0q/e44irBbl+76Ud/0OtL89bcffvBD8M9/6fIXStDULY3yY3HMz6FirimYTE9ATurNQSVgFGanhYRt0SfNjIdBBAB+CPQAKFjGrHQQTTdxrMrj19SfgFwN2YIH5VzoXq0hAB8EJgC8RNqQWiqy1RqCyF1EXdqHgAxgtK7GpXPeZRAlADcCMwCuk6kbZH0vNBGQk9at9iVAD7OfWWt3HTYALgRWABAVp4usvah7E+PpudzjrD0JyLW4Y56nvmU3iCoAOwIHANCpHW5Wqs0gaHy1C0GahjuEqBY6QWgXZD/jS9eJ7Ymy2ObCIQAbAg8AXPUxet4vXNl9s/c9TvyWGgMwI/AD8IfTFIAJwRsB0CN4KwA6BG8GYIrg7QCMEbwhgCGCtwSgInhTAD2CtwUgEbwxAETgByBHbVeHPOcL+yTPE/lhtzA+hixgodgmlFmG7qAsA8/JLsPlfZShrzWHo88Wv64bZuJovb5n6DRLM9hpbjPpUdtA2meBV7jQN97S/2tmcA3UXgAAgWcPCOQWbCscMoU4P8E9kty7kL9G+MSv0rWDm8E17t3AnyG2sRRg2cC+j6EL5CHjomLh9Mq7qBXc/IETEh1yggyc5Im9UGj0kH356ofgf55DIMtuEBqTjgjceKOcMUUJfpIyv0BribiPkyRXrs5IABjdkADb5lcmTtKIAHj8IiIQ5AMCbZE38BWtWHw9r8CKk1/ITMATwde/+QFYiVaBNhoSUGJtr0qkyC5oqGgcS3DnNY6xck/c70fCA3ASdUYC/IZPDFiLeY6q3ioENvBhC3+kc7mE1E1tJ+CFYAYAhUCYpiERCNfrNc0DoRJvdgmuOXZTPgiC4IEEjvyjTPh8kMBKtCwSSIN7id0mDjYsuKoEbm0svpkRdx6WaxAn6Hi2EfBAMAeAQgDVzQPUD+49AV7Vgo/5tSCQ89bCeaDlvWEv4mEmBBLGq3gRteEtzRPth/OA8EPG4gj1LAZZxOt+cRFwIpgFQCEQ7XZrItBGUUR94NrHTafwveNAdFNOIGl4v45FXCCrGtGISODYj4IIcjDRbaCvX3iOnkC6xv7UjQI+azaQ+ugi4EAwD4BzHuAfVaf6mB1lCKTouTA5PNCPJ7+6zI0FJ1Aco6afCaX78Yr1FG7VjsCmroQF4OOj5Oq/g54CgawoCvNPgdgQzASgJ5ClaSoPr+VZ/+GMkV+i2GJ6zIAAr0aLt8mlNRQ/SAAETjgFhNBtREtvBgTAiHTzQAAPhxDlFMwnxuhYjhTMCOYC0BMQbSpTPMC/HZ9WMRM988xYuWIsh1NHlq1yJipcV/zqno/n5nIVTVfxMd4yYSRzSJ3BSE9uTLqbQ8Y7xoXdan5FaLVhYs1xZCInyOYrNyGYDWBV7nbw3MNux0Ek4u9jB1KiJQ+W/vjNpEcwH8AfWDoEbwVAh+DNAEwRvB2AMYI3BDBE8JYAVASvAkiExNH3MYefGUtIdLXuE/HPaiW5mqDLDcePufy1suLx6NwsyelxqpUM9L/uniYvlPnjqN67TuwxBBLByz0gkBuzI6xg2a4LiQAEO1yWJaofZXDyXcrvCYnczU6+gLUdRiXEojq1OHyHNRFurGDLJGKyZYh5SRdK8Xi4EdwbYp5TVzQRInh9CGBo6xkWu01Y8UVsCFGt/CMgcEHPR8LwswwIQPKOwFr6dGTuWryAVSJ8Ixn2UWJfBRW9MYhJIgIRXWjpaUQAYtsaILfHIIonxCe44qkAwQfmANmgJSzKa9FgidwZi7g/DKPo185q8EsN28ONmru/zU1sD3KxeeJ/s8MqOdddH6h4xi72SCz/xYVWvCkq2BqIMJIj30o4I8q+fP3IJBgE5zzPD1Dtao9r344A74Byl9oTeOTCpyr0CJpIxPp0ubsXBUWVbKCTtP23aZDAKWB7+b1KlQDDQfUAjiX8SFHsQ2D15SNWoBvYYl8nfoBJEuC74ZxcQiM/iuwHl+BJic8yt3ixqSHDiTJuwR8kn4cEwqCtyZGoEkgI2wE+g+7E//sQ+JD4VMZ3wlDLYoNujo7AOWDHI3kuewItTy7nep6wuOCUJnKf+xdb+mmSPew2FT8TDndes+JOu0+FQE0B5QVMBDxRsQ5Y+/kEaFrjtapj4bGQBGS0ZL0yzAMyDO+IuW/QheULfpML3pKPkjXiKCUB+TtApxGBVYyxmSlgAwIiYvPTCTyjKMpXdRget42YnYgAr/Q9DO9Y+J7AmSdHg80tWhyGIUxp9Z1y15m8DZ8ALrt9LLoVxB9vHteArCGfQDFjOCbAu30VPUJhY4GAsCifTgCU0bmIiKImAnccvOjJGs4D6NeLcI7gDXbocve3qelL1CLG7EQ/OJWIiu7wey1X6XbuCcjeER+IAEyin0wAfx7iDOF0cZyKJVydplsINU3FQH6kKa97gYO/xOToPFmngkQBybvc4gWGwD3C2y0kP0t5vVTZmd/oyTNH6IHjNzuJEojB8MS7HtP4dt8Ln42Ynvjf2b/duWjRokWLFi1atGjRokWLFi1atGjRokWLFi0y6/8Gh/hVILbYMAAAAABJRU5ErkJggg==;" vertex="1" parent="LnSEVfMM8-7d9JJSHnFC-79">
          <mxGeometry x="7" y="30" width="95.89" height="50" as="geometry" />
        </mxCell>
      </root>
    </mxGraphModel>
  </diagram>
  <diagram id="7CgGAHHKVVlgJ9NJXxcK" name="HUB_BMO_Specific">
    <mxGraphModel dx="2031" dy="1066" grid="1" gridSize="10" guides="1" tooltips="1" connect="1" arrows="1" fold="1" page="1" pageScale="1" pageWidth="850" pageHeight="1100" math="0" shadow="0">
      <root>
        <mxCell id="7t7A3Lj1Byggx4V8poIj-0" />
        <mxCell id="7t7A3Lj1Byggx4V8poIj-1" parent="7t7A3Lj1Byggx4V8poIj-0" />
        <mxCell id="TVVZCGAAIm8pSXoO8avi-53" value="&lt;font color=&quot;#ff0000&quot;&gt;Experience API&lt;/font&gt;" style="rounded=0;whiteSpace=wrap;html=1;align=right;" vertex="1" parent="7t7A3Lj1Byggx4V8poIj-1">
          <mxGeometry x="470" y="320" width="580" height="150" as="geometry" />
        </mxCell>
        <mxCell id="TVVZCGAAIm8pSXoO8avi-1" value="&lt;div&gt;&lt;font color=&quot;#ff0000&quot;&gt;&lt;br&gt;&lt;/font&gt;&lt;/div&gt;&lt;font color=&quot;#ff0000&quot;&gt;&lt;div&gt;&lt;br&gt;&lt;/div&gt;&lt;span style=&quot;font-family: &amp;#34;helvetica&amp;#34; ; font-size: 12px ; font-style: normal ; font-weight: 400 ; letter-spacing: normal ; text-indent: 0px ; text-transform: none ; word-spacing: 0px ; background-color: rgb(248 , 249 , 250) ; display: inline ; float: none&quot;&gt;&lt;div&gt;Process &amp;amp; System API&lt;/div&gt;&lt;/span&gt;&lt;/font&gt;" style="rounded=0;whiteSpace=wrap;html=1;align=center;" vertex="1" parent="7t7A3Lj1Byggx4V8poIj-1">
          <mxGeometry x="720" y="530" width="330" height="290" as="geometry" />
        </mxCell>
        <mxCell id="TVVZCGAAIm8pSXoO8avi-2" style="edgeStyle=orthogonalEdgeStyle;rounded=0;orthogonalLoop=1;jettySize=auto;html=1;startArrow=classic;startFill=1;" edge="1" parent="7t7A3Lj1Byggx4V8poIj-1" source="TVVZCGAAIm8pSXoO8avi-3" target="TVVZCGAAIm8pSXoO8avi-31">
          <mxGeometry relative="1" as="geometry" />
        </mxCell>
        <mxCell id="TVVZCGAAIm8pSXoO8avi-108" value="Notification" style="edgeStyle=orthogonalEdgeStyle;rounded=0;orthogonalLoop=1;jettySize=auto;html=1;entryX=1;entryY=0.5;entryDx=0;entryDy=0;startArrow=none;startFill=0;endArrow=classic;endFill=1;" edge="1" parent="7t7A3Lj1Byggx4V8poIj-1" source="TVVZCGAAIm8pSXoO8avi-3" target="TVVZCGAAIm8pSXoO8avi-106">
          <mxGeometry relative="1" as="geometry">
            <Array as="points">
              <mxPoint x="1170" y="630" />
              <mxPoint x="1170" y="70" />
            </Array>
          </mxGeometry>
        </mxCell>
        <mxCell id="TVVZCGAAIm8pSXoO8avi-3" value="Real Estate - NAS&#xa;(realestate-events)" style="shape=image;imageAspect=0;aspect=fixed;verticalLabelPosition=bottom;verticalAlign=bottom;image=https://res-1.cloudinary.com/crunchbase-production/image/upload/c_lpad,f_auto,q_auto:eco/wjgjfxwhbbtz91cgamqj;align=right;" vertex="1" parent="7t7A3Lj1Byggx4V8poIj-1">
          <mxGeometry x="835" y="580" width="100" height="100" as="geometry" />
        </mxCell>
        <mxCell id="TVVZCGAAIm8pSXoO8avi-4" value="&lt;font color=&quot;#ff0000&quot;&gt;System API&lt;/font&gt;" style="rounded=0;whiteSpace=wrap;html=1;align=right;" vertex="1" parent="7t7A3Lj1Byggx4V8poIj-1">
          <mxGeometry x="470" y="680" width="220" height="140" as="geometry" />
        </mxCell>
        <mxCell id="TVVZCGAAIm8pSXoO8avi-5" value="&lt;div&gt;&lt;br&gt;&lt;/div&gt;&lt;div&gt;&lt;br&gt;&lt;/div&gt;&lt;font color=&quot;#ff0000&quot;&gt;&lt;div&gt;&lt;span style=&quot;font-family: &amp;#34;helvetica&amp;#34;&quot;&gt;Process API&lt;/span&gt;&lt;/div&gt;&lt;/font&gt;" style="rounded=0;whiteSpace=wrap;html=1;align=right;" vertex="1" parent="7t7A3Lj1Byggx4V8poIj-1">
          <mxGeometry x="470" y="530" width="220" height="140" as="geometry" />
        </mxCell>
        <mxCell id="TVVZCGAAIm8pSXoO8avi-10" value="external-proc-api" style="shape=image;imageAspect=0;aspect=fixed;verticalLabelPosition=bottom;verticalAlign=top;image=https://res-1.cloudinary.com/crunchbase-production/image/upload/c_lpad,f_auto,q_auto:eco/wjgjfxwhbbtz91cgamqj;" vertex="1" parent="7t7A3Lj1Byggx4V8poIj-1">
          <mxGeometry x="500" y="540" width="100" height="100" as="geometry" />
        </mxCell>
        <mxCell id="TVVZCGAAIm8pSXoO8avi-11" value="" style="edgeStyle=orthogonalEdgeStyle;rounded=0;orthogonalLoop=1;jettySize=auto;html=1;entryX=0;entryY=0.5;entryDx=0;entryDy=0;" edge="1" parent="7t7A3Lj1Byggx4V8poIj-1" source="TVVZCGAAIm8pSXoO8avi-12" target="TVVZCGAAIm8pSXoO8avi-28">
          <mxGeometry relative="1" as="geometry">
            <Array as="points">
              <mxPoint x="420" y="953" />
            </Array>
            <mxPoint x="360" y="1033" as="targetPoint" />
          </mxGeometry>
        </mxCell>
        <mxCell id="TVVZCGAAIm8pSXoO8avi-12" value="external-sys-api" style="shape=image;imageAspect=0;aspect=fixed;verticalLabelPosition=bottom;verticalAlign=top;image=https://res-1.cloudinary.com/crunchbase-production/image/upload/c_lpad,f_auto,q_auto:eco/wjgjfxwhbbtz91cgamqj;" vertex="1" parent="7t7A3Lj1Byggx4V8poIj-1">
          <mxGeometry x="500" y="690" width="100" height="100" as="geometry" />
        </mxCell>
        <mxCell id="TVVZCGAAIm8pSXoO8avi-13" style="edgeStyle=orthogonalEdgeStyle;rounded=0;orthogonalLoop=1;jettySize=auto;html=1;" edge="1" parent="7t7A3Lj1Byggx4V8poIj-1" source="TVVZCGAAIm8pSXoO8avi-14" target="TVVZCGAAIm8pSXoO8avi-3">
          <mxGeometry relative="1" as="geometry" />
        </mxCell>
        <mxCell id="TVVZCGAAIm8pSXoO8avi-51" style="edgeStyle=orthogonalEdgeStyle;rounded=0;orthogonalLoop=1;jettySize=auto;html=1;" edge="1" parent="7t7A3Lj1Byggx4V8poIj-1" source="TVVZCGAAIm8pSXoO8avi-14" target="TVVZCGAAIm8pSXoO8avi-10">
          <mxGeometry relative="1" as="geometry" />
        </mxCell>
        <mxCell id="TVVZCGAAIm8pSXoO8avi-14" value="client-exp-events" style="shape=image;imageAspect=0;aspect=fixed;verticalLabelPosition=bottom;verticalAlign=top;image=https://res-1.cloudinary.com/crunchbase-production/image/upload/c_lpad,f_auto,q_auto:eco/wjgjfxwhbbtz91cgamqj;" vertex="1" parent="7t7A3Lj1Byggx4V8poIj-1">
          <mxGeometry x="630" y="335" width="100" height="100" as="geometry" />
        </mxCell>
        <mxCell id="TVVZCGAAIm8pSXoO8avi-27" value="" style="group" vertex="1" connectable="0" parent="7t7A3Lj1Byggx4V8poIj-1">
          <mxGeometry x="530" y="883" width="140" height="140" as="geometry" />
        </mxCell>
        <mxCell id="TVVZCGAAIm8pSXoO8avi-28" value="" style="whiteSpace=wrap;html=1;aspect=fixed;" vertex="1" parent="TVVZCGAAIm8pSXoO8avi-27">
          <mxGeometry width="140" height="140" as="geometry" />
        </mxCell>
        <mxCell id="TVVZCGAAIm8pSXoO8avi-29" value="" style="shape=image;verticalLabelPosition=bottom;labelBackgroundColor=#ffffff;verticalAlign=top;aspect=fixed;imageAspect=0;image=data:image/png,iVBORw0KGgoAAAANSUhEUgAAAQgAAADmCAYAAAApzxu5AAAgAElEQVR4Ae2dh3cUR9b2379md73rDe+73t1vbYIz9tprg40jNrZB5GRskiJR5GBylETOQeQMksgIEBkRhMggUM6R5ztPjWrU09MtzUjTo5F0+5w53T1dXV11q+rXt27dqv4fyCYSEAmIBGwk8D82/8vfIgGRgEgAAgipBCIBkYCtBAQQtqKRCyIBkYAAQuqASEAkYCsBAYStaFrvhZcvX6KmpgY11dXgsWwiATsJCCDsJNNK/y8tLsWpLUcwpetw7Bu+CBl7UlFeUCygaKXl3dRsCSCaKsEWcn95SRnO7z2OSZ8NR3j7MPXbM3Q+kiLicHz8atxKPIHS7AIBRQspz2AlUwARLEk3w3PYfSgpKMbpxCTM7BaN8HYuMER06OUGRHJkPPgjKI6NXYmb246hTDSKZiit0HykACI0y6VJqSIYykvLcZJdiS9GIrxdT0S0DwPBoH/UIqhBaEDovdIoJqxC5qELKM+XrkeTCqIV3CyAaAWFqLNAMFSUV+DSwbOY0S1SaQkaCOa9HSCMoKBGkbH3DCrLyqXroYXcxvYCiFZQ4ARDwYs8rI1ZiJh3+9faGOq0BTMceN4QIIygSI5OwKX4vci/90yNfrQCkUkWfJSAAMJHQYVisJc1L/H8/lMkzliFsR8OqtUYPLsSVnDwBxDJkXFuG0VyVAIuLtuDnFsP8bKmJhRFImkKsAQEEAEWaDCiIxjys3KwdcpyjH5vAEbRxmCwL/hy7KsGoTUJvaeNgsfX1h1BwYPnqKkWUASjzJvrGQKI5pJ8I55LMOQ9y8a+RVsx7sPB9doYGoJEYwFhBEVSVDyurDyIwkfPwbSxqyNb65KAAKIFlCcbXt6zHCTOWI3R7w9oEhg0OJoKCCMokqPicX1TMkpf1PpRCCdaQK3yLYkCCN/k1CyhqquqcOvsNSweOAURHXsHBAyBBoQRFEmR8Tg9fSMen76OmqpqQEDRLPUmkA8VQARSmgGKq7qqGleTz2Nhv0mIDDAYnAKEBygi4nBuXiKeXcpAVXllgKQi0TSHBAQQzSF1m2dWVVTi7sWbWD5sttIW2A3QDTrQ+0B1MTQYvPYRcco7M3XONjxLu4PKsgqxUdiUeyj/LYBo5tKhfaGqsgoZaTewdPA0hLd3+ShEdHAODoSN44CodeFOrgXFmRmbkXPnEaorqwQUzVzn/Hm8AMIfaQU4bFlJGU4nHsW4/7hGJJzUGMwaSNAAYZjrQS3j2NhVuLP7LMoLxY07wNXJkegEEI6I1T5SagxF2QU4nLAdk7oMQ3jt29zcgJ0+DzYgdBeEfhSuiWG18z0KS0SjsK8uzX5FABGkIiAYOLPy5NbDiP1kqMu5yUEbQ0OAaS5AaFCorkd4HE5MXIO7B1JRllckoAhSXfTnMQIIf6TViLAEQ3FeIU5sOYwpXUdg1Bs9ldbQUAN2+nqzA0LbKNRU82U4Pn4VMg6koqKkTEDRiHrm1C0CCIckSzBUlJYjZe0+TPhkaEB9GAIBj1AChNYq2PU4OXEtHh6/gspiGfVwqGr6Fa0Awi9xNRyYk5ieZTzG2ujFiH6nn+PDlY2FRSgCQoNCdT/UxLDdKH6eJzNIG652joUQQARItFwE9vm9p1gxaq4bDI1tvMG4L6QBYZhBmhKzHFfXHkbJi/wAlZRE448EBBD+SMsiLGczPrn9AFsmJ6iZlWx4wWjgTX1GaAPCtQye1iiSwpfh3tGLFtKXv5yWgACikRKmxpD7NBvrxy5B9Nt9Q87G0BBAWhYg4nA/6VIjS0pua4oEBBB+So/TmnOfZCNx+poWpTGYgSGA8LPg22hwAYSPBc8JVOf3nsSMblGI6Kjdoetf1s3cKEPpXADhY8G38WACiAYqQEVZuZpZuaBPbMiOSDQGPAKIBgpeLisJCCAsKoLyYSivwMVDZzC357hWBQYNEwGERcHLX14SEEAYREIwVFVU4XbqdSwZNBWj2vdsccZHDYCG9gIIQ8HLoa0EBBCAcu2ljSH91GXM6TEOTk+1bqjxBuO6AMK2TcgFgwTaNCCoMRTmFuBQwg6M6eRaNp4NJxgNtLmfIYAwtAI5tJVAmwQEwZD79AX2Ld6iZlby03RtBQwaTAII2zYhFwwSaFOAIBiKcvJxfNMhjP1wcKO+J6EbWEvfCyAMraC2mymL7HrKhGdtAhAEA6dcJ6/e45pZ2a5tdCPqg1hbBwTrBL1hy0tKlav8hd0nUJJToL4YxmuyuSTQqgHBCpCV+QiLB0yuWx26fct1bqqvwft7rS0CgvWh4HkurqWkYVXEfEz+fLj7cwKxnQapL4admbUJz9Juq7UzBRKtVIPgNxkyuDr0iNktcp6Ev429MeHbAiAIhMLsfNw6exVbJi/HrO4x6uPGHKVi/vmj7LiP7TQYeoFdThLj9z2yLmeiuqKKw1xtlhWtSoNQMytv3UfcLzMR9VZgPzTTmEYYyve0RkAQCCWFxWqF8INxicqXhQsCKwi0qwOCuVyMgHDPIFXfIHV93+Np2m21bH9bpESrAAS/QPXo5r0WO7PSXGGDcd7aAHEt5QLWRC9UCwGPIgz8GJmyAoQRFEnhcTgzazOeXLgFfrukLdkoWiwgWEicWZnz5DlWjJxTZ2Pw8yvXwWiMofQMNobw9j0x4o2fsK7PFBwNX6ZWmdYNIhT3bKANTfeOGzqztsvgvwG6PkC45VG7Gje/GJZ94wH4UmoLoGiRgGBXgjMrp38b6e5DhlIjDLW0sAEMf/1HDPjH1/jm1f/gsz+8i86/f1v9uv7xPfT61+eY0uVnbOo/HYdHLVXGOnfDMCwu21z/+QKI+F9nuW0K/srfJ0AYvu+RFBmH42NWIn3LMaVRtOauR4sEBPuZYwL0lWt/K1NLCT+qXU/8/K/v0PNvXfD1nz5Alz+8jU9//5YLDH94G13+8I77R1h8+ru31Pn3f/sYMR/2wcqwWOwbtjAktItQAoQbkhHxSjaFj7NbMx9aph9EaVEJxnQa2CZcon0FktIS3vgJg/75LX76W2d8+cdObi2BADACob7jzn94R8GCwPj61Q/w61vdsbT7aOweOg9Hwpc1i3YRkoBQy/XHoeiJACLkCCmAcA3NjWofhmG1XYfuf/3Eo+tACHQ2aQr1gcHumtYu2BXp//rX+O3LEdg6aCaOjFoaNO1CANF8TbBFdjHaKiCoJRAKv77+A/r8/Ut89ccPoN/4uoEHAgo6Lr3nM/QxNQtCo8drnTGp82Bs7D8Nh0ctUbDgdy3cKngAbRcCCAGEXxJoS4CgLeGX17ujx9+64Ks/dkKX37s0AzZS1XX4fV3j1Y3Yyb16JrWT2ufTrsHn9fhHZ4z9qD/W9Z2CgyMWB1S7EED41TwCGlg0iBAbFqWWMOKNHhj4z2/ww18/wRevvO9ujLpxEhJOQqAxcTNtWrv45i8fIrJTLyz7cQz2/jofR5uoWQggAtrm/YpMANHMgHB1G3qqbkO/177Cd3/5GJ+/8q67senGalTz9X+hvCcs+Pvy1U4Y3P5bzP5qBHYMmd0o24UAwq82HdDAAohmAISCArsO/+6OPq99ga/+xK5D3VAjG75bWzD0/wMOhFecfY7Og7aTfPbKu+j9r66Y9vkv2DRghvK58MVuIYAIaJv3KzIBRJAAwfUtCYTe/9dVDUEqCPzubWVkdMKwaAWTb/7vY0R3/wWbFq/Bnas38TDjPrYnbMLYsJH48Y2uQem2EBq6O0KHrbB/fo6pn/2CrQNn2g6jCiD8atMBDSyAcAgQ1BJGtuuBAf/4Bt//5b/o+sp7SkvozFGAAAw/WgHA/F/Pjl9hQp8I7FyxBbcu30BRfqHlh3Dpsl5WUopHdx8gacdBTOofjbA3v0bXP73vODQ0LJj2bn/9CFEf9MbKnhOwf/hCJEe4PsEngAhom/crMgFEAAGhtYS+r32Jbn/+yMOW4KQNgY2s66vvo9db3yC2byQSEzbhxoWr4GiPcaZyfXMHzNdKS0qRmZ6BAxt2Y3zvcBX3F39xOV+ZQdTUc6afcShYUMP43Vv45s8f4ucO32FJ9xjs/HlOg9/mDJartXEYl90jcZTyizfBCRwqw5xKS3ijB4b++3v0/vsXap5DZw5D6iFIB20JXV/thB7tvsDYniOwYf5KXDt3GaXFpR4FYG70Hhf9PKGGcfvKTexauRVTB4/BT+2/wJd/oQt34EZUKDfaKb786wf44fXPMPTT3pgTPhX71+5E3tP6PRYFEH4WqI/BRYPwR4No7/JgHPlGDwz5f93Q83+7oGvtMCQt9qqx+OHW7Evj0m/Xz//0Hr7/VxdEdPsZ6+auUBpCeWm5j8Uc+GBlpWXIvHEH2+I2YFzYKHT756f4/I/vuTWB+vKm8/TZH99F1z93Qo/2X2DkVwOxcPRMpOw6oro6JUr78X2hFgFE4MuYMQogfAAEgTD4X93w/Z9dtgStIai9Q/aE7/75KUZ9PQjr5i7HjfNXUFxYrKa3G7UC47Ez1cO3WJkOLtZSXFCkjJ80fA7r2g/dXvtEGWEJi29f+y9+/iQM04eOx751O3D9/FXkZ+ehqtK1vkJT8yKA8K2s/A0lgLAAhJ7j0OfvX+BbTo9+pW56tH771feG9Pca37w/vv45Ir8fiq1L1uJa6mUFBDa6lrpVV1ejML8A6RevIzP9jjrmx4mc2gQQzkhWAFG7JuGIdj0w5F/fIez/PsPXr37ocmk22BL8bfT1haf9gMOKo38chnVzluO60hCKWt0CJEatwHjsRFUWQDgh1bbaxahdsJQuzew6/PS/nfH5K+/hUzoraRtC7ZyH+hp6g9dqXaIJhO7/7qK6DPFTFuLWpXQUFxY5U6JtNFYBhDMF32Y0iPBaTWG4WjPhG1fXgWsf1C6iohp7E+c46O4HuyTf/uMT/Pp5P2xYsEr5IBQXCRCcqcKuWAUQzki3zQCCdoV5X0Rg37AF2DJwJhZ9F4XYTwZh6Jvf46fXOqs5A4SE0QDZoIZQO8T37d//i2Gf98PKGUuQnnYNhfmFYB/cabXamSrRMmMVQDhTbm0KEPO/iPBeryAiTi3cemD4IjWZaHWviZj3TTjGfzwAgzt0w49//xRfveoa7yc8qB388O/PEP7NYKycvhRXzl5EQW4+zAY4gYMzFdYuVgGEnWSa9r8AwmZhk5TIBOXqy2XWXFrHLCzvOxFXTl1Afk6upcty04pC7m6KBAQQTZGe/b0CCBtAGF1qeUy32lNT1oNf7RLtwL5CNdcVAYQzkhdA+AgIQkIDwpmikFibIgEBRFOkZ3+vAEIAYV87WtAVAYQzhSWAEEA4U7OCHKsAwhmBCyAEEM7UrCDHKoBwRuACCAGEMzUryLEKIJwRuABCAOFMzQpyrAIIZwQugBBAOFOzghyrAMIZgQsgBBDO1KwgxyqAcEbgAggBhDM1K8ixCiCcEbgAoo0Bgl6g7l9N3bEz1St4sQognJG1AKIVAqKGS8BV16C8pBS5T7Px+NZ9XEtJQ8q6/dg8MR6LB0zBzG5RODJuBS4s2IFr644g80AqnqSmIzfjCUpfFKCiuAw1tTNSW4JruQBCAOGWQGNWteZ0b8vZnC0MEPrtX1legcKcfDy//xQZF9JxYf8pHFi6DevHLcXSIdMx49tIjP/oZ8S82w+RHXsjguthtAsDV+JWv3Zh2DN0vvur3Jxror9ylRK9HMfHrcLJSetxfl4irq45hNs7T+HhyWt4cfUeCh4+R1l+ESpLKxSIQgEgAgh38wjogWgQIQYINraqyiqUFZei4EUent19jLtp6TizI1kBYGNsHJYMnKo0gHEfDkb0O/1U4+fCuvwSuBsA7cPU/wSD1Y/hCAjzpLS68zh1TYND7cOXISl8GZKjEnBs7Eo1NyV1biKurDyAO3vO4OHxK3hxLVMBpDS3EJUl5aiurMLLIKytKYAIKBfckQkgQgAQlWUVuLDvJA4sS8SGcUuxZNBUTP5sOMZ+OAiRb/bBqNd7YNQbPT00AKtG789/DQPC9VWrOmBYnZsgEh6HpFEuiBwbswInJq5F6pxtuLxiP25uP4FHp66jvLDEXfkCeSCACKQ06+ISQIQAIKgpxLzTT739/WnkTQkbGEBYQcP6P62B5N55XFf7AngkgAigMA1RCSBCARDZ+Yh5b4BlV6ApEKjv3mADgpoIuycCCEPrawGHAggBRD12CGttoP5uh/09AogWQARTEgUQAggBRPswxHYajOQIl03FVwCy2yQf7zURJRROW9swZ4F0MZpcrcQG0WQRWkYgGoRoEKJBiAZhCQf+KYAQQAggBBACiFD2pJQuhm399PmCdDF8FpVfAUWDEA1CNAjRIGyhIYAQQAggBBACCOlieM7JEEepOnlQFjLMac0I0SBEgxANQgBhTQcZxbD3+rNylnHqy1pipLStnz5fECOlz6LyK6BoEKJBiAYhGoQtNAQQAggBhABCACFGyjqjHGd5ipGyTh5ipLTlg3hSWtka7P4TG4R/NhuzHGU2p31DDNUr0sWQLoZ0MaSLYcsnAYQAQgAhgBBAiA2irs8tNghvWYijlDUjRIMQDUI0CNEgrOkgjlL+Gd3ESOmfvMRIadvuWswF0SBEgxANQjQIW2AJIAQQAggBhABCjJTehrn6v6zVtO6EuXvBc/GDsG2HIXtBNAjRIESDEA3CFlACCAGEAEIAIYCQLoZ0Mey+NCZzMWz5IHMxrPrKdv/JMGfT7BJig7BviKF6RboY0sWQLoZ0MWz5JIAQQAggBBACCLFBiA1CbBC2HLC9IBqEaBCiQYgGIYAQDUI0CNEgbDlge0E0CNEgRIMQDUIAIRqEaBCiQdhywPaCaBCiQYgGIRqEAEI0CNEgRIOw5YDtBdEgQkCDKMzOx+j3B8CuAjvxf7Msex8Rh7yMx7aVsSkX5MtaTZGe/b0CiBAAxMuXL1FZUYni/CLkPHmBB9fv4vKRVCSv3YtNsfFYPGAKpn8TjnEfDUHMu/0DApKAASIiDslRCTg+bhXoin5uXiIuL9+HuwfP4+mF28i9/QhFz3JRnl+M6opKMK9ObAIIJ6QKmYthN+/C6n+n5mI0VLRsVFUVlSgrLkXO4+e4d+UOriZfQNKavdjx21osHz4bs7pHY2LnXzGm00BEvd23QYj4BAjV+OORMmYFTsSuwenpG3F+wQ5cX38UmYfO48m5m8i59QhFT3NQWVyG6ooqvKypgRUCnAKDlp0AQksisHvRIEJAgwhEkdbU1CiAFLzIw6P0e7h0+CyOrtyFrdNWYvmIOZgXNh6TugzH2A8HIZoA6dgLe36Zj5ToBBwbuxLHY9fgzIyNSFuyG9c3JOHu/nN4dPoGcm4+RFluISpLylBTVa00ACsAwCHNwFfZCCB8lZR/4QQQrQQQutjt3tQESGV5BQqe5+LpnYe4ceISHp69gcLH2SjNLURVWYUCACzf/zr20N0LIJwpGwFEKwOEM9Uk9GMVQDhTRgIIAYQzNSvIsQognBG4AEIA4UzNCnKsAghnBC6AEEA4U7OCHKsAwhmBCyAEEM7UrCDHKoBwRuACCAGEMzUryLEKIJwRuABCAOFMzQpyrAIIZwQugBBAOFOzghyrAMIZgQsgBBDO1KwgxyqAcEbgAggBhDM1K8ixCiCcEbgAQgDhTM0Kcqzxw2YhvF1PhLcLAyei+TNFnuFjOw1GMien+VEfkiLiUPQkO8g5De7jBBB+VIjmms0Z3CoR+k/jjFHObi3OLcCzOw9w+8RFnNpwAAcWbMK2SQlYPnQm5vw4BhM//UXNbo14s7cCBkGg4NHee/EcAYR1uQsgBBDWNSNE/uXkMzcQ8gqQlfEId05fxuW9J3BhRzIubE9y/9J2JIO/iztT1P584lGc2XgQKSt2YdfM1VgbuQBLBkzGrG5RGM+1Nd7ph4iOvRHeIQwTOg1GUqRoEOZiF0AIIMx1olnPFRC4/kVlJUoLil1AOHkJl/cRCEm4kOgCgoaBL3tCxB1upwsi57Ydwal1+3Bk6TYkxsZjdb9pYJdBuhiexS+AEEB41oggn2kgVFdXo6ywBFl3HuL2yYu4vO+kl2bgbuS1moK/5wow25NAzSJ13X6cnL8VKRNWIYl1IHyZX3AgSMQGEeTK4uvjSotKXH3LDp59yfoMU6G8aK2v+W4N4QiE6qpqpR08vf0Ad05dwpX9p5BW+2bXXQZ/G79deJfWcRRnV+/FyblbkDJ+lQIBvzTuoTFE+P/lcgFEiNbI1gwINiAu7sJ9a9iYDxoUS/IL8YxAOHMFVw4QCCl1GsJ2l9pv18j9/Z/dkHObD+FMwi6cmLkRKWNXKBgkhcchuRYESmvwQ3u06noIIEK0hrYGQLDh0PjGt2l5cSkKX+Ti+d1HuJ+WjvSUC3hw+TZyHz9HWVEpqquqWgwwXta47AcleYUqP3fPXq0FQp1B0d8G31B4rSWc23AQp5ftwLHJa5EUFY+jZi2hiUAwQ0IAIYDw6Jc2dphTawVs6BUlZch/mo0n6ZnIOHMFVw+edr1Na41v2qDmVrV3puDaodN4ePkO8p9lo6K0HOyvh4KGoSBX22UoKSjCi3tPkHH2muoyXNh+tE5DaKTNoD4wUD7ntx1F6vqDOEVbwvhVSIqIB7sOWkswN+hAnwsgBBB+A4JvUK79WJxXiOz7T3H37DVcP5KKi3uOuy3puvFrGNTXEHhND+fpcBd3peD64bN4fC1DrTFZWVERNGCw+1NRWobsB8zbVVw9cKp2WNF7uFGnN1B7ZVzccNBlSxi3Ug1LspEqBydtQ9D7AGsLVnARQAgg/AJEWXEJ1o9ehKSEHeAwmhkEbOiBaizGuC/uPqYg9PDybeRnZaOirBw11TVNLj2l+VRXozS/CM8zH7s1HvoZGJ8fqDyZ4+Ezzm1y2RKOz9iA5DHLXbYEDQVCwM+hSauG3tj/BBBNrmLORBCqNgiq2eHteyG8Qy9M+PhnLO4/Cfvnb8DpjQdUgzI3gECeGxvspd3HcCP5PB5fz0B+Vo564xMYDXVLeJ02kRICIeMx7p67juuHzngaFAMIOa/8u7sNB3B6yXYcn7pO2RJoXHRrCn46MzW28ftynwDCmfbd5FhDFxDF6nsTeriV8wI4vMrP6i3oNQGJU5bj+OrdahyeDdqrgQS48WloaGA8upaBwue5qOQS97UjJdWVVSgtKFLdoXsX0pVNhEY/qvPBSuP5rUeQunY/Ti1MRAq7DhEuIKh9ELoKvsDAKowAoslN2ZkIWgogCAo9cYj7Ue16IrJjb0z/Khybxy9FyspdOBekhkgYaWBc3H0c6UnnkJHqMijqa2lBhBahcHbFHpyYuQHJo1dAaQmNcFayarjB+k8A4Uz7bnKsLQkQWpsww8I9cahDL0z/ahTWRS9EyoqdOL/tiOOahQZCMDQE/azzWw+7/BKmr0fy6OXKdqA1BVeD9s/NOVgQqO85AogmN2VnImipgDDCwnistQt+Dm/Cx0OwuN8kNTPx7OZDQVHz2YgD/buw7SjOrT+AU4sSlV9CcnSCu+tAw6JyVGpGA2N9Dd/XawIIZ9p3k2NtbYAwahfqmOsatA/DmA8GYkHYBCROTsCpdfvVRKVAN+RAxUdtRHUbVu9zzXEYu9KlJRiclQLhvehr4w1GOAFEk5uyMxG0RkAYNQojMJR28UZP9cHdmd2ioGwXK3bi3FbXMGqgGrj/8bj8Hs5vOYyzK/fiBIchRy9XjkrKWSmEjYuBgocAwpn23eRY2wIgzMDQ5zR08seuyOrwuUiK3+72ufC/kfvXtdBGznObD+PM0jqXZg8gtPBugz/wEEA0uSk7E0HjARHp4fjkT2Vg2IZcrUsKPIc5daN2au82dCrbxc9YOXI2Di/dprSLQMGCE59SNxzA6YWJODZxDZKjXdOclR1Bey22ISgY64wAwpn23eRYGw2IL1sXIAgeQkLv1ZqMHcIw7j+DMT9sPPbOWYfTG/b7ZejUtoRU2hLmbsGxCatdxkU1E9I10tDabAnGRu/PsQCiyU3ZmQjKS8sxv3csot7q4/PipHRYWvBV6wOElXaiNIt2YRj5Rg/EvNsPc34YjU30u6DtYttRrxELagnnN9OWsAcnZ29Gyhjtl1A7z6EN2BP8AQPDcnm64xNWoyS7wJlKHiKxtsgVpegSXFVZhWvH0rCw30REvtnb/Sa1ajD8TwHi66hW1cWwy6v5f2XorB0ZmfblKKyPXqBsFxe2HMHZ+F04MW091DAkXZqpKTTzHAd/G2uwwx8fvxq3d5xCWW5Rg+7rIdLOG52MFgkIY27pMnzl6DnM+WmMS9XuYL3kuQsQ0Y0CBFVJVsKTk9ehprLa+HiP42DbIMwgaOhcd0do5OTx3l8XqDUTBAg+rCYVEY+UmOXI2J+KiqJSBYaG5rZ4VI4WetLiAaHlzsIqyM5H8tp9qg+uG4NuNI0BxMmJa3Fx2R48OHYF+feyUFVe/7TqUAeElgX3lM+eofMbBcxgv7Gb+3mpc7ch62omqisr8RKtY6Uv3W4a2rcaQBgzmp+Vi0PxOzDps+FuG4UCxLcx1g0iIg4p0Qk4OWkdLsbvReaRNOTeeYzK0nIPFbKhyiGA8OFN3ILsGRcW78KL6/fcWmNb0BiM7YjHrRIQOpMlhcVIWbcfsZ/+oqZgL6wFBK3wBMKJ2DVIW7obGfvOIv9+FqpKqSHou/3fCyBaASCiEpA6eyuepKarJQFZC5pQJfyvRCF2R6sGhJZ1UX4hjq7ahTVDf8P5eYm4teMkCh5kobKs3KPwm/qGEEC0TEBoGxPBkHU5Q62JocDQlLeFrnwtfN8mAKHK6CXchqWmgsCuzAUQLQ8QKTEJuLr6EAqfZLvqh8crw66k287/bQcQQShTAUQLAQRtTmNXIn3LcRRn5aKmpi13IupvGAKI+uXj11UBRIgDIiIOx8aswNU1h1CSnU+VUpWvUxqlX5UnRAMLIAJYMAKI0AQEvR4Jhmtrj6Dwcba7EyFgaLjyCyAalpHPIQQQoQUINTZguLMAABk9SURBVGckOgFpcbtR/CLfY8ja50Jt4wEFEAGsAAKIEAFERBxOTV6PRynXUFla5gaDaAz+V3YBhP8ys71DANG8gGBXgs5uT8/dVE5utgUlF3yWgADCZ1E1HFAA0TyAYFfi1NQNuJ90ERXFpW4bQ8MlJiEakoAAoiEJ+XFdABF8QHBm5YOUy6gqK1clJd0IPyqsD0EFED4IydcgAoggAKJ2FasTsauRuee8aAy+Vs5GhhNANFJwVrcJIJwHROqcbci/9ywg3x61KkP5z1MCAghPeTTprKy4DLGfDEVE7TJwxunVoXbcoqZ7c6hyyS5k37iP6qqqJpWR3OyfBAQQ/smr3tDs/xZm52P/4i2Y1GWYe6p5qMGhRawHwa5EVAIuxu1Bzu2Hbo1BbAz1VsGAXxRABFykrgiL84twMH47xn4wKCRBEbIaBFfv4pTruVvx/FKm+DA4VD99jVYA4auk/AzHNx1/+Vk52PnbOozpNLDBdTODqWmEGiD0lOvz87Yj5yY1Bvul/fwsCgneBAkIIJogPH9uraqoxK2zV7F44JSQ0ChCCRDHOLNy6zEUv8gTjcGfShWEsAKIIAjZ+Aga2dL2n8acHmMR2bF3s8GiuQFBjeHEhDW4vfMUSg1Lx4uNwVhbmv9YABHkMlBdDwBVlZW4dPgs5vYchwiCon2voMKiuQBBMFBjuLbuCMryioMsfXmcvxIQQPgrsQCF1zaK6upqnNp6FFO/HIWIjnVfynLaHtEcgDg2ZiXSNyWjRM2sDJAgJRpHJSCAcFS8vkWuYFHzEs/vP8G6MYsR/U4/x7WJYAGCGgO/J/Lw+BXUiA+DbxUihEIJIEKkMHTfm/sXD59hZfhcRL/T17Guh9OAIBjOztyCJ+duuedJhIioJRl+SEAA4YewghHUCIoHNzKxNmYRRr83IOBDpE4C4vTUDXh64TaqyiuDITJ5hoMSEEA4KNymRO0GBYCnGY+weNAURL/dL2CgCCQg1MpNUfE4PX2j+gpZZVlFU7Iu94aQBAQQIVQY9SWl5mUN7l+9g6WDpyHyrT5NBkUgAMFuBD+Ldzx2DR6fTQd9PbhpuNWXH7nWMiQggGgZ5eRudGx8pYXFOL7xIMZ+OLjRoGgyIKIScClhH/Izs8APKMvWOiUggGhh5Wp8Oxe8yMPBuERM/PRXv0HRaEBEcWblbhQ+fK4+TceF4xv6ZmkLE7Ek1yABAYRBGC31sDC3AIfit2P8R0PUN0h98aHwFxApMctxMW4vcm7JzMqWWk8ak24BRGOkFqL35Dx5gW3TV2Hcf4Y06EfhCyCUjSE6Hpfi9yEv8yleyheoQrTknUuWAMI52QY9ZnY/+CvMzsPueRsRVY/DVX2AIBg4MnF+/nbkXH/ktn8EPUPywGaXgACi2YvAuQRUlJbhwv7T+K17jJfDlRUgCAZ+gere4TSUF5W6wWC0eziXWok5FCUggAjFUglwmirKynH5aCrm9Zrg7noYAUEwqJmVu0+jxDCzMsDJkOhaoAQEEC2w0PxNstYAONX8xObDmPFtpALFnqHzcWLiWtzZexZleUXyPQl/BdsGwgsg2kAh6yxqUFSUVeB04lFcXHMIlcUl7q6EDid7kYCWgABCS0L2IgGRgJcEBBBeIpE/RAIiAS0BAYSWhOxFAiIBLwkIILxEIn+IBEQCWgJ+A4KGruqqatufNoTpB8i+9UmAZcxl6StKy5H7LBvP7j1G9uMslBWVqHrR1uvAnbQb2L1wE/Ys8vwdiE+0/DIY5eXxq6kJGcOx34B48TALkW/2Visyc1Vmj99bffD8wdPW1yIkR24JFOTkY8vU5Rj9Xn+3T4Vx7gfrxuyfxiDzyq2QqeTuxAfpIGntXox6o6eaQEd/E/0b+5/BqKyoWyujtKgEc8PGY2a3aEz7OqL2F47JX44MGbd2vwFxbMMB25mDo9r1xJ6Fm4JUDPKYYErg5Usgdc9xjP2g9gNA9azCzQZBUGyMjfNoEMFMr92zqiqr8OTOQ1w7cRHXT10CV+2qqQ7sdHUNCCM4eWwGRHFeIaK4rGAHzxXNo9/uq2bK2uUhmP/7BQgKctYPMQi3qRzhHcIw8/tocbgJZgkG4VlUf08lHvWqyOaKbT7nC2Pd2MXgyt2hsOW/yMUifrioYy+MfL2H+o37aEjAIeYrIAqy81yfPGgtgMjLymlwOnHUW33UoquhUCEkDYGRwMObmeBbzQwAX84JidPbkwKTkCbEQsgtHTLNS/uN/fSXgAPMd0Dkty5A0PuO6mN9FSO8XU8cXrmr0UXJguQKRdRWuOe5eeN/LxsIY75Hn6t7jc8wPMfqWfo+J/aufHjnt6npcOeReauuUf3ZxsbJ+1xao3e5sy6M//hntQL3ogGTVbfCqn5M+GQoKsrr+t5WsuRz3OVuKBOrsPX9p/LOuqHrR21cLx5lgS8vc93lV9i9a5j3E1S8yjirZWpdN3lnztMXuJ16DbfPef4yLqSjpqZOm6JGM6qDt1z96WJ45demzXjnyLd/fO5iUOAzukV5CdgscFaQSV2HWzZsJok2jDk/jcOcHnU/GmpynjzHvWt3wIoW815/VZhRb/XFvF7jcePUZRUfhfEw/S6WDZ2BsR8Oqg3TB9O+CsehhB31VsLK8gpcPHIGcb/OxJQvRoBxs8LoX2znX7Gw/yQcXb0bVP3M2+3z1z3SbEy/3fGCPhMt5cDJU6m7j6m8soHpNHA/scswlcYH1+9a3st03Tp3zTIt969loCivEJunJGBi51/c8bLvGz9sFp5kPLCN05xffZ51/4llmbOclwyZhqqqugr/5M4DRL/r/U2PUe3CcGZnso7SY89y3zFnvYIQ79Wy4LdBZn4XhYMJiaBhtKGN2i1X15rfJxZjPhjojofxxbzTD5O7jvB4uU3s/CumdB2BeWETVNSPbt2zlOn1kxdRWlSKHbPXYvLnw9zxjvlgkMp/ztPnXitqpe49jtk/jvWKb/HAqeqLalumrVDXZnUf7ZEmY1sy1qnsx8+9sk93+aNrdqv24ZHft/uqjzCtiV6Ae1fv+F3e5gf5DAh+q8GYAR5P+zYCo98f4PU/+3hlJaXmZ6nz3fM3egmFBq20Q6eU8M1vIHXesReS1+7FvSt3EPV2X6/7GYaay7zeE1BeWub1XDaoqV+NUveZ4zfmideoEhM+bMDGV8uV5PNezzXea3Uc824/jwLi0mxsRKqytnNZt73ua1/7da2OvbFi1BxLWF1OSvVKC9N+bt9xBcvwdt5vJV5nA3yW+dhLPvX9QW3QSmaUEyugeVs3bolXeN6/dOh0j6C0S+ycux4x7/ZXZWf1DP7H57ABJK/ba9kV4EvjwLJtqh4yrFU8Rhnz+rRvwlFeUobK8krwxcEt89JNr3sZ9timA5j94xiVRmM8POZ1rgt678ptj7w11MUgWBtKp34Wwz3LfOSOnwp1+unLmPLlSCUb63hcdYsjjNtmrEK5TVt0R1rPgc+AOLR8h0qQO+HteuJgwnbVKPV/es9Ep5+5YvlYK0DwPoLGOrMuC2/kW30x7j/1L9JKSOxfutXjublPX1iCR6fVas90ULgc49dbIABx9+JNjOlUOwpgMkxZpqMdK3ME8gzpYHrsADH+vz/XK0Pma0G/iUr91vmqb8/Gx2+H0vhsTh+Ne1xvwryxQZkBRaj/9sNoNyzpQ7Fv8RbLRmd+jj5n4988ZbnyszA+8+bpK7Z5pqypQeg49J5yOLPDU6OxAwQ1vPrqJeOkYd5oiHUKEITD2d3HbLtyOn/GPeW29OdpKCu2fmEbZWl17DMg5oSN8xA0H/z07iMc33TQS4AU6OqYhVbPgx0gjJlq7DGfyzF4vbGCxw//zSt9jJ9AYsFO+zrcEiCM62B8oo4KV1MuqOXmueS8/rHyUfuxqkD8j5oI08AtNysb4z4a7CFDpoPh+BYd+8EgFZf5I768zi+BG5d7swKEW2a1NiKrNDEMG2tpYYk7X/Ud8O1KI547bgPUZnWPcefNGMeDG3eRsmE/Lh4+o7pCj27ew7PMJyCotSw4IsL6YxUvG7WlVlorK8atNzrszfiO3V4TwDr2womth8FuR+aV2yoPZnmwLIzaphUg3OlrQKbUmPOf5+pkwQlAUHaZl2/ZAo91iLJjWtzpri0vvjip2Wn5uxPqw4FPgKCg1WfgDBWEfbjKiko8yXhk2UC4LmJZifcbxhYQHXuBnmYH4rapSmzOJM/5JlvQd6JSmyZ8PNTyubE0OulG+SzHS2CMY3SngSg09GtJZXMF4vMW9Il1i7CksFjZP2gD0T/2W/lBG6t7eX/aodPutKyKWuAVjvdFv9tfaSp8A53dmewVxpXvXnh8+747LXaAYHxLBk9V2tu6sd6qPuMa9UYP0GDny8a3Du1BvM/8m9erTja+xKXD0EbCLoM5PqZ9Qd9YNeRYWlyKuF9mWsqC3Tb6MnCj56aVhkB4UUvR9YBAMpcRzx/dvqeTZdnFYBoZTtvBNk9d7hUPw4x8/SdVJ3RkDQEi/ewVnNt3AikbD6jyMMsi8s0+OLf3hArDcKVFxSovtAFa5YOG1uxHWcoGt2POOtDmY46T4CAs/d18AgQbtZH4TOTexZvVsxTFLYyXVDPTDp72So8VIBgfh6D0xm6CWRDM8MQuv7oLnXHTW80sCKq++m3LCsJFUgiy4oIi5eWZeekWOGxXlFuIrPtPlaMM33bmeHhO6/3Ll3ZONC+Ruvu4ZTp57+UjqSo7TEPWvSdeoGIYkn3L1BXucAxLrcacFspi0YAp7rzbAWLcxz+DBlBufDua4+E5ZUaw+bJR04i0GN5kepaHz/ElCq8w239b49UFYbrYKLLu1dlHXjzOsizf8A69cPVYmoqXLyArgLEhsV7qzcq5j3kwQtdOg4h5fwBKCopUVBwRovZolit9Km6mXtWPa1CD0AHZdRz575+84nONYniOrdCV3apNEPh0YOPG+sPyZ1fcnEbeSwMuw/izNQgIVWm/8yQXK/btc9dRVVWlCoLUMieezlS0nJs3O0CsjJjnDpqy/oAHkJhZxs8RDr3RE47CMQvCCAgdlnt6rREqG2OXKeu46p/WVn7tFmuOqz5AUN2z9A1oH6aWoOczdWHQwGYFM/53KemcMZlYP2GpV56YrnEfD3E3fjtAqIZR65REKJrzw3O/AME3tIWnH7tB83s3ToOY3WOsZbrYrdBwo0DY+Ed38jaAsx4QMkq+NS8R9+sMr7rHfNKjl92bi4fPYvzHQ7yc+3ztYnBUqbKy7oth7KKZ5eoMIDxfTFwy0NzGmA4++/l9z+kNdqONhKmukx6Vrp6TBgFRVVmp6G4UChPKISKODPDHfqpV4qnKa/rqNPgCCBLfqLHw2Yyf1l+9XTuR5hMgODx7YvMhTPjvUBXeKp3GvBmP7QCR9zxXaTPGsDqNq6MXKoOVsSBoXCNUzeEJOILGuO1dvMUrnI6bvvvcbAHxXZTbWBYIQLDB0khnTjfPadm3ehfx83tFuQUoKShGWVGpavTsEmi/FgLcKr4xnQZ5xKee/V/vZ7P8FvSb5BYZu7+M01yurD98O7MBma/x+Se2HHbHwQM7DWLSZ8PU0CTDsEybCxAHErZb5oMaldH+wXQuHjzVUsZMu7FeegjA5qRBQHA83krAVoVs/o+FQ/XduAUVEC9fqopgtqozncwT+68TPxuG+b3rFnM15sEKEJxswwpqlgnPqdoZ34I635smxVuq1QTEPRMgOAvQmAZ9zAofbECwHz/zu2ivFbGZJvZ7CSHzlnbojGpEbLT84hd9VGgTWD5yNqpralRj1nky7ulXYNw4zs9RGWMYHlPO9C/RGys8+9Y0CJvDWp3zS+n0aeC3To2NJdQBsXP+Bq86p+ShAJGjxaH2iwZNsZQFfX9099vjhnpOGgTEyvB5lgmzEr75PxbmksF1b32mI5iA4FCr0kQsvD8Pr9iljDqsJHR2Maed52ZAsEtFZyozHBiW4+FWDi3M89E1e2y7GJwwZNyWj5pjmRa+yfVXs4OlQei0W+WXcOOwrXlbFTnfSz68nw5q3GZ197axUH7sYhiBQxhafdeDce2Yu07FxbKjYxvv12nkG5Vd0Y0T47B8+Bz12xC7TBn8OOqmPEst+uGhDojLR8+588j86t/IN3ogx+RIRT8bfd24JxyNUDSXndV5vYCgoYteeMaH+HvM4ZeC7DpPuGACgrMJdcUxpptdH1YUvfENZBXOCAgKlpXOKhw1EbrV2m1cLyGiY28vORJe+5fV+W2wOzT9mwivcHwmvUf1NzCDCQgax4yy08dM0/RvI91QZNpT9xyzzCfDak1y+29rLbUpqr9GvxM2Ziu7DZ+fftrlY3M79bpXedCImJeVrboFTJN5s2sgoQQI1iejXwXzwFEKK38UaunGlwxHnqy0KZbBooGTAwsIGiIZsa4Uer/05+lYOnSGx29ur/GWYVnIZ3emuMspmIBYZNMXozqrrdzUCjZNTrBMuxEQhIjOv3FP28L+ZdsUBPNf5MH8YyVlpaSDklmWPNdDchQQvRytrOQMR29QvQUTEEw7PQ/NaacM+B/f/OzzWo2+KDm176VsVNrngK7bdnnk8KCG4MF46z43G095qWukhvYac7p0mmI/Gaq6OJM/Gw4aRmm/ona2eXKCcvfnqJbRhtIsgMjKUTYSY33Sx0zn0VW7wQEA2llYDnQtsMrvmphFqKn9LOLVYxe8wuiyYr3xd6tXg+AQnDFBPKZjkdVGvwL6z+sM6j3vWTywbogumIDYNMm64Ud0CMOqqPk4FL9Djb0b86jTzb0GBB2GzL78OhzvpUbChmL+cby/uNA1RHb30k3LMXvevypynvIA5TCuOS08n/T5cI9x/WACgmXNtKuytZnmr2VhtWf6T2494lFlEmet9son7+VQ5575G7FpYhwi3vTWuBjX1ukr3XGxm2iWl1UajP8xPF9aND5mpKW742oOQNC3hsOoxvTpY51O+jRoV2u7KfcMyxHDXXPXqzpolgnPFw6YbDv50S0EiwNbQNBINOHToR6Jp7EvceYqi2hcf/32o/XkE+OchGACIv3MZYyy0IB0ITS0n/5thFL16Lc/xkcjmEecHXt5jOIc23jQJU8fGxoLlpDhoibGLdiA4LNPbU+y9Rr1yLOhf8z0s0Eb1Xoec2YnnaLs7rP6n3FRC+MoiY6PsybHfOi767o5Xg77cYU0bs0BCGowVpqlMZ3MNwHBPPNn/9Krs0uY75/8xQivkQ5jfarv2BYQV1LOe/UBo97uAzqw2G3J6/Z5DU8ysczko3SXc04wAcECoM+9UWDmY7pKn9x6GISY+Rr7coRDIAChChicjZqpDJqUifl55vOVEXPBt4x5CzYgjA1y8YDJDb61mTdqXHcu3FBdBn2/MR/sY2+YsMzSZmGWw+j3B6rRKLNNoSi/CKtjvD1UzffbnTOd7C5zaw5A8LmcOTzlS9dEQqt0Mo1ag1B16OVLXEk+h/Ef1z8vScfFCXFG46+xDHw5tgUEJ2JRIzD+OK9B9xHNkTPxNDLN+sHzHn1/cq0PPSHCiTv6f7X/YTS2z17rjvLcvpNKvfcI8+No1X/Ugbgw6MzuMZ7x/DhaqVK6QmqBph08hTk9x6khNvZhCQX25+ic9fDGXdUXjf91lldcjJ99Zg5dzu870eu6OX1e5z+NUW6yOs06XUV5BTi28QDmho0D10rg8BMLlF2VKV1HqvUVOHXb3CB0PDfPXrFMC2d/cmiSG/1XfvtxjFc42jxoNG3sxobNhk+VdvLnw1Wa6cZLwMZ+8gvmhY1Xfifa5qDzbPU8XqPbOqc/T/863GVc6+iaL8Jh0lnfR6t5HXq6tzEuGuNo0PUYwu7YS7m+71m0WWkuKyPnqSHReWHjVNdYNxrjXjmglVfg0c1M73r542gFEMqSG5/PemQuZ9pfMq/WuTHTdZ9yNodb0H+S5epVpYXF2L1woxrhYTeTfkWxHCL+OkI5pHEej960DGhDoe2Lzxn/0RA1tMx6zZcazQC0Ydy93PR1QW0Bwcrp9bN1O3Yln4n3uscQD0PV2IapMxnVF49RUHbP0kJkWH1MIw6dd+hUwp95dptagMaQVmPc9aXHGM7qWD9fp9u45zUO5+U/z0Pesxy1loPRj8Lu3vrSo+/xJYwxLb4e6/gZnqta0ymKRjTaoJgX43Vf42Q4dh2K8wtVXAUv8lRZmS35xvg4V4FDfMbGTmc4u43OWtR+jOF5TBBR5r7Iy5cwfD59DazqAv+rTz6EO5dJ4PoTrJ++vPkpI9Zryoz1uji/SMnSTg7+/m8LCH8jkvAigWBKgAZK5eNisHnQyJmyfr/SZAkrNjauhcDG9vj2A2WYNAKC6js1HtnsJSCAsJeNXAlRCfAtTJXeyn2djZ7g4CzZsR8NUT8Oa7MrwmsegOgQpqbxh2g2QyJZAoiQKAZJhL8SoC3s2vE0cAarueEbIWB1zPDs62dYeIL6m47WHl4A0dpLuJXmT/flORmQBt8lg6Zg6pcjFTCMI1I03MW810/N66DxbtnQ6Tix5RBKi10T33Q8rVRMTc6WAKLJIpQIQkUCdGijkY7GupzHWch5lIXcJy/UOUFCQ6hs/klAAOGfvCS0SKBNSUAA0aaKWzIrEvBPAgII/+QloUUCbUoC/x/e2/ROilCzCgAAAABJRU5ErkJggg==;" vertex="1" parent="TVVZCGAAIm8pSXoO8avi-27">
          <mxGeometry x="6.8700000000000045" y="15" width="126.26" height="110" as="geometry" />
        </mxCell>
        <mxCell id="TVVZCGAAIm8pSXoO8avi-30" value="" style="group" vertex="1" connectable="0" parent="7t7A3Lj1Byggx4V8poIj-1">
          <mxGeometry x="807.5" y="850" width="155" height="155" as="geometry" />
        </mxCell>
        <mxCell id="TVVZCGAAIm8pSXoO8avi-31" value="" style="whiteSpace=wrap;html=1;aspect=fixed;" vertex="1" parent="TVVZCGAAIm8pSXoO8avi-30">
          <mxGeometry width="155" height="155" as="geometry" />
        </mxCell>
        <mxCell id="TVVZCGAAIm8pSXoO8avi-32" value="" style="shape=image;imageAspect=0;aspect=fixed;verticalLabelPosition=bottom;verticalAlign=top;image=https://media-exp1.licdn.com/dms/image/C4E0BAQGbojQ8Ho2X0w/company-logo_200_200/0/1559568546026?e=2159024400&amp;v=beta&amp;t=8DuKm1LmFhWHZ6Z4jxAq_ffvliBGgXUYSyTJina9QUY;" vertex="1" parent="TVVZCGAAIm8pSXoO8avi-30">
          <mxGeometry x="17.5" y="17.5" width="120" height="120" as="geometry" />
        </mxCell>
        <mxCell id="TVVZCGAAIm8pSXoO8avi-33" style="edgeStyle=orthogonalEdgeStyle;rounded=0;orthogonalLoop=1;jettySize=auto;html=1;entryX=1.007;entryY=0.679;entryDx=0;entryDy=0;entryPerimeter=0;exitX=0.5;exitY=1;exitDx=0;exitDy=0;" edge="1" parent="7t7A3Lj1Byggx4V8poIj-1" target="TVVZCGAAIm8pSXoO8avi-28" source="TVVZCGAAIm8pSXoO8avi-31">
          <mxGeometry relative="1" as="geometry">
            <mxPoint x="960" y="1018" as="sourcePoint" />
            <mxPoint x="680" y="1048" as="targetPoint" />
            <Array as="points">
              <mxPoint x="885" y="1033" />
              <mxPoint x="710" y="1033" />
              <mxPoint x="710" y="978" />
            </Array>
          </mxGeometry>
        </mxCell>
        <mxCell id="TVVZCGAAIm8pSXoO8avi-35" style="edgeStyle=orthogonalEdgeStyle;rounded=0;orthogonalLoop=1;jettySize=auto;html=1;exitX=1;exitY=0.8;exitDx=0;exitDy=0;exitPerimeter=0;" edge="1" parent="7t7A3Lj1Byggx4V8poIj-1" source="TVVZCGAAIm8pSXoO8avi-36" target="TVVZCGAAIm8pSXoO8avi-14">
          <mxGeometry relative="1" as="geometry" />
        </mxCell>
        <mxCell id="TVVZCGAAIm8pSXoO8avi-36" value="AWS API Gateway" style="outlineConnect=0;dashed=0;verticalLabelPosition=bottom;verticalAlign=top;align=center;html=1;shape=mxgraph.aws3.api_gateway;fillColor=#D9A741;gradientColor=none;" vertex="1" parent="7t7A3Lj1Byggx4V8poIj-1">
          <mxGeometry x="670" y="180" width="76.5" height="93" as="geometry" />
        </mxCell>
        <mxCell id="TVVZCGAAIm8pSXoO8avi-107" style="edgeStyle=orthogonalEdgeStyle;rounded=0;orthogonalLoop=1;jettySize=auto;html=1;entryX=0.5;entryY=0;entryDx=0;entryDy=0;entryPerimeter=0;" edge="1" parent="7t7A3Lj1Byggx4V8poIj-1" source="TVVZCGAAIm8pSXoO8avi-106" target="TVVZCGAAIm8pSXoO8avi-36">
          <mxGeometry relative="1" as="geometry" />
        </mxCell>
        <mxCell id="TVVZCGAAIm8pSXoO8avi-106" value="" style="shape=image;verticalLabelPosition=bottom;labelBackgroundColor=#ffffff;verticalAlign=top;aspect=fixed;imageAspect=0;image=data:image/png,iVBORw0KGgoAAAANSUhEUgAAAOEAAADhCAMAAAAJbSJIAAAAxlBMVEX////tHCTsAAAAdcEAdMD//PzS4/EAeMLzb3PJ3u/3qar0+v0hfcT1goT2mZvu+PztFB1+sdqsy+Zsqddon9JHj8sAbL0Ab77tAAvtERv++fntCBTvOD5rrdnxWl7uIin95+jvTFCfxuMxhMf2k5X+8fL3oqT73d77ysyDuN3o8PfvRUr5vsDyZGjxWFzvPEFXoNNGlc770dL0en3uLDL5tLf2i432pqm50umSwOH97O34uLmpxeI1kMx7qtecvt7S3u48lM7qSQ9PAAAGMElEQVR4nO3a6XqaTBgGYB02EY3ghkKsBNzApeKST5uaNOd/Ut8MIE4W06RN5KLXc/+IiMTMk3dmGNBCAQAAAAAAAAAAAAAAAAAAAAAAAAAAAAAAAAAAAAAAAAAAAAAAAAAg7yTLmQ3m18y6uh0Opawb9Lms4Www7RJCdIY+kpvbyY+sW/WJnFFp07GLvC4pLmbjrBv2SYbbud4pvtTtL+6GWTfuM4yr/dfyMXa3+g+UcTLv6GcCsjouZlk38G+VN/b5fKyMxVGuZ1XtP/JGASM6SSNqcpBpa/9Eufu7gBQZRcdq7rKx32Xc4A+SZtN3BCza/Wgs1uu9fcOQs270h6xu+DGo2zq3zb9iF+mMqvlBr+67uSrisMrH6E5vF+n2TfWGP4PYpWGUcO/Wc5Vw0uf6qL6ZWZNrPanZbDiZ8vE3W9pL/Z3mNvLUS605X6YOm05G8R5C81j/bbp8EekidR8ul7kqYZkPSKrRvhFh2wOLbg4Hfa7C+pa9nK+ThcSPNLKIF6DDb52ivY63nTnXTztzJ8O2/pkJ4TrhdyfZ6yzI4rgUXS24iOQuo3a+g0a9srt0KqG+maS7J+tZukqbTE9DkdxaF2iqKvOiXcl27XRUEO+Jh4wkq+7e9x9U+cXikhtl8cBLDE/b1u2pzvbU+aJYnGDZYsJej22EPs0YNMJo32mK09z4oJ8skmw0vYNf9w9eaDybBR2uk5LymcX11ekgvs5fRgvUUBTNZS0I5IMpKg1apyB4aNN9h/QgOTRFUZEDVtW9JyhGoNFf/OmJleaTN9t+MGGxe5FrDM1QBKHBtuS2ICpRWeptQRDE4zyuuRX6tBL12j2Nfh8PQelBof8afjiWXiQc8tfzTvSTT9i5cMKaJwqVOKFyqAhimBwhh94x4e4gip6a7K81RUGpc29V0p8nnCzK6RAsX5fZA5+QlC4w1UQJxShhcErY9GnZKkkUN4ye0YRSQxTEZsD/ZsidsW+eJ1xtiH0caitCppPnCdeXTahWRGEpxwnlUKSVjbpgcHDrSUK5RavmHzumtKO1rXCzzfOEY7oAsK/jU6FDrzns+fhZL51fKiHtpZoWGKbZ2mlxQs2nHfMxKuK+FeyUOOGOVdlNh55Knwr+2YTWmoWxozpZa3qm17vrH1kl9IyeEVa8h6TL1Zs1+UDDsHJpB5+Oy2NC+uims0OU0DiXsFCOLw7tAQ14tYl3jzLqpUpoGMbSU1r36jGhZNAhF9KneyVIE+6VFwnN+zMJt9s+idlba7RJtsksm5km6qWswaKXzDRBQWbN9zUt7BXShPW3azjnE14NqkeDbbq53maWkNmbgngIkoQFgz2Td6ZWON9LhSfjcPDkfHjm72VzPozn0sKOTpntX4UkoUyfmUZoSKeE0VzaSGcaNsV63Fx699E1jX3uoE/F1TBKyFocJSwsTRrRY6ePY0Ktwc4hxyW5RNc6You7BWF9dF16fZH7+1wNWRDzV+GYUKZxBFbCNCHrpqdMQZO+vuffi7sP856EnflFPmzjatijI68Vj0MWR7s36UBkL6QJNZ+uzo+hdhW6Ln1yE2JEPpTw7Fj9VJK8jBLWaoFLW+zRdaYUGE25Rmc5VTENOugkLVrTqGz8afcVs1JnjZfUlqk8Pr3Lsup/JGF3s/ryeOz60DPb7bYSho+e2PYaO6lQ6x3o4ibcs25oqmzweQI9pF05/CywC41HxWy59XpDUB7d2tN3k05XF2frc6pzp+R8cTomqKuxnfugqgH7vwfJHrq5Yys0zU12JBf1mrzzw0PY28svb2Sc7rXZi9Lr0mVBcq8tZ6xqWiGbkC6xOx372UO6KuiWcvmh/viau+f7povcwvgC1kh/z0dPrISDS6zYvoBTevvz3yPyLbdfWBjP3xOwc4kbiV9lsvl9P9X1XH9ZwXnrixhxBfs5/8LJamG/lVEvTnMekFax2j9/0uhuqk7WDfx7w9H0TFftkuk2t7Moz1oNvtsvv/ild65vL7HcvghrfDXvE/7k2CH64mqV0/P8q6wfd4NvNkl9v92O/6V8MccZb7fVeWm0df65rwgDAAAAAAAAAAAAAAAAAAAAAAAAAAAAAAAAAAAAAAAAAAAAAAAAQN78D1gKjBMNG59qAAAAAElFTkSuQmCC;imageBorder=#000000;" vertex="1" parent="7t7A3Lj1Byggx4V8poIj-1">
          <mxGeometry x="650" y="10" width="120" height="120" as="geometry" />
        </mxCell>
      </root>
    </mxGraphModel>
  </diagram>
</mxfile>
